SplineFontDB: 3.0
FontName: mnicmpDiamond-Italic
FullName: mnicmp Diamond Italic
FamilyName: mnicmp Diamond
Weight: Regular
Copyright: Copyright (c) 2017, Stewart C. Russell - @scruss
UComments: "2017-2-4: Created with FontForge (http://fontforge.org)"
Version: 001.000
ItalicAngle: -12.08
UnderlinePosition: -100
UnderlineWidth: 50
Ascent: 800
Descent: 200
InvalidEm: 0
LayerCount: 2
Layer: 0 0 "Back" 1
Layer: 1 0 "Fore" 0
XUID: [1021 253 2007425711 12107257]
StyleMap: 0x0001
FSType: 0
OS2Version: 0
OS2_WeightWidthSlopeOnly: 0
OS2_UseTypoMetrics: 1
CreationTime: 1486249316
ModificationTime: 1486415795
PfmFamily: 49
TTFWeight: 400
TTFWidth: 5
LineGap: 90
VLineGap: 0
OS2TypoAscent: 0
OS2TypoAOffset: 1
OS2TypoDescent: 0
OS2TypoDOffset: 1
OS2TypoLinegap: 90
OS2WinAscent: 0
OS2WinAOffset: 1
OS2WinDescent: 0
OS2WinDOffset: 1
HheadAscent: 0
HheadAOffset: 1
HheadDescent: 0
HheadDOffset: 1
OS2Vendor: 'PfEd'
MarkAttachClasses: 1
DEI: 91125

StartChar: glyph0
Encoding: 8593 8593 0
Width: 600
VWidth: 0
UnlinkRmOvrlpSave: 1
Flags: W
HStem: 200 21G<222 236> 200 21G<222 236> 533 100<107.757 172.243 427.757 492.243> 617 100<178.757 243.243 392.757 457.243> 780 20G<329 343>
VStem: 90 100<550.757 615.243> 161 100<634.757 699.243> 179 100<217.757 281.554> 197 100<301.446 364.935> 215 100<385.809 448.554> 233 100<468.446 531.615> 250 100<551.385 614.191> 268 100<635.065 698.554> 286 100<718.446 782.243> 375 100<634.757 699.243> 410 100<550.757 615.243>
LayerCount: 2
Back
Fore
SplineSet
279 250 m 0x89
 279 236 243 200 229 200 c 0
 215 200 179 236 179 250 c 0x89
 179 262 206 290 222 298 c 1
 209 310 197 325 197 333 c 0x8880
 197 345 224 374 240 381 c 1
 227 393 215 409 215 417 c 0x8840
 215 429 242 457 258 465 c 1
 245 477 233 492 233 500 c 1x8820
 233 512 259 540 275 548 c 1
 262 560 250 575 250 583 c 0x8810
 250 595 278 624 294 631 c 1
 281 643 268 659 268 667 c 0x8808
 268 679 295 707 311 715 c 1
 298 727 286 742 286 750 c 0
 286 764 322 800 336 800 c 0
 350 800 386 764 386 750 c 0x8804
 386 738 359 710 343 702 c 1
 356 690 368 675 368 667 c 0x8808
 368 655 341 626 325 619 c 1
 338 607 350 591 350 583 c 0x8810
 350 571 324 543 308 535 c 1
 321 523 333 508 333 500 c 0x8820
 333 488 306 460 290 452 c 1
 303 440 315 425 315 417 c 1x8840
 315 405 287 376 271 369 c 1
 284 357 297 341 297 333 c 0x8880
 297 321 270 293 254 285 c 1
 267 273 279 258 279 250 c 0x89
510 583 m 0x2801
 510 569 474 533 460 533 c 0
 446 533 410 569 410 583 c 0
 410 597 446 633 460 633 c 0
 474 633 510 597 510 583 c 0x2801
190 583 m 0x2c
 190 569 154 533 140 533 c 0
 126 533 90 569 90 583 c 0
 90 597 126 633 140 633 c 0
 154 633 190 597 190 583 c 0x2c
475 667 m 0x1802
 475 653 439 617 425 617 c 0
 411 617 375 653 375 667 c 0
 375 681 411 717 425 717 c 0
 439 717 475 681 475 667 c 0x1802
261 667 m 0x1a
 261 653 225 617 211 617 c 0
 197 617 161 653 161 667 c 0
 161 681 197 717 211 717 c 0
 225 717 261 681 261 667 c 0x1a
EndSplineSet
EndChar

StartChar: glyph1
Encoding: 8216 8216 1
Width: 600
VWidth: 0
UnlinkRmOvrlpSave: 1
Flags: W
HStem: 533 100<143.757 208.243> 780 20G<151 165>
VStem: 90 100<634.757 698.554> 108 100<718.446 782.243> 126 100<550.757 615.243>
LayerCount: 2
Back
Fore
SplineSet
226 583 m 0xc8
 226 569 190 533 176 533 c 0
 162 533 126 569 126 583 c 0
 126 597 162 633 176 633 c 0
 190 633 226 597 226 583 c 0xc8
190 667 m 0xe0
 190 653 154 617 140 617 c 0
 126 617 90 653 90 667 c 0xe0
 90 679 117 707 133 715 c 1
 120 727 108 742 108 750 c 0
 108 764 144 800 158 800 c 0
 172 800 208 764 208 750 c 0xd0
 208 738 181 710 165 702 c 1
 178 690 190 675 190 667 c 0xe0
EndSplineSet
EndChar

StartChar: glyph2
Encoding: 8220 8220 2
Width: 600
VWidth: 0
UnlinkRmOvrlpSave: 1
Flags: W
HStem: 533 100<142.757 207.243 302.757 367.243> 780 20G<151 165 311 325>
VStem: 90 100<634.757 698.554> 108 100<718.446 782.243> 125 100<550.757 615.243> 250 100<634.757 698.554> 268 100<718.446 782.243> 285 100<550.757 615.243>
LayerCount: 2
Back
Fore
SplineSet
385 583 m 0xc1
 385 569 349 533 335 533 c 0
 321 533 285 569 285 583 c 0
 285 597 321 633 335 633 c 0
 349 633 385 597 385 583 c 0xc1
225 583 m 0xc8
 225 569 189 533 175 533 c 0
 161 533 125 569 125 583 c 0
 125 597 161 633 175 633 c 0
 189 633 225 597 225 583 c 0xc8
350 667 m 0xc4
 350 653 314 617 300 617 c 0
 286 617 250 653 250 667 c 0xc4
 250 679 277 707 293 715 c 1
 280 727 268 742 268 750 c 0
 268 764 304 800 318 800 c 0
 332 800 368 764 368 750 c 0xc2
 368 738 341 710 325 702 c 1
 338 690 350 675 350 667 c 0xc4
190 667 m 0xe0
 190 653 154 617 140 617 c 0
 126 617 90 653 90 667 c 0xe0
 90 679 117 707 133 715 c 1
 120 727 108 742 108 750 c 0
 108 764 144 800 158 800 c 0
 172 800 208 764 208 750 c 0xd0
 208 738 181 710 165 702 c 1
 178 690 190 675 190 667 c 0xe0
EndSplineSet
EndChar

StartChar: dollar
Encoding: 36 36 4
Width: 600
VWidth: 0
UnlinkRmOvrlpSave: 1
Flags: W
HStem: 200 21G<222 236> 200 21G<222 236> 283 100<107.757 172.243 321.757 386.243> 367 100<392.757 457.243> 450 100<143.757 208.243 357.757 422.243> 533 100<107.757 172.243> 617 100<178.757 243.243 392.757 457.243> 780 20G<329 343>
VStem: 90 100<300.757 365.243 550.757 615.243> 126 100<467.757 532.243> 161 100<634.757 699.243> 179 100<217.757 281.554> 197 100<301.446 364.935> 215 100<385.809 448.554> 233 100<468.446 531.615> 250 100<551.385 614.191> 268 100<635.065 698.554> 286 100<718.446 782.243> 304 100<300.757 365.243> 340 100<467.757 532.243> 375 100<384.757 449.243 634.757 699.243>
LayerCount: 2
Back
Fore
SplineSet
279 250 m 0x8110
 279 236 243 200 229 200 c 0
 215 200 179 236 179 250 c 0x8110
 179 262 206 290 222 298 c 1
 209 310 197 325 197 333 c 0x8108
 197 345 224 374 240 381 c 1
 227 393 215 409 215 417 c 0x8104
 215 429 242 457 258 465 c 1
 245 477 233 492 233 500 c 1x8102
 233 512 259 540 275 548 c 1
 262 560 250 575 250 583 c 0x8101
 250 595 278 624 294 631 c 1
 281 643 268 659 268 667 c 0x810080
 268 679 295 707 311 715 c 1
 298 727 286 742 286 750 c 0
 286 764 322 800 336 800 c 0
 350 800 386 764 386 750 c 0x810040
 386 738 359 710 343 702 c 1
 356 690 368 675 368 667 c 0x810080
 368 655 341 626 325 619 c 1
 338 607 350 591 350 583 c 0x8101
 350 571 324 543 308 535 c 1
 321 523 333 508 333 500 c 0x8102
 333 488 306 460 290 452 c 1
 303 440 315 425 315 417 c 1x8104
 315 405 287 376 271 369 c 1
 284 357 297 341 297 333 c 0x8108
 297 321 270 293 254 285 c 1
 267 273 279 258 279 250 c 0x8110
404 333 m 0x210020
 404 319 368 283 354 283 c 0
 340 283 304 319 304 333 c 0
 304 347 340 383 354 383 c 0
 368 383 404 347 404 333 c 0x210020
190 333 m 0x2180
 190 319 154 283 140 283 c 0
 126 283 90 319 90 333 c 0
 90 347 126 383 140 383 c 0
 154 383 190 347 190 333 c 0x2180
475 417 m 0x110008
 475 403 439 367 425 367 c 0
 411 367 375 403 375 417 c 0
 375 431 411 467 425 467 c 0
 439 467 475 431 475 417 c 0x110008
440 500 m 0x090010
 440 486 404 450 390 450 c 0
 376 450 340 486 340 500 c 0
 340 514 376 550 390 550 c 0
 404 550 440 514 440 500 c 0x090010
226 500 m 0x0940
 226 486 190 450 176 450 c 0
 162 450 126 486 126 500 c 0
 126 514 162 550 176 550 c 0
 190 550 226 514 226 500 c 0x0940
190 583 m 0x0580
 190 569 154 533 140 533 c 0
 126 533 90 569 90 583 c 0
 90 597 126 633 140 633 c 0
 154 633 190 597 190 583 c 0x0580
475 667 m 0x030008
 475 653 439 617 425 617 c 0
 411 617 375 653 375 667 c 0
 375 681 411 717 425 717 c 0
 439 717 475 681 475 667 c 0x030008
261 667 m 0x0320
 261 653 225 617 211 617 c 0
 197 617 161 653 161 667 c 0
 161 681 197 717 211 717 c 0
 225 717 261 681 261 667 c 0x0320
EndSplineSet
EndChar

StartChar: section
Encoding: 167 167 5
Width: 600
VWidth: 0
UnlinkRmOvrlpSave: 1
Flags: W
HStem: 200 100<107.757 172.243 214.757 279.243> 283 100<285.757 350.243> 367 100<250.757 315.243 356.757 421.243> 450 100<214.757 279.243 428.757 493.243> 533 100<285.757 350.243 391.757 456.243> 617 100<356.757 421.243> 700 100<427.757 492.243 534.757 599.243>
VStem: 90 100<217.757 282.243> 197 100<217.757 282.243 467.757 532.243> 233 100<384.757 449.243> 268 100<300.757 365.243 550.757 615.243> 339 100<384.757 449.243 634.757 699.243> 374 100<550.757 615.243> 411 100<467.757 532.243 718.748 781.252> 517 100<717.757 782.243>
LayerCount: 2
Back
Fore
SplineSet
297 250 m 0x8182
 297 236 261 200 247 200 c 0
 233 200 197 236 197 250 c 0
 197 264 233 300 247 300 c 0
 261 300 297 264 297 250 c 0x8182
190 250 m 0
 190 236 154 200 140 200 c 0
 126 200 90 236 90 250 c 0
 90 264 126 300 140 300 c 0
 154 300 190 264 190 250 c 0
368 333 m 0x4122
 368 319 332 283 318 283 c 0
 304 283 268 319 268 333 c 0
 268 347 304 383 318 383 c 0
 332 383 368 347 368 333 c 0x4122
439 417 m 0x2112
 439 403 403 367 389 367 c 0
 375 367 339 403 339 417 c 0
 339 431 375 467 389 467 c 0
 403 467 439 431 439 417 c 0x2112
333 417 m 0x2142
 333 403 297 367 283 367 c 0
 269 367 233 403 233 417 c 0
 233 431 269 467 283 467 c 0
 297 467 333 431 333 417 c 0x2142
511 500 m 0x1106
 511 486 475 450 461 450 c 0
 447 450 411 486 411 500 c 0
 411 514 447 550 461 550 c 0
 475 550 511 514 511 500 c 0x1106
297 500 m 0x1182
 297 486 261 450 247 450 c 0
 233 450 197 486 197 500 c 0
 197 514 233 550 247 550 c 0
 261 550 297 514 297 500 c 0x1182
474 583 m 0x090a
 474 569 438 533 424 533 c 0
 410 533 374 569 374 583 c 0
 374 597 410 633 424 633 c 0
 438 633 474 597 474 583 c 0x090a
368 583 m 0x0922
 368 569 332 533 318 533 c 0
 304 533 268 569 268 583 c 0
 268 597 304 633 318 633 c 0
 332 633 368 597 368 583 c 0x0922
439 667 m 0x0512
 439 653 403 617 389 617 c 0
 375 617 339 653 339 667 c 0
 339 681 375 717 389 717 c 0
 403 717 439 681 439 667 c 0x0512
617 750 m 0
 617 736 581 700 567 700 c 0
 553 700 517 736 517 750 c 0
 517 764 553 800 567 800 c 0x0302
 581 800 617 764 617 750 c 0
510 750 m 0
 510 736 474 700 460 700 c 0
 446 700 410 736 410 750 c 0
 410 764 446 800 460 800 c 0
 474 800 510 764 510 750 c 0
EndSplineSet
EndChar

StartChar: parenleft
Encoding: 40 40 6
Width: 600
VWidth: 0
UnlinkRmOvrlpSave: 1
Flags: W
HStem: 200 100<177.757 242.243> 283 100<142.757 207.243> 613 20G<168 182> 617 100<213.757 278.243> 700 100<284.757 349.243>
VStem: 90 100<384.757 448.554> 108 100<468.446 531.615> 125 100<300.757 365.243 551.385 615.243> 160 100<217.757 282.243> 196 100<634.757 699.243> 267 100<717.757 782.243>
LayerCount: 2
Back
Fore
SplineSet
260 250 m 0x8080
 260 236 224 200 210 200 c 0
 196 200 160 236 160 250 c 0
 160 264 196 300 210 300 c 0
 224 300 260 264 260 250 c 0x8080
225 333 m 0x41
 225 319 189 283 175 283 c 0
 161 283 125 319 125 333 c 0
 125 347 161 383 175 383 c 0
 189 383 225 347 225 333 c 0x41
190 417 m 0x24
 190 403 154 367 140 367 c 0
 126 367 90 403 90 417 c 0x24
 90 429 117 457 133 465 c 1
 120 477 108 492 108 500 c 0x22
 108 512 134 540 150 548 c 1
 137 560 125 575 125 583 c 0
 125 597 161 633 175 633 c 0
 189 633 225 597 225 583 c 0x21
 225 571 199 543 183 535 c 1
 196 523 208 508 208 500 c 0x22
 208 488 181 460 165 452 c 1
 178 440 190 425 190 417 c 0x24
296 667 m 0x1040
 296 653 260 617 246 617 c 0
 232 617 196 653 196 667 c 0
 196 681 232 717 246 717 c 0
 260 717 296 681 296 667 c 0x1040
367 750 m 0x0820
 367 736 331 700 317 700 c 0
 303 700 267 736 267 750 c 0
 267 764 303 800 317 800 c 0
 331 800 367 764 367 750 c 0x0820
EndSplineSet
EndChar

StartChar: comma
Encoding: 44 44 7
Width: 600
VWidth: 0
UnlinkRmOvrlpSave: 1
Flags: W
HStem: 200 100<107.757 172.243> 283 100<178.757 243.243>
VStem: 90 100<217.757 282.243> 126 100<384.757 448.554> 144 100<468.446 532.243> 161 100<300.757 365.243> 232 100<384.757 448.554> 250 100<468.446 532.243>
LayerCount: 2
Back
Fore
SplineSet
190 250 m 0xa0
 190 236 154 200 140 200 c 0
 126 200 90 236 90 250 c 0
 90 264 126 300 140 300 c 0
 154 300 190 264 190 250 c 0xa0
261 333 m 0x44
 261 319 225 283 211 283 c 0
 197 283 161 319 161 333 c 0
 161 347 197 383 211 383 c 0
 225 383 261 347 261 333 c 0x44
332 417 m 1x02
 332 403 296 367 282 367 c 0
 268 367 232 403 232 417 c 0x02
 232 429 259 457 275 465 c 1
 262 477 250 492 250 500 c 1
 250 514 286 550 300 550 c 0
 314 550 350 514 350 500 c 0x01
 350 488 323 460 307 452 c 1
 320 440 332 425 332 417 c 1x02
226 417 m 0x10
 226 403 190 367 176 367 c 0
 162 367 126 403 126 417 c 0x10
 126 429 153 457 169 465 c 1
 156 477 144 492 144 500 c 0
 144 514 180 550 194 550 c 0
 208 550 244 514 244 500 c 0x08
 244 488 217 460 201 452 c 1
 214 440 226 425 226 417 c 0x10
EndSplineSet
EndChar

StartChar: zero
Encoding: 48 48 8
Width: 600
VWidth: 0
UnlinkRmOvrlpSave: 1
Flags: W
HStem: 200 100<178.757 243.243 284.757 349.243> 283 100<142.757 207.243 356.757 421.243> 613 20G<168 182 488 502> 617 100<213.757 278.243 427.757 492.243> 700 100<285.757 350.243 391.757 456.243>
VStem: 90 100<384.757 448.554> 108 100<468.446 531.615> 125 100<300.757 365.243 551.385 615.243> 161 100<217.757 282.243> 196 100<634.757 699.243> 267 100<217.757 282.243 718.748 781.252> 339 100<300.757 365.243> 374 100<717.757 782.243> 410 100<384.757 448.554 634.757 699.243> 428 100<468.446 531.615> 445 100<551.385 615.243>
LayerCount: 2
Back
Fore
SplineSet
367 250 m 0x8020
 367 236 331 200 317 200 c 0
 303 200 267 236 267 250 c 0
 267 264 303 300 317 300 c 0
 331 300 367 264 367 250 c 0x8020
261 250 m 0x8080
 261 236 225 200 211 200 c 0
 197 200 161 236 161 250 c 0
 161 264 197 300 211 300 c 0
 225 300 261 264 261 250 c 0x8080
439 333 m 0x4010
 439 319 403 283 389 283 c 0
 375 283 339 319 339 333 c 0
 339 347 375 383 389 383 c 0
 403 383 439 347 439 333 c 0x4010
225 333 m 0x41
 225 319 189 283 175 283 c 0
 161 283 125 319 125 333 c 0
 125 347 161 383 175 383 c 0
 189 383 225 347 225 333 c 0x41
510 417 m 1x2004
 510 403 474 367 460 367 c 0
 446 367 410 403 410 417 c 0x2004
 410 429 437 457 453 465 c 1
 440 477 428 492 428 500 c 1x2002
 428 512 454 540 470 548 c 1
 457 560 445 575 445 583 c 0
 445 597 481 633 495 633 c 0
 509 633 545 597 545 583 c 0x2001
 545 571 519 543 503 535 c 1
 516 523 528 508 528 500 c 0x2002
 528 488 501 460 485 452 c 1
 498 440 510 425 510 417 c 1x2004
190 417 m 0x24
 190 403 154 367 140 367 c 0
 126 367 90 403 90 417 c 0x24
 90 429 117 457 133 465 c 1
 120 477 108 492 108 500 c 0x22
 108 512 134 540 150 548 c 1
 137 560 125 575 125 583 c 0
 125 597 161 633 175 633 c 0
 189 633 225 597 225 583 c 0x21
 225 571 199 543 183 535 c 1
 196 523 208 508 208 500 c 0x22
 208 488 181 460 165 452 c 1
 178 440 190 425 190 417 c 0x24
510 667 m 0x1004
 510 653 474 617 460 617 c 0
 446 617 410 653 410 667 c 0
 410 681 446 717 460 717 c 0
 474 717 510 681 510 667 c 0x1004
296 667 m 0x1040
 296 653 260 617 246 617 c 0
 232 617 196 653 196 667 c 0
 196 681 232 717 246 717 c 0
 260 717 296 681 296 667 c 0x1040
474 750 m 0x0808
 474 736 438 700 424 700 c 0
 410 700 374 736 374 750 c 0
 374 764 410 800 424 800 c 0
 438 800 474 764 474 750 c 0x0808
368 750 m 0
 368 736 332 700 318 700 c 0
 304 700 268 736 268 750 c 0
 268 764 304 800 318 800 c 0
 332 800 368 764 368 750 c 0
EndSplineSet
EndChar

StartChar: glyph9
Encoding: 9785 9785 9
Width: 600
VWidth: 0
UnlinkRmOvrlpSave: 1
Flags: W
HStem: 283 100<107.757 172.243 427.757 492.243> 367 100<178.757 243.243 285.757 350.243 392.757 457.243> 617 100<231.757 296.243 445.757 510.243>
VStem: 90 100<300.757 365.243> 161 100<384.757 449.243> 214 100<634.757 699.243> 268 100<384.757 449.243> 375 100<384.757 449.243> 410 100<300.757 365.243> 428 100<634.757 699.243>
LayerCount: 2
Back
Fore
SplineSet
510 333 m 0xa080
 510 319 474 283 460 283 c 0
 446 283 410 319 410 333 c 0
 410 347 446 383 460 383 c 0
 474 383 510 347 510 333 c 0xa080
190 333 m 0xb0
 190 319 154 283 140 283 c 0
 126 283 90 319 90 333 c 0
 90 347 126 383 140 383 c 0
 154 383 190 347 190 333 c 0xb0
475 417 m 0x61
 475 403 439 367 425 367 c 0
 411 367 375 403 375 417 c 0
 375 431 411 467 425 467 c 0
 439 467 475 431 475 417 c 0x61
368 417 m 0x62
 368 403 332 367 318 367 c 0
 304 367 268 403 268 417 c 0
 268 431 304 467 318 467 c 0
 332 467 368 431 368 417 c 0x62
261 417 m 0x68
 261 403 225 367 211 367 c 0
 197 367 161 403 161 417 c 0
 161 431 197 467 211 467 c 0
 225 467 261 431 261 417 c 0x68
528 667 m 0x2040
 528 653 492 617 478 617 c 0
 464 617 428 653 428 667 c 0
 428 681 464 717 478 717 c 0
 492 717 528 681 528 667 c 0x2040
314 667 m 0x24
 314 653 278 617 264 617 c 0
 250 617 214 653 214 667 c 0
 214 681 250 717 264 717 c 0
 278 717 314 681 314 667 c 0x24
EndSplineSet
EndChar

StartChar: four
Encoding: 52 52 10
Width: 600
VWidth: 0
UnlinkRmOvrlpSave: 1
Flags: W
HStem: 200 21G<364 378> 200 21G<364 378> 367 100<107.757 172.243 214.757 279.243 320.757 385.243 427.757 492.243> 450 100<178.757 243.243> 533 100<249.757 314.243> 617 100<320.757 385.243> 700 100<391.757 456.243>
VStem: 90 100<384.757 449.243> 161 100<467.757 532.243> 197 100<384.757 449.243> 232 100<550.757 615.243> 303 100<384.757 449.243 634.757 699.243> 321 100<217.757 281.554> 339 100<301.446 365.243> 375 100<467.757 531.615 718.748 781.252> 392 100<551.385 614.191> 410 100<384.757 449.243 635.065 699.243>
LayerCount: 2
Back
Fore
SplineSet
421 250 m 0x8008
 421 236 385 200 371 200 c 0
 357 200 321 236 321 250 c 0x8008
 321 262 348 290 364 298 c 1
 351 310 339 325 339 333 c 0
 339 347 375 383 389 383 c 0
 403 383 439 347 439 333 c 0x8004
 439 321 412 293 396 285 c 1
 409 273 421 258 421 250 c 0x8008
510 417 m 0x200080
 510 403 474 367 460 367 c 0
 446 367 410 403 410 417 c 0
 410 431 446 467 460 467 c 0
 474 467 510 431 510 417 c 0x200080
403 417 m 0x2010
 403 403 367 367 353 367 c 0
 339 367 303 403 303 417 c 0
 303 431 339 467 353 467 c 0
 367 467 403 431 403 417 c 0x2010
297 417 m 0x2040
 297 403 261 367 247 367 c 0
 233 367 197 403 197 417 c 0
 197 431 233 467 247 467 c 0
 261 467 297 431 297 417 c 0x2040
190 417 m 0x21
 190 403 154 367 140 367 c 0
 126 367 90 403 90 417 c 0
 90 431 126 467 140 467 c 0
 154 467 190 431 190 417 c 0x21
475 500 m 0x1402
 475 486 439 450 425 450 c 0
 411 450 375 486 375 500 c 0x1402
 375 512 401 540 417 548 c 1
 404 560 392 575 392 583 c 0x1401
 392 595 420 624 436 631 c 1
 423 643 410 659 410 667 c 0
 410 681 446 717 460 717 c 0
 474 717 510 681 510 667 c 0x140080
 510 655 483 626 467 619 c 1
 480 607 492 591 492 583 c 0x1401
 492 571 466 543 450 535 c 1
 463 523 475 508 475 500 c 0x1402
261 500 m 0x1080
 261 486 225 450 211 450 c 0
 197 450 161 486 161 500 c 0
 161 514 197 550 211 550 c 0
 225 550 261 514 261 500 c 0x1080
332 583 m 0x0820
 332 569 296 533 282 533 c 0
 268 533 232 569 232 583 c 0
 232 597 268 633 282 633 c 0
 296 633 332 597 332 583 c 0x0820
403 667 m 0x0410
 403 653 367 617 353 617 c 0
 339 617 303 653 303 667 c 0
 303 681 339 717 353 717 c 0
 367 717 403 681 403 667 c 0x0410
474 750 m 0
 474 736 438 700 424 700 c 0
 410 700 374 736 374 750 c 0
 374 764 410 800 424 800 c 0x02
 438 800 474 764 474 750 c 0
EndSplineSet
EndChar

StartChar: periodcentered
Encoding: 183 183 11
Width: 600
VWidth: 0
UnlinkRmOvrlpSave: 1
Flags: W
HStem: 367 100<143.757 208.243 249.757 314.243> 450 100<107.757 172.243 214.757 279.243 321.757 386.243> 533 100<178.757 243.243 284.757 349.243>
VStem: 90 100<467.757 532.243> 126 100<384.757 449.243> 161 100<550.757 615.243> 197 100<467.757 532.243> 232 100<384.757 449.243> 267 100<550.757 615.243> 304 100<467.757 532.243>
LayerCount: 2
Back
Fore
SplineSet
332 417 m 0x81
 332 403 296 367 282 367 c 0
 268 367 232 403 232 417 c 0
 232 431 268 467 282 467 c 0
 296 467 332 431 332 417 c 0x81
226 417 m 0x88
 226 403 190 367 176 367 c 0
 162 367 126 403 126 417 c 0
 126 431 162 467 176 467 c 0
 190 467 226 431 226 417 c 0x88
404 500 m 0x4040
 404 486 368 450 354 450 c 0
 340 450 304 486 304 500 c 0
 304 514 340 550 354 550 c 0
 368 550 404 514 404 500 c 0x4040
297 500 m 0x42
 297 486 261 450 247 450 c 0
 233 450 197 486 197 500 c 0
 197 514 233 550 247 550 c 0
 261 550 297 514 297 500 c 0x42
190 500 m 0x50
 190 486 154 450 140 450 c 0
 126 450 90 486 90 500 c 0
 90 514 126 550 140 550 c 0
 154 550 190 514 190 500 c 0x50
367 583 m 0x2080
 367 569 331 533 317 533 c 0
 303 533 267 569 267 583 c 0
 267 597 303 633 317 633 c 0
 331 633 367 597 367 583 c 0x2080
261 583 m 0x24
 261 569 225 533 211 533 c 0
 197 533 161 569 161 583 c 0
 161 597 197 633 211 633 c 0
 225 633 261 597 261 583 c 0x24
EndSplineSet
EndChar

StartChar: eight
Encoding: 56 56 12
Width: 600
VWidth: 0
UnlinkRmOvrlpSave: 1
Flags: W
HStem: 200 100<142.757 207.243 249.757 314.243 356.757 421.243> 450 100<196.757 261.243 303.757 368.243 410.757 475.243> 700 100<249.757 314.243 356.757 421.243 463.757 528.243>
VStem: 90 100<300.757 364.935> 108 100<385.809 449.243> 125 100<217.757 282.243> 143 100<550.757 614.191> 161 100<635.065 699.243> 179 100<467.757 532.243> 232 100<217.757 282.243 717.757 782.243> 286 100<467.757 532.243> 339 100<217.757 282.243 717.757 782.243> 393 100<467.757 532.243> 410 100<300.757 364.935> 428 100<385.809 449.243> 446 100<717.757 782.243> 463 100<550.757 614.191> 481 100<635.065 699.243>
CounterMasks: 1 e0
LayerCount: 2
Back
Fore
SplineSet
439 250 m 0xe010
 439 236 403 200 389 200 c 0
 375 200 339 236 339 250 c 0
 339 264 375 300 389 300 c 0
 403 300 439 264 439 250 c 0xe010
332 250 m 0xe040
 332 236 296 200 282 200 c 0
 268 200 232 236 232 250 c 0
 232 264 268 300 282 300 c 0
 296 300 332 264 332 250 c 0xe040
225 250 m 0xe4
 225 236 189 200 175 200 c 0
 161 200 125 236 125 250 c 0
 125 264 161 300 175 300 c 0
 189 300 225 264 225 250 c 0xe4
510 333 m 0xe004
 510 319 474 283 460 283 c 0
 446 283 410 319 410 333 c 0xe004
 410 345 437 374 453 381 c 1
 440 393 428 409 428 417 c 0
 428 431 464 467 478 467 c 0
 492 467 528 431 528 417 c 0xe002
 528 405 500 376 484 369 c 1
 497 357 510 341 510 333 c 0xe004
190 333 m 0xf0
 190 319 154 283 140 283 c 0
 126 283 90 319 90 333 c 0xf0
 90 345 117 374 133 381 c 1
 120 393 108 409 108 417 c 0
 108 431 144 467 158 467 c 0
 172 467 208 431 208 417 c 0xe8
 208 405 180 376 164 369 c 1
 177 357 190 341 190 333 c 0xf0
493 500 m 0xe008
 493 486 457 450 443 450 c 0
 429 450 393 486 393 500 c 0
 393 514 429 550 443 550 c 0
 457 550 493 514 493 500 c 0xe008
386 500 m 0xe020
 386 486 350 450 336 450 c 0
 322 450 286 486 286 500 c 0
 286 514 322 550 336 550 c 0
 350 550 386 514 386 500 c 0xe020
279 500 m 0xe080
 279 486 243 450 229 450 c 0
 215 450 179 486 179 500 c 0
 179 514 215 550 229 550 c 0
 243 550 279 514 279 500 c 0xe080
563 583 m 0xe00080
 563 569 527 533 513 533 c 0
 499 533 463 569 463 583 c 0xe00080
 463 595 491 624 507 631 c 1
 494 643 481 659 481 667 c 0
 481 681 517 717 531 717 c 0
 545 717 581 681 581 667 c 0xe00040
 581 655 554 626 538 619 c 1
 551 607 563 591 563 583 c 0xe00080
243 583 m 0xe2
 243 569 207 533 193 533 c 0
 179 533 143 569 143 583 c 0xe2
 143 595 171 624 187 631 c 1
 174 643 161 659 161 667 c 0
 161 681 197 717 211 717 c 0
 225 717 261 681 261 667 c 0xe1
 261 655 234 626 218 619 c 1
 231 607 243 591 243 583 c 0xe2
546 750 m 0xe001
 546 736 510 700 496 700 c 0
 482 700 446 736 446 750 c 0
 446 764 482 800 496 800 c 0
 510 800 546 764 546 750 c 0xe001
439 750 m 0xe010
 439 736 403 700 389 700 c 0
 375 700 339 736 339 750 c 0
 339 764 375 800 389 800 c 0
 403 800 439 764 439 750 c 0xe010
332 750 m 0xe040
 332 736 296 700 282 700 c 0
 268 700 232 736 232 750 c 0
 232 764 268 800 282 800 c 0
 296 800 332 764 332 750 c 0xe040
EndSplineSet
EndChar

StartChar: less
Encoding: 60 60 13
Width: 600
VWidth: 0
UnlinkRmOvrlpSave: 1
Flags: W
HStem: 200 100<373.757 438.243> 283 100<284.757 349.243> 367 100<196.757 261.243> 450 100<107.757 172.243> 533 100<231.757 296.243> 617 100<355.757 420.243> 700 100<480.757 545.243>
VStem: 90 100<467.757 532.243> 179 100<384.757 449.243> 214 100<550.757 615.243> 267 100<300.757 365.243> 338 100<634.757 699.243> 356 100<217.757 282.243> 463 100<717.757 782.243>
LayerCount: 2
Back
Fore
SplineSet
456 250 m 0x800c
 456 236 420 200 406 200 c 0
 392 200 356 236 356 250 c 0
 356 264 392 300 406 300 c 0
 420 300 456 264 456 250 c 0x800c
367 333 m 0x4024
 367 319 331 283 317 283 c 0
 303 283 267 319 267 333 c 0
 267 347 303 383 317 383 c 0
 331 383 367 347 367 333 c 0x4024
279 417 m 0x2084
 279 403 243 367 229 367 c 0
 215 367 179 403 179 417 c 0
 179 431 215 467 229 467 c 0
 243 467 279 431 279 417 c 0x2084
190 500 m 0x1104
 190 486 154 450 140 450 c 0
 126 450 90 486 90 500 c 0
 90 514 126 550 140 550 c 0
 154 550 190 514 190 500 c 0x1104
314 583 m 0x0844
 314 569 278 533 264 533 c 0
 250 533 214 569 214 583 c 0
 214 597 250 633 264 633 c 0
 278 633 314 597 314 583 c 0x0844
438 667 m 0x0414
 438 653 402 617 388 617 c 0
 374 617 338 653 338 667 c 0
 338 681 374 717 388 717 c 0
 402 717 438 681 438 667 c 0x0414
563 750 m 0
 563 736 527 700 513 700 c 0
 499 700 463 736 463 750 c 0
 463 764 499 800 513 800 c 0x0204
 527 800 563 764 563 750 c 0
EndSplineSet
EndChar

StartChar: at
Encoding: 64 64 14
Width: 600
VWidth: 0
UnlinkRmOvrlpSave: 1
Flags: W
HStem: 200 100<142.757 207.243 249.757 314.243 356.757 421.243> 367 100<392.757 457.243> 533 100<373.757 438.243> 700 100<249.757 314.243 356.757 421.243 463.757 528.243>
VStem: 90 100<300.757 364.935> 108 100<385.809 448.554> 125 100<217.757 282.243 469.239 531.554> 143 100<551.385 614.191> 161 100<635.065 699.243> 232 100<217.757 282.243 717.757 782.243> 268 100<384.757 448.554> 286 100<468.446 532.243> 339 100<217.757 282.243 717.757 782.243> 356 100<550.757 615.243> 375 100<384.757 449.243> 446 100<467.757 531.615 717.757 782.243> 463 100<551.385 614.191> 481 100<635.065 699.243>
LayerCount: 2
Back
Fore
SplineSet
439 250 m 0xf008
 439 236 403 200 389 200 c 0
 375 200 339 236 339 250 c 0
 339 264 375 300 389 300 c 0
 403 300 439 264 439 250 c 0xf008
332 250 m 0xf040
 332 236 296 200 282 200 c 0
 268 200 232 236 232 250 c 0
 232 264 268 300 282 300 c 0
 296 300 332 264 332 250 c 0xf040
225 250 m 0xf2
 225 236 189 200 175 200 c 0
 161 200 125 236 125 250 c 0
 125 264 161 300 175 300 c 0
 189 300 225 264 225 250 c 0xf2
190 333 m 0xf8
 190 319 154 283 140 283 c 0
 126 283 90 319 90 333 c 0xf8
 90 345 117 374 133 381 c 1
 120 393 108 409 108 417 c 0xf4
 108 429 135 457 151 465 c 1
 138 477 126 492 126 500 c 0
 126 512 152 540 168 548 c 1
 155 560 143 575 143 583 c 0xf1
 143 595 171 624 187 631 c 1
 174 643 161 659 161 667 c 0
 161 681 197 717 211 717 c 0
 225 717 261 681 261 667 c 0xf080
 261 655 234 626 218 619 c 1
 231 607 243 591 243 583 c 0xf1
 243 571 217 543 201 535 c 1
 214 523 226 508 226 500 c 0
 226 488 199 460 183 452 c 1
 196 440 208 425 208 417 c 0xf4
 208 405 180 376 164 369 c 1
 177 357 190 341 190 333 c 0xf8
475 417 m 0xf002
 475 403 439 367 425 367 c 0
 411 367 375 403 375 417 c 0
 375 431 411 467 425 467 c 0
 439 467 475 431 475 417 c 0xf002
368 417 m 1xf020
 368 403 332 367 318 367 c 0
 304 367 268 403 268 417 c 0xf020
 268 429 295 457 311 465 c 1
 298 477 286 492 286 500 c 1
 286 514 322 550 336 550 c 0
 350 550 386 514 386 500 c 0xf010
 386 488 359 460 343 452 c 1
 356 440 368 425 368 417 c 1xf020
546 500 m 0xf001
 546 486 510 450 496 450 c 0
 482 450 446 486 446 500 c 0xf001
 446 512 472 540 488 548 c 1
 475 560 463 575 463 583 c 0xf00080
 463 595 491 624 507 631 c 1
 494 643 481 659 481 667 c 0
 481 681 517 717 531 717 c 0
 545 717 581 681 581 667 c 0xf00040
 581 655 554 626 538 619 c 1
 551 607 563 591 563 583 c 0xf00080
 563 571 537 543 521 535 c 1
 534 523 546 508 546 500 c 0xf001
456 583 m 0xf004
 456 569 420 533 406 533 c 0
 392 533 356 569 356 583 c 0
 356 597 392 633 406 633 c 0
 420 633 456 597 456 583 c 0xf004
546 750 m 0xf001
 546 736 510 700 496 700 c 0
 482 700 446 736 446 750 c 0
 446 764 482 800 496 800 c 0
 510 800 546 764 546 750 c 0xf001
439 750 m 0xf008
 439 736 403 700 389 700 c 0
 375 700 339 736 339 750 c 0
 339 764 375 800 389 800 c 0
 403 800 439 764 439 750 c 0xf008
332 750 m 0xf040
 332 736 296 700 282 700 c 0
 268 700 232 736 232 750 c 0
 232 764 268 800 282 800 c 0
 296 800 332 764 332 750 c 0xf040
EndSplineSet
EndChar

StartChar: D
Encoding: 68 68 15
Width: 600
VWidth: 0
UnlinkRmOvrlpSave: 1
Flags: W
HStem: 200 100<107.757 172.243 214.757 279.243 320.757 385.243> 700 100<214.757 279.243 321.757 386.243 427.757 492.243>
VStem: 90 100<217.757 282.243> 161 100<300.757 364.935> 179 100<385.809 448.554> 197 100<217.757 282.243 468.446 531.615 717.757 782.243> 214 100<551.385 614.191> 232 100<635.065 699.243> 303 100<217.757 282.243 718.748 781.252> 410 100<717.757 782.243> 428 100<300.757 364.935> 446 100<385.809 448.554> 464 100<468.446 531.615> 481 100<551.385 614.191> 499 100<635.065 699.243>
LayerCount: 2
Back
Fore
SplineSet
403 250 m 0xc080
 403 236 367 200 353 200 c 0
 339 200 303 236 303 250 c 0
 303 264 339 300 353 300 c 0
 367 300 403 264 403 250 c 0xc080
297 250 m 0xc4
 297 236 261 200 247 200 c 0
 233 200 197 236 197 250 c 0
 197 264 233 300 247 300 c 0
 261 300 297 264 297 250 c 0xc4
190 250 m 0xe0
 190 236 154 200 140 200 c 0
 126 200 90 236 90 250 c 0
 90 264 126 300 140 300 c 0
 154 300 190 264 190 250 c 0xe0
528 333 m 0xc020
 528 319 492 283 478 283 c 0
 464 283 428 319 428 333 c 0xc020
 428 345 455 374 471 381 c 1
 458 393 446 409 446 417 c 0xc010
 446 429 473 457 489 465 c 1
 476 477 464 492 464 500 c 1xc008
 464 512 490 540 506 548 c 1
 493 560 481 575 481 583 c 0xc004
 481 595 509 624 525 631 c 1
 512 643 499 659 499 667 c 0
 499 681 535 717 549 717 c 0
 563 717 599 681 599 667 c 0xc002
 599 655 572 626 556 619 c 1
 569 607 581 591 581 583 c 0xc004
 581 571 555 543 539 535 c 1
 552 523 564 508 564 500 c 0xc008
 564 488 537 460 521 452 c 1
 534 440 546 425 546 417 c 1xc010
 546 405 518 376 502 369 c 1
 515 357 528 341 528 333 c 0xc020
261 333 m 0xd0
 261 319 225 283 211 283 c 0
 197 283 161 319 161 333 c 0xd0
 161 345 188 374 204 381 c 1
 191 393 179 409 179 417 c 0xc8
 179 429 206 457 222 465 c 1
 209 477 197 492 197 500 c 0xc4
 197 512 223 540 239 548 c 1
 226 560 214 575 214 583 c 0xc2
 214 595 242 624 258 631 c 1
 245 643 232 659 232 667 c 0
 232 681 268 717 282 717 c 0
 296 717 332 681 332 667 c 0xc1
 332 655 305 626 289 619 c 1
 302 607 314 591 314 583 c 0xc2
 314 571 288 543 272 535 c 1
 285 523 297 508 297 500 c 0xc4
 297 488 270 460 254 452 c 1
 267 440 279 425 279 417 c 0xc8
 279 405 251 376 235 369 c 1
 248 357 261 341 261 333 c 0xd0
510 750 m 0xc040
 510 736 474 700 460 700 c 0
 446 700 410 736 410 750 c 0
 410 764 446 800 460 800 c 0
 474 800 510 764 510 750 c 0xc040
404 750 m 0
 404 736 368 700 354 700 c 0
 340 700 304 736 304 750 c 0
 304 764 340 800 354 800 c 0
 368 800 404 764 404 750 c 0
297 750 m 0xc4
 297 736 261 700 247 700 c 0
 233 700 197 736 197 750 c 0
 197 764 233 800 247 800 c 0
 261 800 297 764 297 750 c 0xc4
EndSplineSet
EndChar

StartChar: Ccedilla
Encoding: 199 199 16
Width: 600
VWidth: 0
UnlinkRmOvrlpSave: 1
Flags: W
HStem: 200 21G<257 271> 200 21G<257 271> 283 100<142.757 207.243 356.757 421.243> 367 100<427.757 492.243> 617 100<480.757 545.243> 700 100<231.757 296.243 338.757 403.243 445.757 510.243>
VStem: 90 100<384.757 448.554> 108 100<468.446 531.615> 125 100<300.757 365.243 551.385 614.191> 143 100<635.065 699.243> 214 100<217.757 281.554 717.757 782.243> 232 100<301.446 365.243> 321 100<717.757 782.243> 339 100<300.757 365.243> 410 100<384.757 449.243> 428 100<717.757 782.243> 463 100<634.757 699.243>
LayerCount: 2
Back
Fore
SplineSet
314 250 m 0xa020
 314 236 278 200 264 200 c 0
 250 200 214 236 214 250 c 0xa020
 214 262 241 290 257 298 c 1
 244 310 232 325 232 333 c 0
 232 347 268 383 282 383 c 0
 296 383 332 347 332 333 c 0xa010
 332 321 305 293 289 285 c 1
 302 273 314 258 314 250 c 0xa020
439 333 m 0x2004
 439 319 403 283 389 283 c 0
 375 283 339 319 339 333 c 0
 339 347 375 383 389 383 c 0
 403 383 439 347 439 333 c 0x2004
225 333 m 0x2080
 225 319 189 283 175 283 c 0
 161 283 125 319 125 333 c 0
 125 347 161 383 175 383 c 0
 189 383 225 347 225 333 c 0x2080
510 417 m 0x1002
 510 403 474 367 460 367 c 0
 446 367 410 403 410 417 c 0
 410 431 446 467 460 467 c 0
 474 467 510 431 510 417 c 0x1002
190 417 m 0x1a
 190 403 154 367 140 367 c 0
 126 367 90 403 90 417 c 0x1a
 90 429 117 457 133 465 c 1
 120 477 108 492 108 500 c 0x19
 108 512 134 540 150 548 c 1
 137 560 125 575 125 583 c 0x1880
 125 595 153 624 169 631 c 1
 156 643 143 659 143 667 c 0
 143 681 179 717 193 717 c 0
 207 717 243 681 243 667 c 0x1840
 243 655 216 626 200 619 c 1
 213 607 225 591 225 583 c 0x1880
 225 571 199 543 183 535 c 1
 196 523 208 508 208 500 c 0x19
 208 488 181 460 165 452 c 1
 178 440 190 425 190 417 c 0x1a
563 667 m 0x080080
 563 653 527 617 513 617 c 0
 499 617 463 653 463 667 c 0
 463 681 499 717 513 717 c 0
 527 717 563 681 563 667 c 0x080080
528 750 m 0x0401
 528 736 492 700 478 700 c 0
 464 700 428 736 428 750 c 0
 428 764 464 800 478 800 c 0
 492 800 528 764 528 750 c 0x0401
421 750 m 0x0408
 421 736 385 700 371 700 c 0
 357 700 321 736 321 750 c 0
 321 764 357 800 371 800 c 0
 385 800 421 764 421 750 c 0x0408
314 750 m 0x0420
 314 736 278 700 264 700 c 0
 250 700 214 736 214 750 c 0
 214 764 250 800 264 800 c 0
 278 800 314 764 314 750 c 0x0420
EndSplineSet
EndChar

StartChar: H
Encoding: 72 72 17
Width: 600
VWidth: 0
UnlinkRmOvrlpSave: 1
Flags: W
HStem: 200 21G<133 147 453 467> 200 21G<133 147 453 467> 450 100<268.757 333.243 374.757 439.243> 780 20G<240 254 560 574>
VStem: 90 100<217.757 281.554> 108 100<301.446 364.935> 126 100<385.809 448.554> 144 100<468.446 531.615> 161 100<551.385 614.191> 179 100<635.065 698.554> 197 100<718.446 782.243> 251 100<467.757 532.243> 357 100<467.757 532.243> 410 100<217.757 281.554> 428 100<301.446 364.935> 446 100<385.809 448.554> 464 100<468.446 531.615> 481 100<551.385 614.191> 499 100<635.065 698.554> 517 100<718.446 782.243>
LayerCount: 2
Back
Fore
SplineSet
510 250 m 0xb004
 510 236 474 200 460 200 c 0
 446 200 410 236 410 250 c 0xb004
 410 262 437 290 453 298 c 1
 440 310 428 325 428 333 c 0xb002
 428 345 455 374 471 381 c 1
 458 393 446 409 446 417 c 0xb001
 446 429 473 457 489 465 c 1
 476 477 464 492 464 500 c 1xb00080
 464 512 490 540 506 548 c 1
 493 560 481 575 481 583 c 0xb00040
 481 595 509 624 525 631 c 1
 512 643 499 659 499 667 c 0xb00020
 499 679 526 707 542 715 c 1
 529 727 517 742 517 750 c 0
 517 764 553 800 567 800 c 0
 581 800 617 764 617 750 c 0xb00010
 617 738 590 710 574 702 c 1
 587 690 599 675 599 667 c 0xb00020
 599 655 572 626 556 619 c 1
 569 607 581 591 581 583 c 0xb00040
 581 571 555 543 539 535 c 1
 552 523 564 508 564 500 c 0xb00080
 564 488 537 460 521 452 c 1
 534 440 546 425 546 417 c 1xb001
 546 405 518 376 502 369 c 1
 515 357 528 341 528 333 c 0xb002
 528 321 501 293 485 285 c 1
 498 273 510 258 510 250 c 0xb004
190 250 m 0xb8
 190 236 154 200 140 200 c 0
 126 200 90 236 90 250 c 0xb8
 90 262 117 290 133 298 c 1
 120 310 108 325 108 333 c 0xb4
 108 345 135 374 151 381 c 1
 138 393 126 409 126 417 c 0xb2
 126 429 153 457 169 465 c 1
 156 477 144 492 144 500 c 0xb1
 144 512 170 540 186 548 c 1
 173 560 161 575 161 583 c 0xb080
 161 595 189 624 205 631 c 1
 192 643 179 659 179 667 c 0xb040
 179 679 206 707 222 715 c 1
 209 727 197 742 197 750 c 0
 197 764 233 800 247 800 c 0
 261 800 297 764 297 750 c 0xb020
 297 738 270 710 254 702 c 1
 267 690 279 675 279 667 c 0xb040
 279 655 252 626 236 619 c 1
 249 607 261 591 261 583 c 0xb080
 261 571 235 543 219 535 c 1
 232 523 244 508 244 500 c 0xb1
 244 488 217 460 201 452 c 1
 214 440 226 425 226 417 c 0xb2
 226 405 198 376 182 369 c 1
 195 357 208 341 208 333 c 0xb4
 208 321 181 293 165 285 c 1
 178 273 190 258 190 250 c 0xb8
457 500 m 0x3008
 457 486 421 450 407 450 c 0
 393 450 357 486 357 500 c 0
 357 514 393 550 407 550 c 0
 421 550 457 514 457 500 c 0x3008
351 500 m 0x3010
 351 486 315 450 301 450 c 0
 287 450 251 486 251 500 c 0
 251 514 287 550 301 550 c 0
 315 550 351 514 351 500 c 0x3010
EndSplineSet
EndChar

StartChar: Edieresis
Encoding: 203 203 18
Width: 600
VWidth: 0
UnlinkRmOvrlpSave: 1
Flags: W
HStem: 200 100<214.757 279.243 320.757 385.243 427.757 492.243> 367 100<250.757 315.243 356.757 421.243> 533 100<285.757 350.243 391.757 456.243 498.757 563.243> 700 100<267.757 332.243 481.757 546.243>
VStem: 90 100<217.757 281.554> 108 100<301.446 364.935> 126 100<385.809 448.554> 144 100<468.446 531.615> 161 100<551.385 615.243> 197 100<217.757 282.243> 233 100<384.757 449.243> 250 100<717.757 782.243> 268 100<550.757 615.243> 303 100<217.757 282.243> 339 100<384.757 449.243> 374 100<550.757 615.243> 410 100<217.757 282.243> 464 100<717.757 782.243> 481 100<550.757 615.243>
LayerCount: 2
Back
Fore
SplineSet
510 250 m 0xf00080
 510 236 474 200 460 200 c 0
 446 200 410 236 410 250 c 0
 410 264 446 300 460 300 c 0
 474 300 510 264 510 250 c 0xf00080
403 250 m 0xf004
 403 236 367 200 353 200 c 0
 339 200 303 236 303 250 c 0
 303 264 339 300 353 300 c 0
 367 300 403 264 403 250 c 0xf004
297 250 m 0xf040
 297 236 261 200 247 200 c 0
 233 200 197 236 197 250 c 0
 197 264 233 300 247 300 c 0
 261 300 297 264 297 250 c 0xf040
190 250 m 0xf8
 190 236 154 200 140 200 c 0
 126 200 90 236 90 250 c 0xf8
 90 262 117 290 133 298 c 1
 120 310 108 325 108 333 c 0xf4
 108 345 135 374 151 381 c 1
 138 393 126 409 126 417 c 0xf2
 126 429 153 457 169 465 c 1
 156 477 144 492 144 500 c 0xf1
 144 512 170 540 186 548 c 1
 173 560 161 575 161 583 c 0
 161 597 197 633 211 633 c 0
 225 633 261 597 261 583 c 0xf080
 261 571 235 543 219 535 c 1
 232 523 244 508 244 500 c 0xf1
 244 488 217 460 201 452 c 1
 214 440 226 425 226 417 c 0xf2
 226 405 198 376 182 369 c 1
 195 357 208 341 208 333 c 0xf4
 208 321 181 293 165 285 c 1
 178 273 190 258 190 250 c 0xf8
439 417 m 0xf002
 439 403 403 367 389 367 c 0
 375 367 339 403 339 417 c 0
 339 431 375 467 389 467 c 0
 403 467 439 431 439 417 c 0xf002
333 417 m 0xf020
 333 403 297 367 283 367 c 0
 269 367 233 403 233 417 c 0
 233 431 269 467 283 467 c 0
 297 467 333 431 333 417 c 0xf020
581 583 m 0xf00020
 581 569 545 533 531 533 c 0
 517 533 481 569 481 583 c 0
 481 597 517 633 531 633 c 0
 545 633 581 597 581 583 c 0xf00020
474 583 m 0xf001
 474 569 438 533 424 533 c 0
 410 533 374 569 374 583 c 0
 374 597 410 633 424 633 c 0
 438 633 474 597 474 583 c 0xf001
368 583 m 0xf008
 368 569 332 533 318 533 c 0
 304 533 268 569 268 583 c 0
 268 597 304 633 318 633 c 0
 332 633 368 597 368 583 c 0xf008
564 750 m 0xf00040
 564 736 528 700 514 700 c 0
 500 700 464 736 464 750 c 0
 464 764 500 800 514 800 c 0
 528 800 564 764 564 750 c 0xf00040
350 750 m 0xf010
 350 736 314 700 300 700 c 0
 286 700 250 736 250 750 c 0
 250 764 286 800 300 800 c 0
 314 800 350 764 350 750 c 0xf010
EndSplineSet
EndChar

StartChar: L
Encoding: 76 76 19
Width: 600
VWidth: 0
UnlinkRmOvrlpSave: 1
Flags: W
HStem: 200 100<214.757 279.243 320.757 385.243 427.757 492.243> 780 20G<240 254>
VStem: 90 100<217.757 281.554> 108 100<301.446 364.935> 126 100<385.809 448.554> 144 100<468.446 531.615> 161 100<551.385 614.191> 179 100<635.065 698.554> 197 100<217.757 282.243 718.446 782.243> 303 100<217.757 282.243> 410 100<217.757 282.243>
LayerCount: 2
Back
Fore
SplineSet
510 250 m 0xc060
 510 236 474 200 460 200 c 0
 446 200 410 236 410 250 c 0
 410 264 446 300 460 300 c 0
 474 300 510 264 510 250 c 0xc060
403 250 m 0
 403 236 367 200 353 200 c 0
 339 200 303 236 303 250 c 0
 303 264 339 300 353 300 c 0
 367 300 403 264 403 250 c 0
297 250 m 0xc0e0
 297 236 261 200 247 200 c 0
 233 200 197 236 197 250 c 0
 197 264 233 300 247 300 c 0
 261 300 297 264 297 250 c 0xc0e0
190 250 m 0xe060
 190 236 154 200 140 200 c 0
 126 200 90 236 90 250 c 0xe060
 90 262 117 290 133 298 c 1
 120 310 108 325 108 333 c 0xd060
 108 345 135 374 151 381 c 1
 138 393 126 409 126 417 c 0xc860
 126 429 153 457 169 465 c 1
 156 477 144 492 144 500 c 0xc460
 144 512 170 540 186 548 c 1
 173 560 161 575 161 583 c 0xc260
 161 595 189 624 205 631 c 1
 192 643 179 659 179 667 c 0xc160
 179 679 206 707 222 715 c 1
 209 727 197 742 197 750 c 0
 197 764 233 800 247 800 c 0
 261 800 297 764 297 750 c 0xc0e0
 297 738 270 710 254 702 c 1
 267 690 279 675 279 667 c 0xc160
 279 655 252 626 236 619 c 1
 249 607 261 591 261 583 c 0xc260
 261 571 235 543 219 535 c 1
 232 523 244 508 244 500 c 0xc460
 244 488 217 460 201 452 c 1
 214 440 226 425 226 417 c 0xc860
 226 405 198 376 182 369 c 1
 195 357 208 341 208 333 c 0xd060
 208 321 181 293 165 285 c 1
 178 273 190 258 190 250 c 0xe060
EndSplineSet
EndChar

StartChar: P
Encoding: 80 80 20
Width: 600
VWidth: 0
UnlinkRmOvrlpSave: 1
Flags: W
HStem: 200 21G<133 147> 200 21G<133 147> 450 100<268.757 333.243 374.757 439.243> 700 100<321.757 386.243 427.757 492.243>
VStem: 90 100<217.757 281.554> 108 100<301.446 364.935> 126 100<385.809 448.554> 144 100<468.446 531.615> 161 100<551.385 614.191> 179 100<635.065 698.554> 197 100<718.446 782.243> 251 100<467.757 532.243> 304 100<717.757 782.243> 357 100<467.757 532.243> 410 100<717.757 782.243> 481 100<550.757 614.191> 499 100<635.065 699.243>
LayerCount: 2
Back
Fore
SplineSet
190 250 m 0xb8
 190 236 154 200 140 200 c 0
 126 200 90 236 90 250 c 0xb8
 90 262 117 290 133 298 c 1
 120 310 108 325 108 333 c 0xb4
 108 345 135 374 151 381 c 1
 138 393 126 409 126 417 c 0xb2
 126 429 153 457 169 465 c 1
 156 477 144 492 144 500 c 0xb1
 144 512 170 540 186 548 c 1
 173 560 161 575 161 583 c 0xb080
 161 595 189 624 205 631 c 1
 192 643 179 659 179 667 c 0xb040
 179 679 206 707 222 715 c 1
 209 727 197 742 197 750 c 0
 197 764 233 800 247 800 c 0
 261 800 297 764 297 750 c 0xb020
 297 738 270 710 254 702 c 1
 267 690 279 675 279 667 c 0xb040
 279 655 252 626 236 619 c 1
 249 607 261 591 261 583 c 0xb080
 261 571 235 543 219 535 c 1
 232 523 244 508 244 500 c 0xb1
 244 488 217 460 201 452 c 1
 214 440 226 425 226 417 c 0xb2
 226 405 198 376 182 369 c 1
 195 357 208 341 208 333 c 0xb4
 208 321 181 293 165 285 c 1
 178 273 190 258 190 250 c 0xb8
457 500 m 0x3004
 457 486 421 450 407 450 c 0
 393 450 357 486 357 500 c 0
 357 514 393 550 407 550 c 0
 421 550 457 514 457 500 c 0x3004
351 500 m 0x3010
 351 486 315 450 301 450 c 0
 287 450 251 486 251 500 c 0
 251 514 287 550 301 550 c 0
 315 550 351 514 351 500 c 0x3010
581 583 m 0x3001
 581 569 545 533 531 533 c 0
 517 533 481 569 481 583 c 0x3001
 481 595 509 624 525 631 c 1
 512 643 499 659 499 667 c 0
 499 681 535 717 549 717 c 0
 563 717 599 681 599 667 c 0x300080
 599 655 572 626 556 619 c 1
 569 607 581 591 581 583 c 0x3001
510 750 m 0x3002
 510 736 474 700 460 700 c 0
 446 700 410 736 410 750 c 0
 410 764 446 800 460 800 c 0
 474 800 510 764 510 750 c 0x3002
404 750 m 0x3008
 404 736 368 700 354 700 c 0
 340 700 304 736 304 750 c 0
 304 764 340 800 354 800 c 0
 368 800 404 764 404 750 c 0x3008
EndSplineSet
EndChar

StartChar: T
Encoding: 84 84 21
Width: 600
VWidth: 0
UnlinkRmOvrlpSave: 1
Flags: W
HStem: 200 21G<186 200> 200 21G<186 200> 700 100<107.757 172.243 214.757 279.243 320.757 385.243 427.757 492.243>
VStem: 90 100<717.757 782.243> 143 100<217.757 281.554> 161 100<301.446 364.935> 179 100<385.809 448.554> 197 100<468.446 531.615 717.757 782.243> 214 100<551.385 614.191> 232 100<635.065 699.243> 303 100<717.757 782.243> 410 100<717.757 782.243>
LayerCount: 2
Back
Fore
SplineSet
243 250 m 0xa810
 243 236 207 200 193 200 c 0
 179 200 143 236 143 250 c 0xa810
 143 262 170 290 186 298 c 1
 173 310 161 325 161 333 c 0xa410
 161 345 188 374 204 381 c 1
 191 393 179 409 179 417 c 0xa210
 179 429 206 457 222 465 c 1
 209 477 197 492 197 500 c 1xa110
 197 512 223 540 239 548 c 1
 226 560 214 575 214 583 c 0xa090
 214 595 242 624 258 631 c 1
 245 643 232 659 232 667 c 0
 232 681 268 717 282 717 c 0
 296 717 332 681 332 667 c 0xa050
 332 655 305 626 289 619 c 1
 302 607 314 591 314 583 c 0xa090
 314 571 288 543 272 535 c 1
 285 523 297 508 297 500 c 0xa110
 297 488 270 460 254 452 c 1
 267 440 279 425 279 417 c 1xa210
 279 405 251 376 235 369 c 1
 248 357 261 341 261 333 c 0xa410
 261 321 234 293 218 285 c 1
 231 273 243 258 243 250 c 0xa810
510 750 m 0
 510 736 474 700 460 700 c 0
 446 700 410 736 410 750 c 0
 410 764 446 800 460 800 c 0
 474 800 510 764 510 750 c 0
403 750 m 0x2030
 403 736 367 700 353 700 c 0
 339 700 303 736 303 750 c 0
 303 764 339 800 353 800 c 0
 367 800 403 764 403 750 c 0x2030
297 750 m 0x2110
 297 736 261 700 247 700 c 0
 233 700 197 736 197 750 c 0
 197 764 233 800 247 800 c 0
 261 800 297 764 297 750 c 0x2110
190 750 m 0x3010
 190 736 154 700 140 700 c 0
 126 700 90 736 90 750 c 0
 90 764 126 800 140 800 c 0
 154 800 190 764 190 750 c 0x3010
EndSplineSet
EndChar

StartChar: multiply
Encoding: 215 215 22
Width: 600
VWidth: 0
UnlinkRmOvrlpSave: 1
Flags: W
HStem: 283 100<107.757 172.243 321.757 386.243> 367 100<179.757 244.243 285.757 350.243> 450 100<250.757 315.243> 533 100<214.757 279.243 320.757 385.243> 617 100<178.757 243.243 392.757 457.243>
VStem: 90 100<300.757 365.243> 162 100<384.757 449.243 635.748 698.252> 197 100<550.757 615.243> 233 100<467.757 532.243> 268 100<384.757 449.243> 304 100<300.757 365.243 551.748 614.252> 375 100<634.757 699.243>
LayerCount: 2
Back
Fore
SplineSet
404 333 m 0x8020
 404 319 368 283 354 283 c 0
 340 283 304 319 304 333 c 0
 304 347 340 383 354 383 c 0
 368 383 404 347 404 333 c 0x8020
190 333 m 0x84
 190 319 154 283 140 283 c 0
 126 283 90 319 90 333 c 0
 90 347 126 383 140 383 c 0
 154 383 190 347 190 333 c 0x84
368 417 m 0x4040
 368 403 332 367 318 367 c 0
 304 367 268 403 268 417 c 0
 268 431 304 467 318 467 c 0
 332 467 368 431 368 417 c 0x4040
262 417 m 0x42
 262 403 226 367 212 367 c 0
 198 367 162 403 162 417 c 0
 162 431 198 467 212 467 c 0
 226 467 262 431 262 417 c 0x42
333 500 m 0x2080
 333 486 297 450 283 450 c 0
 269 450 233 486 233 500 c 0
 233 514 269 550 283 550 c 0
 297 550 333 514 333 500 c 0x2080
403 583 m 0
 403 569 367 533 353 533 c 0
 339 533 303 569 303 583 c 0
 303 597 339 633 353 633 c 0x10
 367 633 403 597 403 583 c 0
297 583 m 0x11
 297 569 261 533 247 533 c 0
 233 533 197 569 197 583 c 0
 197 597 233 633 247 633 c 0
 261 633 297 597 297 583 c 0x11
475 667 m 0x0810
 475 653 439 617 425 617 c 0
 411 617 375 653 375 667 c 0
 375 681 411 717 425 717 c 0
 439 717 475 681 475 667 c 0x0810
261 667 m 0
 261 653 225 617 211 617 c 0
 197 617 161 653 161 667 c 0
 161 681 197 717 211 717 c 0
 225 717 261 681 261 667 c 0
EndSplineSet
EndChar

StartChar: X
Encoding: 88 88 23
Width: 600
VWidth: 0
UnlinkRmOvrlpSave: 1
Flags: W
HStem: 200 100<107.757 172.243 427.757 492.243> 283 100<178.757 243.243 392.757 457.243> 367 100<250.757 315.243 356.757 421.243> 450 100<321.757 386.243> 533 100<285.757 350.243 391.757 456.243> 617 100<249.757 314.243 463.757 528.243> 700 100<214.757 279.243 534.757 599.243>
VStem: 90 100<217.757 282.243> 161 100<300.757 365.243> 197 100<717.757 782.243> 233 100<384.757 449.243 635.748 698.252> 268 100<550.757 615.243> 304 100<467.757 532.243> 339 100<384.757 449.243> 375 100<300.757 365.243 551.748 614.252> 410 100<217.757 282.243> 446 100<634.757 699.243> 517 100<717.757 782.243>
LayerCount: 2
Back
Fore
SplineSet
510 250 m 0x8001
 510 236 474 200 460 200 c 0
 446 200 410 236 410 250 c 0
 410 264 446 300 460 300 c 0
 474 300 510 264 510 250 c 0x8001
190 250 m 0x81
 190 236 154 200 140 200 c 0
 126 200 90 236 90 250 c 0
 90 264 126 300 140 300 c 0
 154 300 190 264 190 250 c 0x81
475 333 m 0x4002
 475 319 439 283 425 283 c 0
 411 283 375 319 375 333 c 0
 375 347 411 383 425 383 c 0
 439 383 475 347 475 333 c 0x4002
261 333 m 0x4080
 261 319 225 283 211 283 c 0
 197 283 161 319 161 333 c 0
 161 347 197 383 211 383 c 0
 225 383 261 347 261 333 c 0x4080
439 417 m 0x2004
 439 403 403 367 389 367 c 0
 375 367 339 403 339 417 c 0
 339 431 375 467 389 467 c 0
 403 467 439 431 439 417 c 0x2004
333 417 m 0x2020
 333 403 297 367 283 367 c 0
 269 367 233 403 233 417 c 0
 233 431 269 467 283 467 c 0
 297 467 333 431 333 417 c 0x2020
404 500 m 0x1008
 404 486 368 450 354 450 c 0
 340 450 304 486 304 500 c 0
 304 514 340 550 354 550 c 0
 368 550 404 514 404 500 c 0x1008
474 583 m 0
 474 569 438 533 424 533 c 0
 410 533 374 569 374 583 c 0
 374 597 410 633 424 633 c 0x08
 438 633 474 597 474 583 c 0
368 583 m 0x0810
 368 569 332 533 318 533 c 0
 304 533 268 569 268 583 c 0
 268 597 304 633 318 633 c 0
 332 633 368 597 368 583 c 0x0810
546 667 m 0x040080
 546 653 510 617 496 617 c 0
 482 617 446 653 446 667 c 0
 446 681 482 717 496 717 c 0
 510 717 546 681 546 667 c 0x040080
332 667 m 0
 332 653 296 617 282 617 c 0
 268 617 232 653 232 667 c 0
 232 681 268 717 282 717 c 0
 296 717 332 681 332 667 c 0
617 750 m 0x020040
 617 736 581 700 567 700 c 0
 553 700 517 736 517 750 c 0
 517 764 553 800 567 800 c 0
 581 800 617 764 617 750 c 0x020040
297 750 m 0x0240
 297 736 261 700 247 700 c 0
 233 700 197 736 197 750 c 0
 197 764 233 800 247 800 c 0
 261 800 297 764 297 750 c 0x0240
EndSplineSet
EndChar

StartChar: backslash
Encoding: 92 92 24
Width: 600
VWidth: 0
UnlinkRmOvrlpSave: 1
Flags: W
HStem: 200 100<320.757 385.243> 283 100<285.757 350.243> 367 100<249.757 314.243> 450 100<214.757 279.243> 533 100<178.757 243.243> 617 100<142.757 207.243> 700 100<107.757 172.243>
VStem: 90 100<717.757 782.243> 125 100<634.757 699.243> 161 100<550.757 615.243> 197 100<467.757 532.243> 232 100<384.757 449.243> 268 100<300.757 365.243> 303 100<217.757 282.243>
LayerCount: 2
Back
Fore
SplineSet
403 250 m 0x8004
 403 236 367 200 353 200 c 0
 339 200 303 236 303 250 c 0
 303 264 339 300 353 300 c 0
 367 300 403 264 403 250 c 0x8004
368 333 m 0x4008
 368 319 332 283 318 283 c 0
 304 283 268 319 268 333 c 0
 268 347 304 383 318 383 c 0
 332 383 368 347 368 333 c 0x4008
332 417 m 0x2010
 332 403 296 367 282 367 c 0
 268 367 232 403 232 417 c 0
 232 431 268 467 282 467 c 0
 296 467 332 431 332 417 c 0x2010
297 500 m 0x1020
 297 486 261 450 247 450 c 0
 233 450 197 486 197 500 c 0
 197 514 233 550 247 550 c 0
 261 550 297 514 297 500 c 0x1020
261 583 m 0x0840
 261 569 225 533 211 533 c 0
 197 533 161 569 161 583 c 0
 161 597 197 633 211 633 c 0
 225 633 261 597 261 583 c 0x0840
225 667 m 0x0480
 225 653 189 617 175 617 c 0
 161 617 125 653 125 667 c 0
 125 681 161 717 175 717 c 0
 189 717 225 681 225 667 c 0x0480
190 750 m 0x03
 190 736 154 700 140 700 c 0
 126 700 90 736 90 750 c 0
 90 764 126 800 140 800 c 0
 154 800 190 764 190 750 c 0x03
EndSplineSet
EndChar

StartChar: germandbls
Encoding: 223 223 25
Width: 600
VWidth: 0
UnlinkRmOvrlpSave: 1
Flags: W
HStem: 200 100<267.757 332.243 374.757 439.243> 450 100<268.757 333.243 374.757 439.243> 533 100<338.757 403.243> 617 100<409.757 474.243> 700 100<267.757 332.243 374.757 439.243>
VStem: 90 100<217.757 281.554> 108 100<301.446 364.935> 126 100<385.809 448.554> 144 100<468.446 531.615> 161 100<551.385 614.191> 179 100<635.065 699.243> 250 100<217.757 282.243 468.748 531.252 717.757 782.243> 321 100<550.757 615.243> 357 100<217.757 282.243 467.757 532.243 717.757 782.243> 392 100<634.757 699.243> 428 100<300.757 364.935> 446 100<385.809 449.243>
LayerCount: 2
Back
Fore
SplineSet
457 250 m 0x8004
 457 236 421 200 407 200 c 0
 393 200 357 236 357 250 c 0
 357 264 393 300 407 300 c 0
 421 300 457 264 457 250 c 0x8004
350 250 m 0x8010
 350 236 314 200 300 200 c 0
 286 200 250 236 250 250 c 0
 250 264 286 300 300 300 c 0
 314 300 350 264 350 250 c 0x8010
190 250 m 0x94
 190 236 154 200 140 200 c 0
 126 200 90 236 90 250 c 0x94
 90 262 117 290 133 298 c 1
 120 310 108 325 108 333 c 0x92
 108 345 135 374 151 381 c 1
 138 393 126 409 126 417 c 0x91
 126 429 153 457 169 465 c 1
 156 477 144 492 144 500 c 0x9080
 144 512 170 540 186 548 c 1
 173 560 161 575 161 583 c 0x9040
 161 595 189 624 205 631 c 1
 192 643 179 659 179 667 c 0
 179 681 215 717 229 717 c 0
 243 717 279 681 279 667 c 0x9020
 279 655 252 626 236 619 c 1
 249 607 261 591 261 583 c 0x9040
 261 571 235 543 219 535 c 1
 232 523 244 508 244 500 c 0x9080
 244 488 217 460 201 452 c 1
 214 440 226 425 226 417 c 0x91
 226 405 198 376 182 369 c 1
 195 357 208 341 208 333 c 0x92
 208 321 181 293 165 285 c 1
 178 273 190 258 190 250 c 0x94
528 333 m 0x8001
 528 319 492 283 478 283 c 0
 464 283 428 319 428 333 c 0x8001
 428 345 455 374 471 381 c 1
 458 393 446 409 446 417 c 0
 446 431 482 467 496 467 c 0
 510 467 546 431 546 417 c 0x800080
 546 405 518 376 502 369 c 1
 515 357 528 341 528 333 c 0x8001
457 500 m 0xc004
 457 486 421 450 407 450 c 0
 393 450 357 486 357 500 c 0
 357 514 393 550 407 550 c 0
 421 550 457 514 457 500 c 0xc004
351 500 m 0
 351 486 315 450 301 450 c 0
 287 450 251 486 251 500 c 0
 251 514 287 550 301 550 c 0
 315 550 351 514 351 500 c 0
421 583 m 0xa008
 421 569 385 533 371 533 c 0
 357 533 321 569 321 583 c 0
 321 597 357 633 371 633 c 0
 385 633 421 597 421 583 c 0xa008
492 667 m 0x9002
 492 653 456 617 442 617 c 0
 428 617 392 653 392 667 c 0
 392 681 428 717 442 717 c 0
 456 717 492 681 492 667 c 0x9002
457 750 m 0x8804
 457 736 421 700 407 700 c 0
 393 700 357 736 357 750 c 0
 357 764 393 800 407 800 c 0
 421 800 457 764 457 750 c 0x8804
350 750 m 0x8810
 350 736 314 700 300 700 c 0
 286 700 250 736 250 750 c 0
 250 764 286 800 300 800 c 0
 314 800 350 764 350 750 c 0x8810
EndSplineSet
EndChar

StartChar: grave
Encoding: 96 96 26
Width: 600
VWidth: 0
UnlinkRmOvrlpSave: 1
Flags: W
HStem: 533 100<177.757 242.243> 617 100<142.757 207.243> 700 100<107.757 172.243>
VStem: 90 100<717.757 782.243> 125 100<634.757 699.243> 160 100<550.757 615.243>
LayerCount: 2
Back
Fore
SplineSet
260 583 m 0x84
 260 569 224 533 210 533 c 0
 196 533 160 569 160 583 c 0
 160 597 196 633 210 633 c 0
 224 633 260 597 260 583 c 0x84
225 667 m 0x48
 225 653 189 617 175 617 c 0
 161 617 125 653 125 667 c 0
 125 681 161 717 175 717 c 0
 189 717 225 681 225 667 c 0x48
190 750 m 0x30
 190 736 154 700 140 700 c 0
 126 700 90 736 90 750 c 0
 90 764 126 800 140 800 c 0
 154 800 190 764 190 750 c 0x30
EndSplineSet
EndChar

StartChar: d
Encoding: 100 100 27
Width: 600
VWidth: 0
UnlinkRmOvrlpSave: 1
Flags: W
HStem: 200 100<196.757 261.243 302.757 367.243> 533 100<213.757 278.243 320.757 385.243 427.757 492.243> 780 20G<542 556>
VStem: 90 100<300.757 364.935> 108 100<385.809 448.554> 126 100<468.446 532.243> 179 100<217.757 282.243> 196 100<550.757 615.243> 285 100<217.757 282.243> 303 100<550.757 615.243> 392 100<217.757 281.554> 410 100<301.446 364.935 550.757 615.243> 428 100<385.809 448.554> 446 100<468.446 532.243> 481 100<634.757 698.554> 499 100<718.446 782.243>
LayerCount: 2
Back
Fore
SplineSet
492 250 m 0xe020
 492 236 456 200 442 200 c 0
 428 200 392 236 392 250 c 0xe020
 392 262 419 290 435 298 c 1
 422 310 410 325 410 333 c 0xe010
 410 345 437 374 453 381 c 1
 440 393 428 409 428 417 c 0xe008
 428 429 455 457 471 465 c 1
 458 477 446 492 446 500 c 1
 446 514 482 550 496 550 c 0
 510 550 546 514 546 500 c 0xe004
 546 488 519 460 503 452 c 1
 516 440 528 425 528 417 c 1xe008
 528 405 500 376 484 369 c 1
 497 357 510 341 510 333 c 0xe010
 510 321 483 293 467 285 c 1
 480 273 492 258 492 250 c 0xe020
385 250 m 0xe080
 385 236 349 200 335 200 c 0
 321 200 285 236 285 250 c 0
 285 264 321 300 335 300 c 0
 349 300 385 264 385 250 c 0xe080
279 250 m 0xe2
 279 236 243 200 229 200 c 0
 215 200 179 236 179 250 c 0
 179 264 215 300 229 300 c 0
 243 300 279 264 279 250 c 0xe2
190 333 m 0xf0
 190 319 154 283 140 283 c 0
 126 283 90 319 90 333 c 0xf0
 90 345 117 374 133 381 c 1
 120 393 108 409 108 417 c 0xe8
 108 429 135 457 151 465 c 1
 138 477 126 492 126 500 c 0
 126 514 162 550 176 550 c 0
 190 550 226 514 226 500 c 0xe4
 226 488 199 460 183 452 c 1
 196 440 208 425 208 417 c 0xe8
 208 405 180 376 164 369 c 1
 177 357 190 341 190 333 c 0xf0
510 583 m 0xe010
 510 569 474 533 460 533 c 0
 446 533 410 569 410 583 c 0
 410 597 446 633 460 633 c 0
 474 633 510 597 510 583 c 0xe010
403 583 m 0xe040
 403 569 367 533 353 533 c 0
 339 533 303 569 303 583 c 0
 303 597 339 633 353 633 c 0
 367 633 403 597 403 583 c 0xe040
296 583 m 0xe1
 296 569 260 533 246 533 c 0
 232 533 196 569 196 583 c 0
 196 597 232 633 246 633 c 0
 260 633 296 597 296 583 c 0xe1
581 667 m 0xe002
 581 653 545 617 531 617 c 0
 517 617 481 653 481 667 c 0xe002
 481 679 508 707 524 715 c 1
 511 727 499 742 499 750 c 0
 499 764 535 800 549 800 c 0
 563 800 599 764 599 750 c 0xe001
 599 738 572 710 556 702 c 1
 569 690 581 675 581 667 c 0xe002
EndSplineSet
EndChar

StartChar: ccedilla
Encoding: 231 231 28
Width: 600
VWidth: 0
UnlinkRmOvrlpSave: 1
Flags: W
HStem: 200 21G<257 271> 200 21G<257 271> 283 100<142.757 207.243 356.757 421.243> 533 100<462.757 527.243> 617 100<213.757 278.243 320.757 385.243 427.757 492.243>
VStem: 90 100<384.757 448.554> 108 100<468.446 531.615> 125 100<300.757 365.243 551.385 615.243> 196 100<634.757 699.243> 214 100<217.757 281.554> 232 100<301.446 365.243> 303 100<634.757 699.243> 339 100<300.757 365.243> 410 100<634.757 699.243> 445 100<550.757 615.243>
LayerCount: 2
Back
Fore
SplineSet
314 250 m 0xa040
 314 236 278 200 264 200 c 0
 250 200 214 236 214 250 c 0xa040
 214 262 241 290 257 298 c 1
 244 310 232 325 232 333 c 0
 232 347 268 383 282 383 c 0
 296 383 332 347 332 333 c 0xa020
 332 321 305 293 289 285 c 1
 302 273 314 258 314 250 c 0xa040
439 333 m 0x2008
 439 319 403 283 389 283 c 0
 375 283 339 319 339 333 c 0
 339 347 375 383 389 383 c 0
 403 383 439 347 439 333 c 0x2008
225 333 m 0x21
 225 319 189 283 175 283 c 0
 161 283 125 319 125 333 c 0
 125 347 161 383 175 383 c 0
 189 383 225 347 225 333 c 0x21
190 417 m 0x34
 190 403 154 367 140 367 c 0
 126 367 90 403 90 417 c 0x34
 90 429 117 457 133 465 c 1
 120 477 108 492 108 500 c 0x32
 108 512 134 540 150 548 c 1
 137 560 125 575 125 583 c 0
 125 597 161 633 175 633 c 0
 189 633 225 597 225 583 c 0x31
 225 571 199 543 183 535 c 1
 196 523 208 508 208 500 c 0x32
 208 488 181 460 165 452 c 1
 178 440 190 425 190 417 c 0x34
545 583 m 0x3002
 545 569 509 533 495 533 c 0
 481 533 445 569 445 583 c 0
 445 597 481 633 495 633 c 0
 509 633 545 597 545 583 c 0x3002
510 667 m 0x2804
 510 653 474 617 460 617 c 0
 446 617 410 653 410 667 c 0
 410 681 446 717 460 717 c 0
 474 717 510 681 510 667 c 0x2804
403 667 m 0x2810
 403 653 367 617 353 617 c 0
 339 617 303 653 303 667 c 0
 303 681 339 717 353 717 c 0
 367 717 403 681 403 667 c 0x2810
296 667 m 0x2880
 296 653 260 617 246 617 c 0
 232 617 196 653 196 667 c 0
 196 681 232 717 246 717 c 0
 260 717 296 681 296 667 c 0x2880
EndSplineSet
EndChar

StartChar: h
Encoding: 104 104 29
Width: 600
VWidth: 0
UnlinkRmOvrlpSave: 1
Flags: W
HStem: 200 21G<133 147 453 467> 200 21G<133 147 453 467> 533 100<231.757 296.243 338.757 403.243 445.757 510.243> 780 20G<240 254>
VStem: 90 100<217.757 281.554> 108 100<301.446 364.935> 126 100<385.809 448.554> 144 100<468.446 532.243> 179 100<634.757 698.554> 197 100<718.446 782.243> 214 100<550.757 615.243> 321 100<550.757 615.243> 410 100<217.757 281.554> 428 100<301.446 364.935 550.757 615.243> 446 100<385.809 448.554> 464 100<468.446 532.243>
LayerCount: 2
Back
Fore
SplineSet
510 250 m 0xb008
 510 236 474 200 460 200 c 0
 446 200 410 236 410 250 c 0xb008
 410 262 437 290 453 298 c 1
 440 310 428 325 428 333 c 0xb004
 428 345 455 374 471 381 c 1
 458 393 446 409 446 417 c 0xb002
 446 429 473 457 489 465 c 1
 476 477 464 492 464 500 c 1
 464 514 500 550 514 550 c 0
 528 550 564 514 564 500 c 0xb001
 564 488 537 460 521 452 c 1
 534 440 546 425 546 417 c 1xb002
 546 405 518 376 502 369 c 1
 515 357 528 341 528 333 c 0xb004
 528 321 501 293 485 285 c 1
 498 273 510 258 510 250 c 0xb008
190 250 m 0xb8
 190 236 154 200 140 200 c 0
 126 200 90 236 90 250 c 0xb8
 90 262 117 290 133 298 c 1
 120 310 108 325 108 333 c 0xb4
 108 345 135 374 151 381 c 1
 138 393 126 409 126 417 c 0xb2
 126 429 153 457 169 465 c 1
 156 477 144 492 144 500 c 0
 144 514 180 550 194 550 c 0
 208 550 244 514 244 500 c 0xb1
 244 488 217 460 201 452 c 1
 214 440 226 425 226 417 c 0xb2
 226 405 198 376 182 369 c 1
 195 357 208 341 208 333 c 0xb4
 208 321 181 293 165 285 c 1
 178 273 190 258 190 250 c 0xb8
528 583 m 0x3004
 528 569 492 533 478 533 c 0
 464 533 428 569 428 583 c 0
 428 597 464 633 478 633 c 0
 492 633 528 597 528 583 c 0x3004
421 583 m 0x3010
 421 569 385 533 371 533 c 0
 357 533 321 569 321 583 c 0
 321 597 357 633 371 633 c 0
 385 633 421 597 421 583 c 0x3010
314 583 m 0x3020
 314 569 278 533 264 533 c 0
 250 533 214 569 214 583 c 0
 214 597 250 633 264 633 c 0
 278 633 314 597 314 583 c 0x3020
279 667 m 0x3080
 279 653 243 617 229 617 c 0
 215 617 179 653 179 667 c 0x3080
 179 679 206 707 222 715 c 1
 209 727 197 742 197 750 c 0
 197 764 233 800 247 800 c 0
 261 800 297 764 297 750 c 0x3040
 297 738 270 710 254 702 c 1
 267 690 279 675 279 667 c 0x3080
EndSplineSet
EndChar

StartChar: edieresis
Encoding: 235 235 30
Width: 600
VWidth: 0
UnlinkRmOvrlpSave: 1
Flags: W
HStem: 200 100<142.757 207.243 249.757 314.243 356.757 421.243> 367 100<232.757 297.243 338.757 403.243> 533 100<213.757 278.243 320.757 385.243 427.757 492.243> 700 100<249.757 314.243 463.757 528.243>
VStem: 90 100<300.757 364.935> 108 100<385.809 448.554> 125 100<217.757 282.243 469.239 531.252> 196 100<550.757 615.243> 215 100<384.757 449.243> 232 100<217.757 282.243 717.757 782.243> 303 100<550.757 615.243> 321 100<384.757 449.243> 339 100<217.757 282.243> 410 100<550.757 615.243> 428 100<384.757 448.554> 446 100<468.446 532.243 717.757 782.243>
LayerCount: 2
Back
Fore
SplineSet
439 250 m 0xf008
 439 236 403 200 389 200 c 0
 375 200 339 236 339 250 c 0
 339 264 375 300 389 300 c 0
 403 300 439 264 439 250 c 0xf008
332 250 m 0xf040
 332 236 296 200 282 200 c 0
 268 200 232 236 232 250 c 0
 232 264 268 300 282 300 c 0
 296 300 332 264 332 250 c 0xf040
225 250 m 0xf2
 225 236 189 200 175 200 c 0
 161 200 125 236 125 250 c 0
 125 264 161 300 175 300 c 0
 189 300 225 264 225 250 c 0xf2
190 333 m 0xf8
 190 319 154 283 140 283 c 0
 126 283 90 319 90 333 c 0xf8
 90 345 117 374 133 381 c 1
 120 393 108 409 108 417 c 0
 108 429 135 457 151 465 c 1
 138 477 126 492 126 500 c 0
 126 514 162 550 176 550 c 0
 190 550 226 514 226 500 c 0
 226 488 199 460 183 452 c 1
 196 440 208 425 208 417 c 0xf4
 208 405 180 376 164 369 c 1
 177 357 190 341 190 333 c 0xf8
528 417 m 1xf002
 528 403 492 367 478 367 c 0
 464 367 428 403 428 417 c 0xf002
 428 429 455 457 471 465 c 1
 458 477 446 492 446 500 c 1
 446 514 482 550 496 550 c 0
 510 550 546 514 546 500 c 0xf001
 546 488 519 460 503 452 c 1
 516 440 528 425 528 417 c 1xf002
421 417 m 0xf010
 421 403 385 367 371 367 c 0
 357 367 321 403 321 417 c 0
 321 431 357 467 371 467 c 0
 385 467 421 431 421 417 c 0xf010
315 417 m 0xf080
 315 403 279 367 265 367 c 0
 251 367 215 403 215 417 c 0
 215 431 251 467 265 467 c 0
 279 467 315 431 315 417 c 0xf080
510 583 m 0xf004
 510 569 474 533 460 533 c 0
 446 533 410 569 410 583 c 0
 410 597 446 633 460 633 c 0
 474 633 510 597 510 583 c 0xf004
403 583 m 0xf020
 403 569 367 533 353 533 c 0
 339 533 303 569 303 583 c 0
 303 597 339 633 353 633 c 0
 367 633 403 597 403 583 c 0xf020
296 583 m 0xf1
 296 569 260 533 246 533 c 0
 232 533 196 569 196 583 c 0
 196 597 232 633 246 633 c 0
 260 633 296 597 296 583 c 0xf1
546 750 m 0xf001
 546 736 510 700 496 700 c 0
 482 700 446 736 446 750 c 0
 446 764 482 800 496 800 c 0
 510 800 546 764 546 750 c 0xf001
332 750 m 0xf040
 332 736 296 700 282 700 c 0
 268 700 232 736 232 750 c 0
 232 764 268 800 282 800 c 0
 296 800 332 764 332 750 c 0xf040
EndSplineSet
EndChar

StartChar: l
Encoding: 108 108 31
Width: 600
VWidth: 0
UnlinkRmOvrlpSave: 1
Flags: W
HStem: 200 100<107.757 172.243 321.757 386.243> 700 100<214.757 279.243>
VStem: 90 100<217.757 282.243> 197 100<217.757 281.554 717.757 782.243> 215 100<301.446 364.935> 233 100<385.809 448.554> 251 100<468.446 531.615> 268 100<551.385 614.191> 286 100<635.065 698.554> 304 100<217.757 282.243 718.446 782.243>
LayerCount: 2
Back
Fore
SplineSet
404 250 m 0xe040
 404 236 368 200 354 200 c 0
 340 200 304 236 304 250 c 0
 304 264 340 300 354 300 c 0
 368 300 404 264 404 250 c 0xe040
297 250 m 0xf0
 297 236 261 200 247 200 c 0
 233 200 197 236 197 250 c 0xf0
 197 262 224 290 240 298 c 1
 227 310 215 325 215 333 c 0xe8
 215 345 242 374 258 381 c 1
 245 393 233 409 233 417 c 0xe4
 233 429 260 457 276 465 c 1
 263 477 251 492 251 500 c 1xe2
 251 512 277 540 293 548 c 1
 280 560 268 575 268 583 c 0xe1
 268 595 296 624 312 631 c 1
 299 643 286 659 286 667 c 0xe080
 286 679 313 707 329 715 c 1
 316 727 304 742 304 750 c 0
 304 764 340 800 354 800 c 0
 368 800 404 764 404 750 c 0xe040
 404 738 377 710 361 702 c 1
 374 690 386 675 386 667 c 0xe080
 386 655 359 626 343 619 c 1
 356 607 368 591 368 583 c 0xe1
 368 571 342 543 326 535 c 1
 339 523 351 508 351 500 c 0xe2
 351 488 324 460 308 452 c 1
 321 440 333 425 333 417 c 1xe4
 333 405 305 376 289 369 c 1
 302 357 315 341 315 333 c 0xe8
 315 321 288 293 272 285 c 1
 285 273 297 258 297 250 c 0xf0
190 250 m 0
 190 236 154 200 140 200 c 0
 126 200 90 236 90 250 c 0
 90 264 126 300 140 300 c 0
 154 300 190 264 190 250 c 0
297 750 m 0
 297 736 261 700 247 700 c 0
 233 700 197 736 197 750 c 0
 197 764 233 800 247 800 c 0
 261 800 297 764 297 750 c 0
EndSplineSet
EndChar

StartChar: p
Encoding: 112 112 32
Width: 600
VWidth: 0
UnlinkRmOvrlpSave: 1
Flags: W
HStem: 200 21G<133 147> 200 21G<133 147> 367 100<196.757 261.243 303.757 368.243 410.757 475.243> 450 100<481.757 546.243> 533 100<285.757 350.243 391.757 456.243>
VStem: 90 100<217.757 281.554> 108 100<301.446 365.243> 144 100<467.757 531.615> 161 100<551.385 615.243> 179 100<384.757 449.243> 268 100<550.757 615.243> 286 100<384.757 449.243> 374 100<550.757 615.243> 393 100<384.757 449.243> 464 100<467.757 532.243>
LayerCount: 2
Back
Fore
SplineSet
190 250 m 0x84
 190 236 154 200 140 200 c 0
 126 200 90 236 90 250 c 0x84
 90 262 117 290 133 298 c 1
 120 310 108 325 108 333 c 0
 108 347 144 383 158 383 c 0
 172 383 208 347 208 333 c 0x82
 208 321 181 293 165 285 c 1
 178 273 190 258 190 250 c 0x84
493 417 m 0x2004
 493 403 457 367 443 367 c 0
 429 367 393 403 393 417 c 0
 393 431 429 467 443 467 c 0
 457 467 493 431 493 417 c 0x2004
386 417 m 0x2010
 386 403 350 367 336 367 c 0
 322 367 286 403 286 417 c 0
 286 431 322 467 336 467 c 0
 350 467 386 431 386 417 c 0x2010
279 417 m 0x2040
 279 403 243 367 229 367 c 0
 215 367 179 403 179 417 c 0
 179 431 215 467 229 467 c 0
 243 467 279 431 279 417 c 0x2040
564 500 m 0x1002
 564 486 528 450 514 450 c 0
 500 450 464 486 464 500 c 0
 464 514 500 550 514 550 c 0
 528 550 564 514 564 500 c 0x1002
244 500 m 0x09
 244 486 208 450 194 450 c 0
 180 450 144 486 144 500 c 0x11
 144 512 170 540 186 548 c 1
 173 560 161 575 161 583 c 0
 161 597 197 633 211 633 c 0
 225 633 261 597 261 583 c 0x0880
 261 571 235 543 219 535 c 1
 232 523 244 508 244 500 c 0x09
474 583 m 0x0808
 474 569 438 533 424 533 c 0
 410 533 374 569 374 583 c 0
 374 597 410 633 424 633 c 0
 438 633 474 597 474 583 c 0x0808
368 583 m 0x0820
 368 569 332 533 318 533 c 0
 304 533 268 569 268 583 c 0
 268 597 304 633 318 633 c 0
 332 633 368 597 368 583 c 0x0820
EndSplineSet
EndChar

StartChar: t
Encoding: 116 116 33
Width: 600
VWidth: 0
UnlinkRmOvrlpSave: 1
Flags: W
HStem: 200 100<196.757 261.243 303.757 368.243> 283 100<374.757 439.243> 533 100<107.757 172.243 320.757 385.243> 780 20G<276 290>
VStem: 90 100<550.757 615.243> 144 100<300.757 364.935> 162 100<385.809 448.554> 179 100<217.757 282.243 469.239 531.554> 197 100<551.385 614.191> 215 100<635.065 698.554> 233 100<718.446 782.243> 286 100<217.757 282.243> 303 100<550.757 615.243> 357 100<300.757 365.243>
LayerCount: 2
Back
Fore
SplineSet
386 250 m 0xb010
 386 236 350 200 336 200 c 0
 322 200 286 236 286 250 c 0
 286 264 322 300 336 300 c 0
 350 300 386 264 386 250 c 0xb010
279 250 m 0xb1
 279 236 243 200 229 200 c 0
 215 200 179 236 179 250 c 0
 179 264 215 300 229 300 c 0
 243 300 279 264 279 250 c 0xb1
457 333 m 0x7004
 457 319 421 283 407 283 c 0
 393 283 357 319 357 333 c 0
 357 347 393 383 407 383 c 0
 421 383 457 347 457 333 c 0x7004
244 333 m 0x74
 244 319 208 283 194 283 c 0
 180 283 144 319 144 333 c 0x74
 144 345 171 374 187 381 c 1
 174 393 162 409 162 417 c 0x72
 162 429 189 457 205 465 c 1
 192 477 180 492 180 500 c 0
 180 512 206 540 222 548 c 1
 209 560 197 575 197 583 c 0x7080
 197 595 225 624 241 631 c 1
 228 643 215 659 215 667 c 0x7040
 215 679 242 707 258 715 c 1
 245 727 233 742 233 750 c 0
 233 764 269 800 283 800 c 0
 297 800 333 764 333 750 c 0x7020
 333 738 306 710 290 702 c 1
 303 690 315 675 315 667 c 0x7040
 315 655 288 626 272 619 c 1
 285 607 297 591 297 583 c 0x7080
 297 571 271 543 255 535 c 1
 268 523 280 508 280 500 c 0
 280 488 253 460 237 452 c 1
 250 440 262 425 262 417 c 0x72
 262 405 234 376 218 369 c 1
 231 357 244 341 244 333 c 0x74
403 583 m 0x3008
 403 569 367 533 353 533 c 0
 339 533 303 569 303 583 c 0
 303 597 339 633 353 633 c 0
 367 633 403 597 403 583 c 0x3008
190 583 m 0x38
 190 569 154 533 140 533 c 0
 126 533 90 569 90 583 c 0
 90 597 126 633 140 633 c 0
 154 633 190 597 190 583 c 0x38
EndSplineSet
EndChar

StartChar: divide
Encoding: 247 247 34
Width: 600
VWidth: 0
UnlinkRmOvrlpSave: 1
Flags: W
HStem: 283 100<231.757 296.243> 450 100<107.757 172.243 214.757 279.243 320.757 385.243 427.757 492.243> 617 100<302.757 367.243>
VStem: 90 100<467.757 532.243> 197 100<467.757 532.243> 214 100<300.757 365.243> 285 100<634.757 699.243> 303 100<467.757 532.243> 410 100<467.757 532.243>
CounterMasks: 1 e0
LayerCount: 2
Back
Fore
SplineSet
314 333 m 0xf480
 314 319 278 283 264 283 c 0
 250 283 214 319 214 333 c 0
 214 347 250 383 264 383 c 0
 278 383 314 347 314 333 c 0xf480
510 500 m 0
 510 486 474 450 460 450 c 0
 446 450 410 486 410 500 c 0
 410 514 446 550 460 550 c 0
 474 550 510 514 510 500 c 0
403 500 m 0xf180
 403 486 367 450 353 450 c 0
 339 450 303 486 303 500 c 0
 303 514 339 550 353 550 c 0
 367 550 403 514 403 500 c 0xf180
297 500 m 0xf880
 297 486 261 450 247 450 c 0
 233 450 197 486 197 500 c 0
 197 514 233 550 247 550 c 0
 261 550 297 514 297 500 c 0xf880
190 500 m 0
 190 486 154 450 140 450 c 0
 126 450 90 486 90 500 c 0
 90 514 126 550 140 550 c 0
 154 550 190 514 190 500 c 0
385 667 m 0xf280
 385 653 349 617 335 617 c 0
 321 617 285 653 285 667 c 0
 285 681 321 717 335 717 c 0
 349 717 385 681 385 667 c 0xf280
EndSplineSet
EndChar

StartChar: x
Encoding: 120 120 35
Width: 600
VWidth: 0
UnlinkRmOvrlpSave: 1
Flags: W
HStem: 200 100<107.757 172.243 427.757 492.243> 283 100<178.757 243.243 392.757 457.243> 367 100<303.757 368.243> 450 100<214.757 279.243 428.757 493.243> 533 100<178.757 243.243 498.757 563.243>
VStem: 90 100<217.757 282.243> 161 100<300.757 365.243 550.757 615.243> 197 100<467.757 532.243> 286 100<384.757 449.243> 375 100<300.757 365.243> 410 100<217.757 282.243 468.748 531.252> 481 100<550.757 615.243>
LayerCount: 2
Back
Fore
SplineSet
510 250 m 0x8020
 510 236 474 200 460 200 c 0
 446 200 410 236 410 250 c 0
 410 264 446 300 460 300 c 0
 474 300 510 264 510 250 c 0x8020
190 250 m 0x84
 190 236 154 200 140 200 c 0
 126 200 90 236 90 250 c 0
 90 264 126 300 140 300 c 0
 154 300 190 264 190 250 c 0x84
475 333 m 0x4040
 475 319 439 283 425 283 c 0
 411 283 375 319 375 333 c 0
 375 347 411 383 425 383 c 0
 439 383 475 347 475 333 c 0x4040
261 333 m 0x42
 261 319 225 283 211 283 c 0
 197 283 161 319 161 333 c 0
 161 347 197 383 211 383 c 0
 225 383 261 347 261 333 c 0x42
386 417 m 0x2080
 386 403 350 367 336 367 c 0
 322 367 286 403 286 417 c 0
 286 431 322 467 336 467 c 0
 350 467 386 431 386 417 c 0x2080
511 500 m 0
 511 486 475 450 461 450 c 0
 447 450 411 486 411 500 c 0
 411 514 447 550 461 550 c 0x10
 475 550 511 514 511 500 c 0
297 500 m 0x11
 297 486 261 450 247 450 c 0
 233 450 197 486 197 500 c 0
 197 514 233 550 247 550 c 0
 261 550 297 514 297 500 c 0x11
581 583 m 0x0810
 581 569 545 533 531 533 c 0
 517 533 481 569 481 583 c 0
 481 597 517 633 531 633 c 0
 545 633 581 597 581 583 c 0x0810
261 583 m 0x0a
 261 569 225 533 211 533 c 0
 197 533 161 569 161 583 c 0
 161 597 197 633 211 633 c 0
 225 633 261 597 261 583 c 0x0a
EndSplineSet
EndChar

StartChar: bar
Encoding: 124 124 36
Width: 600
VWidth: 0
UnlinkRmOvrlpSave: 1
Flags: W
HStem: 200 21G<133 147> 200 21G<133 147> 780 20G<240 254>
VStem: 90 100<217.757 281.554> 108 100<301.446 364.935> 126 100<385.809 448.554> 144 100<468.446 531.615> 161 100<551.385 614.191> 179 100<635.065 698.554> 197 100<718.446 782.243>
LayerCount: 2
Back
Fore
SplineSet
190 250 m 0xb0
 190 236 154 200 140 200 c 0
 126 200 90 236 90 250 c 0xb0
 90 262 117 290 133 298 c 1
 120 310 108 325 108 333 c 0xa8
 108 345 135 374 151 381 c 1
 138 393 126 409 126 417 c 0xa4
 126 429 153 457 169 465 c 1
 156 477 144 492 144 500 c 1xa2
 144 512 170 540 186 548 c 1
 173 560 161 575 161 583 c 0xa1
 161 595 189 624 205 631 c 1
 192 643 179 659 179 667 c 0xa080
 179 679 206 707 222 715 c 1
 209 727 197 742 197 750 c 0
 197 764 233 800 247 800 c 0
 261 800 297 764 297 750 c 0xa040
 297 738 270 710 254 702 c 1
 267 690 279 675 279 667 c 0xa080
 279 655 252 626 236 619 c 1
 249 607 261 591 261 583 c 0xa1
 261 571 235 543 219 535 c 1
 232 523 244 508 244 500 c 0xa2
 244 488 217 460 201 452 c 1
 214 440 226 425 226 417 c 1xa4
 226 405 198 376 182 369 c 1
 195 357 208 341 208 333 c 0xa8
 208 321 181 293 165 285 c 1
 178 273 190 258 190 250 c 0xb0
EndSplineSet
EndChar

StartChar: glyph37
Encoding: 769 769 37
Width: 600
VWidth: 0
UnlinkRmOvrlpSave: 1
Flags: W
HStem: 533 100<107.757 172.243> 617 100<178.757 243.243> 700 100<249.757 314.243>
VStem: 90 100<550.757 615.243> 161 100<634.757 699.243> 232 100<717.757 782.243>
LayerCount: 2
Back
Fore
SplineSet
190 583 m 0x90
 190 569 154 533 140 533 c 0
 126 533 90 569 90 583 c 0
 90 597 126 633 140 633 c 0
 154 633 190 597 190 583 c 0x90
261 667 m 0x48
 261 653 225 617 211 617 c 0
 197 617 161 653 161 667 c 0
 161 681 197 717 211 717 c 0
 225 717 261 681 261 667 c 0x48
332 750 m 0x24
 332 736 296 700 282 700 c 0
 268 700 232 736 232 750 c 0
 232 764 268 800 282 800 c 0
 296 800 332 764 332 750 c 0x24
EndSplineSet
EndChar

StartChar: glyph38
Encoding: 8594 8594 38
Width: 600
VWidth: 0
UnlinkRmOvrlpSave: 1
Flags: W
HStem: 283 100<284.757 349.243> 367 100<356.757 421.243> 450 100<107.757 172.243 214.757 279.243 320.757 385.243 427.757 492.243> 533 100<391.757 456.243> 617 100<355.757 420.243>
VStem: 90 100<467.757 532.243> 197 100<467.757 532.243> 267 100<300.757 365.243> 303 100<467.757 532.243> 339 100<384.757 449.243 635.748 698.252> 374 100<550.757 615.243> 410 100<467.757 532.243>
LayerCount: 2
Back
Fore
SplineSet
367 333 m 0x85
 367 319 331 283 317 283 c 0
 303 283 267 319 267 333 c 0
 267 347 303 383 317 383 c 0
 331 383 367 347 367 333 c 0x85
439 417 m 0x4440
 439 403 403 367 389 367 c 0
 375 367 339 403 339 417 c 0
 339 431 375 467 389 467 c 0
 403 467 439 431 439 417 c 0x4440
510 500 m 0x2410
 510 486 474 450 460 450 c 0
 446 450 410 486 410 500 c 0
 410 514 446 550 460 550 c 0
 474 550 510 514 510 500 c 0x2410
403 500 m 0x2480
 403 486 367 450 353 450 c 0
 339 450 303 486 303 500 c 0
 303 514 339 550 353 550 c 0
 367 550 403 514 403 500 c 0x2480
297 500 m 0x26
 297 486 261 450 247 450 c 0
 233 450 197 486 197 500 c 0
 197 514 233 550 247 550 c 0
 261 550 297 514 297 500 c 0x26
190 500 m 0
 190 486 154 450 140 450 c 0
 126 450 90 486 90 500 c 0
 90 514 126 550 140 550 c 0
 154 550 190 514 190 500 c 0
474 583 m 0x1420
 474 569 438 533 424 533 c 0
 410 533 374 569 374 583 c 0
 374 597 410 633 424 633 c 0
 438 633 474 597 474 583 c 0x1420
438 667 m 0
 438 653 402 617 388 617 c 0
 374 617 338 653 338 667 c 0
 338 681 374 717 388 717 c 0x0c
 402 717 438 681 438 667 c 0
EndSplineSet
EndChar

StartChar: numbersign
Encoding: 35 35 39
Width: 600
VWidth: 0
UnlinkRmOvrlpSave: 1
Flags: W
HStem: 200 21G<204 218 310 324> 200 21G<204 218 310 324> 367 100<107.757 172.243 427.757 492.243> 533 100<142.757 207.243 462.757 527.243> 780 20G<311 325 417 431>
VStem: 90 100<384.757 449.243> 125 100<550.757 615.243> 161 100<217.757 281.554> 179 100<301.446 364.935> 197 100<385.809 448.554> 215 100<468.446 531.615> 232 100<551.385 614.191> 250 100<635.065 698.554> 267 100<217.757 281.554 719.239 781.252> 285 100<301.446 364.935> 303 100<385.809 448.554> 321 100<468.446 531.615> 338 100<551.385 614.191> 356 100<635.065 698.554> 374 100<718.446 782.243> 410 100<384.757 449.243> 445 100<550.757 615.243>
LayerCount: 2
Back
Fore
SplineSet
367 250 m 0xb804
 367 236 331 200 317 200 c 0
 303 200 267 236 267 250 c 0xb804
 267 262 294 290 310 298 c 1
 297 310 285 325 285 333 c 0xb802
 285 345 312 374 328 381 c 1
 315 393 303 409 303 417 c 0xb801
 303 429 330 457 346 465 c 1
 333 477 321 492 321 500 c 1xb80080
 321 512 347 540 363 548 c 1
 350 560 338 575 338 583 c 0xb80040
 338 595 366 624 382 631 c 1
 369 643 356 659 356 667 c 0xb80020
 356 679 383 707 399 715 c 1
 386 727 374 742 374 750 c 0
 374 764 410 800 424 800 c 0
 438 800 474 764 474 750 c 0xb80010
 474 738 447 710 431 702 c 1
 444 690 456 675 456 667 c 0xb80020
 456 655 429 626 413 619 c 1
 426 607 438 591 438 583 c 0xb80040
 438 571 412 543 396 535 c 1
 409 523 421 508 421 500 c 0xb80080
 421 488 394 460 378 452 c 1
 391 440 403 425 403 417 c 1xb801
 403 405 375 376 359 369 c 1
 372 357 385 341 385 333 c 0xb802
 385 321 358 293 342 285 c 1
 355 273 367 258 367 250 c 0xb804
261 250 m 0xb9
 261 236 225 200 211 200 c 0
 197 200 161 236 161 250 c 0xb9
 161 262 188 290 204 298 c 1
 191 310 179 325 179 333 c 0xb880
 179 345 206 374 222 381 c 1
 209 393 197 409 197 417 c 0xb840
 197 429 224 457 240 465 c 1
 227 477 215 492 215 500 c 0xb820
 215 512 241 540 257 548 c 1
 244 560 232 575 232 583 c 0xb810
 232 595 260 624 276 631 c 1
 263 643 250 659 250 667 c 0
 250 679 277 707 293 715 c 1
 280 727 268 742 268 750 c 0
 268 764 304 800 318 800 c 0
 332 800 368 764 368 750 c 0
 368 738 341 710 325 702 c 1
 338 690 350 675 350 667 c 0xb808
 350 655 323 626 307 619 c 1
 320 607 332 591 332 583 c 0xb810
 332 571 306 543 290 535 c 1
 303 523 315 508 315 500 c 0xb820
 315 488 288 460 272 452 c 1
 285 440 297 425 297 417 c 0xb840
 297 405 269 376 253 369 c 1
 266 357 279 341 279 333 c 0xb880
 279 321 252 293 236 285 c 1
 249 273 261 258 261 250 c 0xb9
510 417 m 0x380008
 510 403 474 367 460 367 c 0
 446 367 410 403 410 417 c 0
 410 431 446 467 460 467 c 0
 474 467 510 431 510 417 c 0x380008
190 417 m 0x3c
 190 403 154 367 140 367 c 0
 126 367 90 403 90 417 c 0
 90 431 126 467 140 467 c 0
 154 467 190 431 190 417 c 0x3c
545 583 m 0x380004
 545 569 509 533 495 533 c 0
 481 533 445 569 445 583 c 0
 445 597 481 633 495 633 c 0
 509 633 545 597 545 583 c 0x380004
225 583 m 0x3a
 225 569 189 533 175 533 c 0
 161 533 125 569 125 583 c 0
 125 597 161 633 175 633 c 0
 189 633 225 597 225 583 c 0x3a
EndSplineSet
EndChar

StartChar: glyph40
Encoding: 8356 8356 40
Width: 600
VWidth: 0
UnlinkRmOvrlpSave: 1
Flags: W
HStem: 200 100<107.757 172.243 320.757 385.243 427.757 492.243> 367 100<143.757 208.243 356.757 421.243> 533 100<178.757 243.243 391.757 456.243> 617 100<516.757 581.243> 700 100<374.757 439.243 481.757 546.243>
VStem: 90 100<217.757 282.243> 126 100<384.757 449.243> 161 100<550.757 615.243> 197 100<217.757 281.554> 215 100<301.446 364.935> 233 100<385.809 448.554> 251 100<468.446 531.615> 268 100<551.385 614.191> 286 100<635.065 699.243> 303 100<217.757 282.243> 339 100<384.757 449.243> 357 100<717.757 782.243> 374 100<550.757 615.243> 410 100<217.757 282.243> 464 100<717.757 782.243> 499 100<634.757 699.243>
LayerCount: 2
Back
Fore
SplineSet
510 250 m 0xc00020
 510 236 474 200 460 200 c 0
 446 200 410 236 410 250 c 0
 410 264 446 300 460 300 c 0
 474 300 510 264 510 250 c 0xc00020
403 250 m 0xc002
 403 236 367 200 353 200 c 0
 339 200 303 236 303 250 c 0
 303 264 339 300 353 300 c 0
 367 300 403 264 403 250 c 0xc002
297 250 m 0xd080
 297 236 261 200 247 200 c 0
 233 200 197 236 197 250 c 0xd080
 197 262 224 290 240 298 c 1
 227 310 215 325 215 333 c 0xd040
 215 345 242 374 258 381 c 1
 245 393 233 409 233 417 c 0xd020
 233 429 260 457 276 465 c 1
 263 477 251 492 251 500 c 0xd010
 251 512 277 540 293 548 c 1
 280 560 268 575 268 583 c 0xd008
 268 595 296 624 312 631 c 1
 299 643 286 659 286 667 c 0
 286 681 322 717 336 717 c 0
 350 717 386 681 386 667 c 0xd004
 386 655 359 626 343 619 c 1
 356 607 368 591 368 583 c 0xd008
 368 571 342 543 326 535 c 1
 339 523 351 508 351 500 c 0xd010
 351 488 324 460 308 452 c 1
 321 440 333 425 333 417 c 0xd020
 333 405 305 376 289 369 c 1
 302 357 315 341 315 333 c 0xd040
 315 321 288 293 272 285 c 1
 285 273 297 258 297 250 c 0xd080
190 250 m 0xc4
 190 236 154 200 140 200 c 0
 126 200 90 236 90 250 c 0
 90 264 126 300 140 300 c 0
 154 300 190 264 190 250 c 0xc4
439 417 m 0xc001
 439 403 403 367 389 367 c 0
 375 367 339 403 339 417 c 0
 339 431 375 467 389 467 c 0
 403 467 439 431 439 417 c 0xc001
226 417 m 0xc2
 226 403 190 367 176 367 c 0
 162 367 126 403 126 417 c 0
 126 431 162 467 176 467 c 0
 190 467 226 431 226 417 c 0xc2
474 583 m 0xe00040
 474 569 438 533 424 533 c 0
 410 533 374 569 374 583 c 0
 374 597 410 633 424 633 c 0
 438 633 474 597 474 583 c 0xe00040
261 583 m 0xe1
 261 569 225 533 211 533 c 0
 197 533 161 569 161 583 c 0
 161 597 197 633 211 633 c 0
 225 633 261 597 261 583 c 0xe1
599 667 m 0xd00008
 599 653 563 617 549 617 c 0
 535 617 499 653 499 667 c 0
 499 681 535 717 549 717 c 0
 563 717 599 681 599 667 c 0xd00008
564 750 m 0xc80010
 564 736 528 700 514 700 c 0
 500 700 464 736 464 750 c 0
 464 764 500 800 514 800 c 0
 528 800 564 764 564 750 c 0xc80010
457 750 m 0xc80080
 457 736 421 700 407 700 c 0
 393 700 357 736 357 750 c 0
 357 764 393 800 407 800 c 0
 421 800 457 764 457 750 c 0xc80080
EndSplineSet
EndChar

StartChar: quotesingle
Encoding: 39 39 41
Width: 600
VWidth: 0
UnlinkRmOvrlpSave: 1
Flags: W
HStem: 533 100<107.757 172.243> 617 100<178.757 243.243> 700 100<249.757 314.243>
VStem: 90 100<550.757 615.243> 161 100<634.757 699.243> 232 100<717.757 782.243>
LayerCount: 2
Back
Fore
SplineSet
190 583 m 0x90
 190 569 154 533 140 533 c 0
 126 533 90 569 90 583 c 0
 90 597 126 633 140 633 c 0
 154 633 190 597 190 583 c 0x90
261 667 m 0x48
 261 653 225 617 211 617 c 0
 197 617 161 653 161 667 c 0
 161 681 197 717 211 717 c 0
 225 717 261 681 261 667 c 0x48
332 750 m 0x24
 332 736 296 700 282 700 c 0
 268 700 232 736 232 750 c 0
 232 764 268 800 282 800 c 0
 296 800 332 764 332 750 c 0x24
EndSplineSet
EndChar

StartChar: plus
Encoding: 43 43 42
Width: 600
VWidth: 0
UnlinkRmOvrlpSave: 1
Flags: W
HStem: 200 21G<239 253> 200 21G<239 253> 450 100<107.757 172.243 214.757 279.243 320.757 385.243 427.757 492.243> 780 20G<346 360>
VStem: 90 100<467.757 532.243> 196 100<217.757 281.554 468.748 531.252> 214 100<301.446 364.935> 232 100<385.809 449.243> 267 100<550.757 614.191> 285 100<635.065 698.554> 303 100<467.757 532.243 718.446 782.243> 410 100<467.757 532.243>
LayerCount: 2
Back
Fore
SplineSet
296 250 m 0xbc10
 296 236 260 200 246 200 c 0
 232 200 196 236 196 250 c 0xbc10
 196 262 223 290 239 298 c 1
 226 310 214 325 214 333 c 0xba10
 214 345 241 374 257 381 c 1
 244 393 232 409 232 417 c 0
 232 431 268 467 282 467 c 0
 296 467 332 431 332 417 c 0xb910
 332 405 304 376 288 369 c 1
 301 357 314 341 314 333 c 0xba10
 314 321 287 293 271 285 c 1
 284 273 296 258 296 250 c 0xbc10
510 500 m 0
 510 486 474 450 460 450 c 0
 446 450 410 486 410 500 c 0
 410 514 446 550 460 550 c 0
 474 550 510 514 510 500 c 0
403 500 m 0x3830
 403 486 367 450 353 450 c 0
 339 450 303 486 303 500 c 0
 303 514 339 550 353 550 c 0
 367 550 403 514 403 500 c 0x3830
297 500 m 0
 297 486 261 450 247 450 c 0
 233 450 197 486 197 500 c 0
 197 514 233 550 247 550 c 0
 261 550 297 514 297 500 c 0
190 500 m 0
 190 486 154 450 140 450 c 0
 126 450 90 486 90 500 c 0
 90 514 126 550 140 550 c 0
 154 550 190 514 190 500 c 0
367 583 m 0x3890
 367 569 331 533 317 533 c 0
 303 533 267 569 267 583 c 0x3890
 267 595 295 624 311 631 c 1
 298 643 285 659 285 667 c 0x3850
 285 679 312 707 328 715 c 1
 315 727 303 742 303 750 c 0
 303 764 339 800 353 800 c 0
 367 800 403 764 403 750 c 0x3830
 403 738 376 710 360 702 c 1
 373 690 385 675 385 667 c 0x3850
 385 655 358 626 342 619 c 1
 355 607 367 591 367 583 c 0x3890
EndSplineSet
EndChar

StartChar: glyph43
Encoding: 8364 8364 43
Width: 600
VWidth: 0
UnlinkRmOvrlpSave: 1
Flags: W
HStem: 200 100<231.757 296.243 338.757 403.243> 283 100<409.757 474.243> 367 100<107.757 172.243 320.757 385.243> 533 100<142.757 207.243 355.757 420.243> 617 100<480.757 545.243> 700 100<338.757 403.243 445.757 510.243>
VStem: 90 100<384.757 449.243> 125 100<550.757 615.243> 179 100<300.757 364.935> 197 100<385.809 448.554> 214 100<217.757 282.243 469.239 531.554> 232 100<551.385 614.191> 250 100<635.065 699.243> 303 100<384.757 449.243> 321 100<217.757 282.243 717.757 782.243> 338 100<550.757 615.243> 392 100<300.757 365.243> 428 100<717.757 782.243> 463 100<634.757 699.243>
LayerCount: 2
Back
Fore
SplineSet
421 250 m 0x8002
 421 236 385 200 371 200 c 0
 357 200 321 236 321 250 c 0
 321 264 357 300 371 300 c 0
 385 300 421 264 421 250 c 0x8002
314 250 m 0x8020
 314 236 278 200 264 200 c 0
 250 200 214 236 214 250 c 0
 214 264 250 300 264 300 c 0
 278 300 314 264 314 250 c 0x8020
492 333 m 0x400080
 492 319 456 283 442 283 c 0
 428 283 392 319 392 333 c 0
 392 347 428 383 442 383 c 0
 456 383 492 347 492 333 c 0x400080
279 333 m 0x4880
 279 319 243 283 229 283 c 0
 215 283 179 319 179 333 c 0x4880
 179 345 206 374 222 381 c 1
 209 393 197 409 197 417 c 0x4840
 197 429 224 457 240 465 c 1
 227 477 215 492 215 500 c 0
 215 512 241 540 257 548 c 1
 244 560 232 575 232 583 c 0x4810
 232 595 260 624 276 631 c 1
 263 643 250 659 250 667 c 0
 250 681 286 717 300 717 c 0
 314 717 350 681 350 667 c 0x4808
 350 655 323 626 307 619 c 1
 320 607 332 591 332 583 c 0x4810
 332 571 306 543 290 535 c 1
 303 523 315 508 315 500 c 0
 315 488 288 460 272 452 c 1
 285 440 297 425 297 417 c 0x4840
 297 405 269 376 253 369 c 1
 266 357 279 341 279 333 c 0x4880
403 417 m 0x2004
 403 403 367 367 353 367 c 0
 339 367 303 403 303 417 c 0
 303 431 339 467 353 467 c 0
 367 467 403 431 403 417 c 0x2004
190 417 m 0x22
 190 403 154 367 140 367 c 0
 126 367 90 403 90 417 c 0
 90 431 126 467 140 467 c 0
 154 467 190 431 190 417 c 0x22
438 583 m 0x1001
 438 569 402 533 388 533 c 0
 374 533 338 569 338 583 c 0
 338 597 374 633 388 633 c 0
 402 633 438 597 438 583 c 0x1001
225 583 m 0x11
 225 569 189 533 175 533 c 0
 161 533 125 569 125 583 c 0
 125 597 161 633 175 633 c 0
 189 633 225 597 225 583 c 0x11
563 667 m 0x080020
 563 653 527 617 513 617 c 0
 499 617 463 653 463 667 c 0
 463 681 499 717 513 717 c 0
 527 717 563 681 563 667 c 0x080020
528 750 m 0x040040
 528 736 492 700 478 700 c 0
 464 700 428 736 428 750 c 0
 428 764 464 800 478 800 c 0
 492 800 528 764 528 750 c 0x040040
421 750 m 0x0402
 421 736 385 700 371 700 c 0
 357 700 321 736 321 750 c 0
 321 764 357 800 371 800 c 0
 385 800 421 764 421 750 c 0x0402
EndSplineSet
EndChar

StartChar: slash
Encoding: 47 47 44
Width: 600
VWidth: 0
UnlinkRmOvrlpSave: 1
Flags: W
HStem: 200 100<107.757 172.243> 283 100<178.757 243.243> 367 100<250.757 315.243> 450 100<321.757 386.243> 533 100<391.757 456.243> 617 100<463.757 528.243> 700 100<534.757 599.243>
VStem: 90 100<217.757 282.243> 161 100<300.757 365.243> 233 100<384.757 449.243> 304 100<467.757 532.243> 374 100<550.757 615.243> 446 100<634.757 699.243> 517 100<717.757 782.243>
LayerCount: 2
Back
Fore
SplineSet
190 250 m 0x81
 190 236 154 200 140 200 c 0
 126 200 90 236 90 250 c 0
 90 264 126 300 140 300 c 0
 154 300 190 264 190 250 c 0x81
261 333 m 0x4080
 261 319 225 283 211 283 c 0
 197 283 161 319 161 333 c 0
 161 347 197 383 211 383 c 0
 225 383 261 347 261 333 c 0x4080
333 417 m 0x2040
 333 403 297 367 283 367 c 0
 269 367 233 403 233 417 c 0
 233 431 269 467 283 467 c 0
 297 467 333 431 333 417 c 0x2040
404 500 m 0x1020
 404 486 368 450 354 450 c 0
 340 450 304 486 304 500 c 0
 304 514 340 550 354 550 c 0
 368 550 404 514 404 500 c 0x1020
474 583 m 0x0810
 474 569 438 533 424 533 c 0
 410 533 374 569 374 583 c 0
 374 597 410 633 424 633 c 0
 438 633 474 597 474 583 c 0x0810
546 667 m 0x0408
 546 653 510 617 496 617 c 0
 482 617 446 653 446 667 c 0
 446 681 482 717 496 717 c 0
 510 717 546 681 546 667 c 0x0408
617 750 m 0x0204
 617 736 581 700 567 700 c 0
 553 700 517 736 517 750 c 0
 517 764 553 800 567 800 c 0
 581 800 617 764 617 750 c 0x0204
EndSplineSet
EndChar

StartChar: glyph45
Encoding: 305 305 45
Width: 600
VWidth: 0
UnlinkRmOvrlpSave: 1
Flags: W
HStem: 200 100<107.757 172.243 321.757 386.243> 533 100<178.757 243.243>
VStem: 90 100<217.757 282.243> 161 100<550.757 615.243> 197 100<217.757 281.554> 215 100<301.446 364.935> 233 100<385.809 448.554> 251 100<468.446 531.615> 268 100<551.385 615.243> 304 100<217.757 282.243>
LayerCount: 2
Back
Fore
SplineSet
404 250 m 0xc040
 404 236 368 200 354 200 c 0
 340 200 304 236 304 250 c 0
 304 264 340 300 354 300 c 0
 368 300 404 264 404 250 c 0xc040
297 250 m 0xc8
 297 236 261 200 247 200 c 0
 233 200 197 236 197 250 c 0xc8
 197 262 224 290 240 298 c 1
 227 310 215 325 215 333 c 0xc4
 215 345 242 374 258 381 c 1
 245 393 233 409 233 417 c 0xc2
 233 429 260 457 276 465 c 1
 263 477 251 492 251 500 c 1xc1
 251 512 277 540 293 548 c 1
 280 560 268 575 268 583 c 0
 268 597 304 633 318 633 c 0
 332 633 368 597 368 583 c 0xc080
 368 571 342 543 326 535 c 1
 339 523 351 508 351 500 c 0xc1
 351 488 324 460 308 452 c 1
 321 440 333 425 333 417 c 1xc2
 333 405 305 376 289 369 c 1
 302 357 315 341 315 333 c 0xc4
 315 321 288 293 272 285 c 1
 285 273 297 258 297 250 c 0xc8
190 250 m 0xe0
 190 236 154 200 140 200 c 0
 126 200 90 236 90 250 c 0
 90 264 126 300 140 300 c 0
 154 300 190 264 190 250 c 0xe0
261 583 m 0xd0
 261 569 225 533 211 533 c 0
 197 533 161 569 161 583 c 0
 161 597 197 633 211 633 c 0
 225 633 261 597 261 583 c 0xd0
EndSplineSet
EndChar

StartChar: degree
Encoding: 176 176 46
Width: 600
VWidth: 0
UnlinkRmOvrlpSave: 1
Flags: W
HStem: 533 100<143.757 208.243 249.757 314.243> 617 100<107.757 172.243 321.757 386.243> 700 100<179.757 244.243 285.757 350.243>
VStem: 90 100<634.757 699.243> 126 100<550.757 615.243> 162 100<717.757 782.243> 232 100<550.757 615.243> 268 100<717.757 782.243> 304 100<634.757 699.243>
LayerCount: 2
Back
Fore
SplineSet
332 583 m 0x82
 332 569 296 533 282 533 c 0
 268 533 232 569 232 583 c 0
 232 597 268 633 282 633 c 0
 296 633 332 597 332 583 c 0x82
226 583 m 0x88
 226 569 190 533 176 533 c 0
 162 533 126 569 126 583 c 0
 126 597 162 633 176 633 c 0
 190 633 226 597 226 583 c 0x88
404 667 m 0x4080
 404 653 368 617 354 617 c 0
 340 617 304 653 304 667 c 0
 304 681 340 717 354 717 c 0
 368 717 404 681 404 667 c 0x4080
190 667 m 0x50
 190 653 154 617 140 617 c 0
 126 617 90 653 90 667 c 0
 90 681 126 717 140 717 c 0
 154 717 190 681 190 667 c 0x50
368 750 m 0x21
 368 736 332 700 318 700 c 0
 304 700 268 736 268 750 c 0
 268 764 304 800 318 800 c 0
 332 800 368 764 368 750 c 0x21
262 750 m 0x24
 262 736 226 700 212 700 c 0
 198 700 162 736 162 750 c 0
 162 764 198 800 212 800 c 0
 226 800 262 764 262 750 c 0x24
EndSplineSet
EndChar

StartChar: three
Encoding: 51 51 47
Width: 600
VWidth: 0
UnlinkRmOvrlpSave: 1
Flags: W
HStem: 200 100<142.757 207.243 249.757 314.243 356.757 421.243> 283 100<107.757 172.243> 450 100<303.757 368.243 410.757 475.243> 533 100<373.757 438.243> 617 100<445.757 510.243> 700 100<196.757 261.243 303.757 368.243 409.757 474.243 516.757 581.243>
VStem: 90 100<300.757 365.243> 125 100<217.757 282.243> 179 100<717.757 782.243> 232 100<217.757 282.243> 286 100<467.757 532.243 717.757 782.243> 339 100<217.757 282.243> 356 100<550.757 615.243> 393 100<467.757 532.243 718.748 781.252> 410 100<300.757 364.935> 428 100<385.809 449.243 634.757 699.243> 499 100<717.757 782.243>
LayerCount: 2
Back
Fore
SplineSet
439 250 m 0x8010
 439 236 403 200 389 200 c 0
 375 200 339 236 339 250 c 0
 339 264 375 300 389 300 c 0
 403 300 439 264 439 250 c 0x8010
332 250 m 0x8040
 332 236 296 200 282 200 c 0
 268 200 232 236 232 250 c 0
 232 264 268 300 282 300 c 0
 296 300 332 264 332 250 c 0x8040
225 250 m 0x81
 225 236 189 200 175 200 c 0
 161 200 125 236 125 250 c 0
 125 264 161 300 175 300 c 0
 189 300 225 264 225 250 c 0x81
510 333 m 0x4002
 510 319 474 283 460 283 c 0
 446 283 410 319 410 333 c 0x4002
 410 345 437 374 453 381 c 1
 440 393 428 409 428 417 c 0
 428 431 464 467 478 467 c 0
 492 467 528 431 528 417 c 0x4001
 528 405 500 376 484 369 c 1
 497 357 510 341 510 333 c 0x4002
190 333 m 0x42
 190 319 154 283 140 283 c 0
 126 283 90 319 90 333 c 0
 90 347 126 383 140 383 c 0
 154 383 190 347 190 333 c 0x42
493 500 m 0x2004
 493 486 457 450 443 450 c 0
 429 450 393 486 393 500 c 0
 393 514 429 550 443 550 c 0
 457 550 493 514 493 500 c 0x2004
386 500 m 0x2020
 386 486 350 450 336 450 c 0
 322 450 286 486 286 500 c 0
 286 514 322 550 336 550 c 0
 350 550 386 514 386 500 c 0x2020
456 583 m 0x1008
 456 569 420 533 406 533 c 0
 392 533 356 569 356 583 c 0
 356 597 392 633 406 633 c 0
 420 633 456 597 456 583 c 0x1008
528 667 m 0x0801
 528 653 492 617 478 617 c 0
 464 617 428 653 428 667 c 0
 428 681 464 717 478 717 c 0
 492 717 528 681 528 667 c 0x0801
599 750 m 0x040080
 599 736 563 700 549 700 c 0
 535 700 499 736 499 750 c 0
 499 764 535 800 549 800 c 0
 563 800 599 764 599 750 c 0x040080
492 750 m 0
 492 736 456 700 442 700 c 0
 428 700 392 736 392 750 c 0
 392 764 428 800 442 800 c 0
 456 800 492 764 492 750 c 0
386 750 m 0x0420
 386 736 350 700 336 700 c 0
 322 700 286 736 286 750 c 0
 286 764 322 800 336 800 c 0
 350 800 386 764 386 750 c 0x0420
279 750 m 0x0480
 279 736 243 700 229 700 c 0
 215 700 179 736 179 750 c 0
 179 764 215 800 229 800 c 0
 243 800 279 764 279 750 c 0x0480
EndSplineSet
EndChar

StartChar: seven
Encoding: 55 55 48
Width: 600
VWidth: 0
UnlinkRmOvrlpSave: 1
Flags: W
HStem: 200 100<107.757 172.243> 283 100<179.757 244.243> 367 100<250.757 315.243> 450 100<321.757 386.243> 533 100<392.757 457.243> 700 100<161.757 226.243 268.757 333.243 374.757 439.243>
VStem: 90 100<217.757 282.243> 144 100<717.757 782.243> 162 100<300.757 365.243> 233 100<384.757 449.243> 251 100<717.757 782.243> 304 100<467.757 532.243> 357 100<717.757 782.243> 375 100<550.757 615.243> 446 100<634.757 698.554> 464 100<718.446 782.243>
LayerCount: 2
Back
Fore
SplineSet
190 250 m 0x86
 190 236 154 200 140 200 c 0
 126 200 90 236 90 250 c 0
 90 264 126 300 140 300 c 0
 154 300 190 264 190 250 c 0x86
262 333 m 0x4480
 262 319 226 283 212 283 c 0
 198 283 162 319 162 333 c 0
 162 347 198 383 212 383 c 0
 226 383 262 347 262 333 c 0x4480
333 417 m 0x2440
 333 403 297 367 283 367 c 0
 269 367 233 403 233 417 c 0
 233 431 269 467 283 467 c 0
 297 467 333 431 333 417 c 0x2440
404 500 m 0x1410
 404 486 368 450 354 450 c 0
 340 450 304 486 304 500 c 0
 304 514 340 550 354 550 c 0
 368 550 404 514 404 500 c 0x1410
475 583 m 0x0c04
 475 569 439 533 425 533 c 0
 411 533 375 569 375 583 c 0
 375 597 411 633 425 633 c 0
 439 633 475 597 475 583 c 0x0c04
546 667 m 0x0402
 546 653 510 617 496 617 c 0
 482 617 446 653 446 667 c 0x0402
 446 679 473 707 489 715 c 1
 476 727 464 742 464 750 c 0
 464 764 500 800 514 800 c 0
 528 800 564 764 564 750 c 0x0401
 564 738 537 710 521 702 c 1
 534 690 546 675 546 667 c 0x0402
457 750 m 0x0408
 457 736 421 700 407 700 c 0
 393 700 357 736 357 750 c 0
 357 764 393 800 407 800 c 0
 421 800 457 764 457 750 c 0x0408
351 750 m 0x0420
 351 736 315 700 301 700 c 0
 287 700 251 736 251 750 c 0
 251 764 287 800 301 800 c 0
 315 800 351 764 351 750 c 0x0420
244 750 m 0x05
 244 736 208 700 194 700 c 0
 180 700 144 736 144 750 c 0
 144 764 180 800 194 800 c 0
 208 800 244 764 244 750 c 0x05
EndSplineSet
EndChar

StartChar: semicolon
Encoding: 59 59 49
Width: 600
VWidth: 0
UnlinkRmOvrlpSave: 1
Flags: W
HStem: 200 100<107.757 172.243> 283 100<178.757 243.243> 617 100<196.757 261.243 302.757 367.243> 700 100<267.757 332.243>
VStem: 90 100<217.757 282.243> 126 100<384.757 448.554> 144 100<468.446 532.243> 161 100<300.757 365.243> 179 100<634.757 699.243> 232 100<384.757 448.554> 250 100<468.446 532.243 717.757 782.243> 285 100<634.757 699.243>
LayerCount: 2
Back
Fore
SplineSet
190 250 m 0x88
 190 236 154 200 140 200 c 0
 126 200 90 236 90 250 c 0
 90 264 126 300 140 300 c 0
 154 300 190 264 190 250 c 0x88
261 333 m 0x41
 261 319 225 283 211 283 c 0
 197 283 161 319 161 333 c 0
 161 347 197 383 211 383 c 0
 225 383 261 347 261 333 c 0x41
332 417 m 1x0040
 332 403 296 367 282 367 c 0
 268 367 232 403 232 417 c 0x0040
 232 429 259 457 275 465 c 1
 262 477 250 492 250 500 c 1
 250 514 286 550 300 550 c 0
 314 550 350 514 350 500 c 0x0020
 350 488 323 460 307 452 c 1
 320 440 332 425 332 417 c 1x0040
226 417 m 0x04
 226 403 190 367 176 367 c 0
 162 367 126 403 126 417 c 0x04
 126 429 153 457 169 465 c 1
 156 477 144 492 144 500 c 0
 144 514 180 550 194 550 c 0
 208 550 244 514 244 500 c 0x02
 244 488 217 460 201 452 c 1
 214 440 226 425 226 417 c 0x04
385 667 m 0x2010
 385 653 349 617 335 617 c 0
 321 617 285 653 285 667 c 0
 285 681 321 717 335 717 c 0
 349 717 385 681 385 667 c 0x2010
279 667 m 0x2080
 279 653 243 617 229 617 c 0
 215 617 179 653 179 667 c 0
 179 681 215 717 229 717 c 0
 243 717 279 681 279 667 c 0x2080
350 750 m 0x1020
 350 736 314 700 300 700 c 0
 286 700 250 736 250 750 c 0
 250 764 286 800 300 800 c 0
 314 800 350 764 350 750 c 0x1020
EndSplineSet
EndChar

StartChar: question
Encoding: 63 63 50
Width: 600
VWidth: 0
UnlinkRmOvrlpSave: 1
Flags: W
HStem: 200 100<178.757 243.243> 533 100<356.757 421.243> 617 100<107.757 172.243 427.757 492.243> 700 100<178.757 243.243 285.757 350.243 392.757 457.243>
VStem: 90 100<634.757 699.243> 161 100<217.757 282.243 717.757 782.243> 197 100<384.757 448.554> 215 100<468.446 531.615> 232 100<551.385 615.243> 268 100<717.757 782.243> 339 100<550.757 615.243> 375 100<717.757 782.243> 410 100<634.757 699.243>
LayerCount: 2
Back
Fore
SplineSet
261 250 m 0x84
 261 236 225 200 211 200 c 0
 197 200 161 236 161 250 c 0
 161 264 197 300 211 300 c 0
 225 300 261 264 261 250 c 0x84
297 417 m 1xc2
 297 403 261 367 247 367 c 0
 233 367 197 403 197 417 c 0xc2
 197 429 224 457 240 465 c 1
 227 477 215 492 215 500 c 1xc1
 215 512 241 540 257 548 c 1
 244 560 232 575 232 583 c 0
 232 597 268 633 282 633 c 0
 296 633 332 597 332 583 c 0xc080
 332 571 306 543 290 535 c 1
 303 523 315 508 315 500 c 0xc1
 315 488 288 460 272 452 c 1
 285 440 297 425 297 417 c 1xc2
439 583 m 0xc020
 439 569 403 533 389 533 c 0
 375 533 339 569 339 583 c 0
 339 597 375 633 389 633 c 0
 403 633 439 597 439 583 c 0xc020
510 667 m 0xa008
 510 653 474 617 460 617 c 0
 446 617 410 653 410 667 c 0
 410 681 446 717 460 717 c 0
 474 717 510 681 510 667 c 0xa008
190 667 m 0xa8
 190 653 154 617 140 617 c 0
 126 617 90 653 90 667 c 0
 90 681 126 717 140 717 c 0
 154 717 190 681 190 667 c 0xa8
475 750 m 0x9010
 475 736 439 700 425 700 c 0
 411 700 375 736 375 750 c 0
 375 764 411 800 425 800 c 0
 439 800 475 764 475 750 c 0x9010
368 750 m 0x9040
 368 736 332 700 318 700 c 0
 304 700 268 736 268 750 c 0
 268 764 304 800 318 800 c 0
 332 800 368 764 368 750 c 0x9040
261 750 m 0x94
 261 736 225 700 211 700 c 0
 197 700 161 736 161 750 c 0
 161 764 197 800 211 800 c 0
 225 800 261 764 261 750 c 0x94
EndSplineSet
EndChar

StartChar: Agrave
Encoding: 192 192 51
Width: 600
VWidth: 0
UnlinkRmOvrlpSave: 1
Flags: W
HStem: 200 21G<133 147 453 467> 200 21G<133 147 453 467> 283 100<232.757 297.243 338.757 403.243> 367 100<196.757 261.243 410.757 475.243> 450 100<268.757 333.243 374.757 439.243> 533 100<338.757 403.243> 617 100<409.757 474.243> 700 100<374.757 439.243>
VStem: 90 100<217.757 281.554> 108 100<301.446 365.243> 179 100<384.757 449.243> 215 100<300.757 365.243> 251 100<467.757 532.243> 321 100<300.757 365.243 550.757 615.243> 357 100<467.757 532.243 717.757 782.243> 393 100<384.757 449.243 635.748 698.252> 410 100<217.757 281.554> 428 100<301.446 365.243>
LayerCount: 2
Back
Fore
SplineSet
510 250 m 0xa00080
 510 236 474 200 460 200 c 0
 446 200 410 236 410 250 c 0xa00080
 410 262 437 290 453 298 c 1
 440 310 428 325 428 333 c 0
 428 347 464 383 478 383 c 0
 492 383 528 347 528 333 c 0xa00040
 528 321 501 293 485 285 c 1
 498 273 510 258 510 250 c 0xa00080
190 250 m 0xa080
 190 236 154 200 140 200 c 0
 126 200 90 236 90 250 c 0xa080
 90 262 117 290 133 298 c 1
 120 310 108 325 108 333 c 0
 108 347 144 383 158 383 c 0
 172 383 208 347 208 333 c 0xa040
 208 321 181 293 165 285 c 1
 178 273 190 258 190 250 c 0xa080
421 333 m 0x2004
 421 319 385 283 371 283 c 0
 357 283 321 319 321 333 c 0
 321 347 357 383 371 383 c 0
 385 383 421 347 421 333 c 0x2004
315 333 m 0x2010
 315 319 279 283 265 283 c 0
 251 283 215 319 215 333 c 0
 215 347 251 383 265 383 c 0
 279 383 315 347 315 333 c 0x2010
493 417 m 0x1001
 493 403 457 367 443 367 c 0
 429 367 393 403 393 417 c 0
 393 431 429 467 443 467 c 0
 457 467 493 431 493 417 c 0x1001
279 417 m 0x1020
 279 403 243 367 229 367 c 0
 215 367 179 403 179 417 c 0
 179 431 215 467 229 467 c 0
 243 467 279 431 279 417 c 0x1020
457 500 m 0x0802
 457 486 421 450 407 450 c 0
 393 450 357 486 357 500 c 0
 357 514 393 550 407 550 c 0
 421 550 457 514 457 500 c 0x0802
351 500 m 0x0808
 351 486 315 450 301 450 c 0
 287 450 251 486 251 500 c 0
 251 514 287 550 301 550 c 0
 315 550 351 514 351 500 c 0x0808
421 583 m 0x0404
 421 569 385 533 371 533 c 0
 357 533 321 569 321 583 c 0
 321 597 357 633 371 633 c 0
 385 633 421 597 421 583 c 0x0404
492 667 m 0
 492 653 456 617 442 617 c 0
 428 617 392 653 392 667 c 0
 392 681 428 717 442 717 c 0x02
 456 717 492 681 492 667 c 0
457 750 m 0x0102
 457 736 421 700 407 700 c 0
 393 700 357 736 357 750 c 0
 357 764 393 800 407 800 c 0
 421 800 457 764 457 750 c 0x0102
EndSplineSet
EndChar

StartChar: C
Encoding: 67 67 52
Width: 600
VWidth: 0
UnlinkRmOvrlpSave: 1
Flags: W
HStem: 200 100<142.757 207.243 249.757 314.243 356.757 421.243> 283 100<427.757 492.243> 617 100<498.757 563.243> 700 100<249.757 314.243 356.757 421.243 463.757 528.243>
VStem: 90 100<300.757 364.935> 108 100<385.809 448.554> 125 100<217.757 282.243 469.239 531.554> 143 100<551.385 614.191> 161 100<635.065 699.243> 232 100<217.757 282.243 717.757 782.243> 339 100<217.757 282.243 717.757 782.243> 410 100<300.757 365.243> 446 100<717.757 782.243> 481 100<634.757 699.243>
LayerCount: 2
Back
Fore
SplineSet
439 250 m 0x8020
 439 236 403 200 389 200 c 0
 375 200 339 236 339 250 c 0
 339 264 375 300 389 300 c 0
 403 300 439 264 439 250 c 0x8020
332 250 m 0x8040
 332 236 296 200 282 200 c 0
 268 200 232 236 232 250 c 0
 232 264 268 300 282 300 c 0
 296 300 332 264 332 250 c 0x8040
225 250 m 0x82
 225 236 189 200 175 200 c 0
 161 200 125 236 125 250 c 0
 125 264 161 300 175 300 c 0
 189 300 225 264 225 250 c 0x82
510 333 m 0x4010
 510 319 474 283 460 283 c 0
 446 283 410 319 410 333 c 0
 410 347 446 383 460 383 c 0
 474 383 510 347 510 333 c 0x4010
190 333 m 0x68
 190 319 154 283 140 283 c 0
 126 283 90 319 90 333 c 0x68
 90 345 117 374 133 381 c 1
 120 393 108 409 108 417 c 0x64
 108 429 135 457 151 465 c 1
 138 477 126 492 126 500 c 0
 126 512 152 540 168 548 c 1
 155 560 143 575 143 583 c 0x61
 143 595 171 624 187 631 c 1
 174 643 161 659 161 667 c 0
 161 681 197 717 211 717 c 0
 225 717 261 681 261 667 c 0x6080
 261 655 234 626 218 619 c 1
 231 607 243 591 243 583 c 0x61
 243 571 217 543 201 535 c 1
 214 523 226 508 226 500 c 0
 226 488 199 460 183 452 c 1
 196 440 208 425 208 417 c 0x64
 208 405 180 376 164 369 c 1
 177 357 190 341 190 333 c 0x68
581 667 m 0x2004
 581 653 545 617 531 617 c 0
 517 617 481 653 481 667 c 0
 481 681 517 717 531 717 c 0
 545 717 581 681 581 667 c 0x2004
546 750 m 0x1008
 546 736 510 700 496 700 c 0
 482 700 446 736 446 750 c 0
 446 764 482 800 496 800 c 0
 510 800 546 764 546 750 c 0x1008
439 750 m 0x1020
 439 736 403 700 389 700 c 0
 375 700 339 736 339 750 c 0
 339 764 375 800 389 800 c 0
 403 800 439 764 439 750 c 0x1020
332 750 m 0x1040
 332 736 296 700 282 700 c 0
 268 700 232 736 232 750 c 0
 232 764 268 800 282 800 c 0
 296 800 332 764 332 750 c 0x1040
EndSplineSet
EndChar

StartChar: Adieresis
Encoding: 196 196 53
Width: 600
VWidth: 0
UnlinkRmOvrlpSave: 1
Flags: W
HStem: 200 21G<133 147 453 467> 200 21G<133 147 453 467> 367 100<250.757 315.243 356.757 421.243> 450 100<214.757 279.243 428.757 493.243> 533 100<285.757 350.243 391.757 456.243> 617 100<356.757 421.243> 700 100<267.757 332.243 481.757 546.243>
VStem: 90 100<217.757 281.554> 108 100<301.446 364.935> 126 100<385.809 449.243> 197 100<467.757 532.243> 233 100<384.757 449.243> 250 100<717.757 782.243> 268 100<550.757 615.243> 339 100<384.757 449.243 634.757 699.243> 374 100<550.757 615.243> 410 100<217.757 281.554 468.748 531.252> 428 100<301.446 364.935> 446 100<385.809 449.243> 464 100<717.757 782.243>
LayerCount: 2
Back
Fore
SplineSet
510 250 m 0xa00080
 510 236 474 200 460 200 c 0
 446 200 410 236 410 250 c 0xa00080
 410 262 437 290 453 298 c 1
 440 310 428 325 428 333 c 0xa00040
 428 345 455 374 471 381 c 1
 458 393 446 409 446 417 c 0
 446 431 482 467 496 467 c 0
 510 467 546 431 546 417 c 0xa00020
 546 405 518 376 502 369 c 1
 515 357 528 341 528 333 c 0xa00040
 528 321 501 293 485 285 c 1
 498 273 510 258 510 250 c 0xa00080
190 250 m 0xa1
 190 236 154 200 140 200 c 0
 126 200 90 236 90 250 c 0xa1
 90 262 117 290 133 298 c 1
 120 310 108 325 108 333 c 0xa080
 108 345 135 374 151 381 c 1
 138 393 126 409 126 417 c 0
 126 431 162 467 176 467 c 0
 190 467 226 431 226 417 c 0xa040
 226 405 198 376 182 369 c 1
 195 357 208 341 208 333 c 0xa080
 208 321 181 293 165 285 c 1
 178 273 190 258 190 250 c 0xa1
439 417 m 0x2002
 439 403 403 367 389 367 c 0
 375 367 339 403 339 417 c 0
 339 431 375 467 389 467 c 0
 403 467 439 431 439 417 c 0x2002
333 417 m 0x2010
 333 403 297 367 283 367 c 0
 269 367 233 403 233 417 c 0
 233 431 269 467 283 467 c 0
 297 467 333 431 333 417 c 0x2010
511 500 m 0
 511 486 475 450 461 450 c 0
 447 450 411 486 411 500 c 0
 411 514 447 550 461 550 c 0x10
 475 550 511 514 511 500 c 0
297 500 m 0x1020
 297 486 261 450 247 450 c 0
 233 450 197 486 197 500 c 0
 197 514 233 550 247 550 c 0
 261 550 297 514 297 500 c 0x1020
474 583 m 0x0801
 474 569 438 533 424 533 c 0
 410 533 374 569 374 583 c 0
 374 597 410 633 424 633 c 0
 438 633 474 597 474 583 c 0x0801
368 583 m 0x0804
 368 569 332 533 318 533 c 0
 304 533 268 569 268 583 c 0
 268 597 304 633 318 633 c 0
 332 633 368 597 368 583 c 0x0804
439 667 m 0x0402
 439 653 403 617 389 617 c 0
 375 617 339 653 339 667 c 0
 339 681 375 717 389 717 c 0
 403 717 439 681 439 667 c 0x0402
564 750 m 0x020010
 564 736 528 700 514 700 c 0
 500 700 464 736 464 750 c 0
 464 764 500 800 514 800 c 0
 528 800 564 764 564 750 c 0x020010
350 750 m 0x0208
 350 736 314 700 300 700 c 0
 286 700 250 736 250 750 c 0
 250 764 286 800 300 800 c 0
 314 800 350 764 350 750 c 0x0208
EndSplineSet
EndChar

StartChar: G
Encoding: 71 71 54
Width: 600
VWidth: 0
UnlinkRmOvrlpSave: 1
Flags: W
HStem: 200 100<142.757 207.243 249.757 314.243 356.757 421.243> 450 100<356.757 421.243> 617 100<498.757 563.243> 700 100<249.757 314.243 356.757 421.243 463.757 528.243>
VStem: 90 100<300.757 364.935> 108 100<385.809 448.554> 125 100<217.757 282.243 469.239 531.554> 143 100<551.385 614.191> 161 100<635.065 699.243> 232 100<217.757 282.243 717.757 782.243> 339 100<217.757 282.243 467.757 532.243 717.757 782.243> 410 100<300.757 364.935> 428 100<385.809 448.554> 446 100<468.446 532.243 717.757 782.243> 481 100<634.757 699.243>
LayerCount: 2
Back
Fore
SplineSet
439 250 m 0xc020
 439 236 403 200 389 200 c 0
 375 200 339 236 339 250 c 0
 339 264 375 300 389 300 c 0
 403 300 439 264 439 250 c 0xc020
332 250 m 0xc040
 332 236 296 200 282 200 c 0
 268 200 232 236 232 250 c 0
 232 264 268 300 282 300 c 0
 296 300 332 264 332 250 c 0xc040
225 250 m 0xc2
 225 236 189 200 175 200 c 0
 161 200 125 236 125 250 c 0
 125 264 161 300 175 300 c 0
 189 300 225 264 225 250 c 0xc2
510 333 m 0xc010
 510 319 474 283 460 283 c 0
 446 283 410 319 410 333 c 0xc010
 410 345 437 374 453 381 c 1
 440 393 428 409 428 417 c 0xc008
 428 429 455 457 471 465 c 1
 458 477 446 492 446 500 c 1
 446 514 482 550 496 550 c 0
 510 550 546 514 546 500 c 0xc004
 546 488 519 460 503 452 c 1
 516 440 528 425 528 417 c 1xc008
 528 405 500 376 484 369 c 1
 497 357 510 341 510 333 c 0xc010
190 333 m 0xe8
 190 319 154 283 140 283 c 0
 126 283 90 319 90 333 c 0xe8
 90 345 117 374 133 381 c 1
 120 393 108 409 108 417 c 0xe4
 108 429 135 457 151 465 c 1
 138 477 126 492 126 500 c 0
 126 512 152 540 168 548 c 1
 155 560 143 575 143 583 c 0xe1
 143 595 171 624 187 631 c 1
 174 643 161 659 161 667 c 0
 161 681 197 717 211 717 c 0
 225 717 261 681 261 667 c 0xe080
 261 655 234 626 218 619 c 1
 231 607 243 591 243 583 c 0xe1
 243 571 217 543 201 535 c 1
 214 523 226 508 226 500 c 0
 226 488 199 460 183 452 c 1
 196 440 208 425 208 417 c 0xe4
 208 405 180 376 164 369 c 1
 177 357 190 341 190 333 c 0xe8
439 500 m 0xc020
 439 486 403 450 389 450 c 0
 375 450 339 486 339 500 c 0
 339 514 375 550 389 550 c 0
 403 550 439 514 439 500 c 0xc020
581 667 m 0xe002
 581 653 545 617 531 617 c 0
 517 617 481 653 481 667 c 0
 481 681 517 717 531 717 c 0
 545 717 581 681 581 667 c 0xe002
546 750 m 0xd004
 546 736 510 700 496 700 c 0
 482 700 446 736 446 750 c 0
 446 764 482 800 496 800 c 0
 510 800 546 764 546 750 c 0xd004
439 750 m 0xd020
 439 736 403 700 389 700 c 0
 375 700 339 736 339 750 c 0
 339 764 375 800 389 800 c 0
 403 800 439 764 439 750 c 0xd020
332 750 m 0xd040
 332 736 296 700 282 700 c 0
 268 700 232 736 232 750 c 0
 232 764 268 800 282 800 c 0
 296 800 332 764 332 750 c 0xd040
EndSplineSet
EndChar

StartChar: Egrave
Encoding: 200 200 55
Width: 600
VWidth: 0
UnlinkRmOvrlpSave: 1
Flags: W
HStem: 200 100<214.757 279.243 320.757 385.243 427.757 492.243> 367 100<250.757 315.243 356.757 421.243> 533 100<285.757 350.243 498.757 563.243> 700 100<374.757 439.243>
VStem: 90 100<217.757 281.554> 108 100<301.446 364.935> 126 100<385.809 448.554> 144 100<468.446 531.615> 161 100<551.385 615.243> 197 100<217.757 282.243> 233 100<384.757 449.243> 268 100<550.757 615.243> 303 100<217.757 282.243> 339 100<384.757 449.243> 357 100<717.757 782.243> 374 100<550.757 614.191> 392 100<635.065 699.243> 410 100<217.757 282.243> 481 100<550.757 615.243>
LayerCount: 2
Back
Fore
SplineSet
510 250 m 0xf00040
 510 236 474 200 460 200 c 0
 446 200 410 236 410 250 c 0
 410 264 446 300 460 300 c 0
 474 300 510 264 510 250 c 0xf00040
403 250 m 0xf008
 403 236 367 200 353 200 c 0
 339 200 303 236 303 250 c 0
 303 264 339 300 353 300 c 0
 367 300 403 264 403 250 c 0xf008
297 250 m 0xf040
 297 236 261 200 247 200 c 0
 233 200 197 236 197 250 c 0
 197 264 233 300 247 300 c 0
 261 300 297 264 297 250 c 0xf040
190 250 m 0xf8
 190 236 154 200 140 200 c 0
 126 200 90 236 90 250 c 0xf8
 90 262 117 290 133 298 c 1
 120 310 108 325 108 333 c 0xf4
 108 345 135 374 151 381 c 1
 138 393 126 409 126 417 c 0xf2
 126 429 153 457 169 465 c 1
 156 477 144 492 144 500 c 0xf1
 144 512 170 540 186 548 c 1
 173 560 161 575 161 583 c 0
 161 597 197 633 211 633 c 0
 225 633 261 597 261 583 c 0xf080
 261 571 235 543 219 535 c 1
 232 523 244 508 244 500 c 0xf1
 244 488 217 460 201 452 c 1
 214 440 226 425 226 417 c 0xf2
 226 405 198 376 182 369 c 1
 195 357 208 341 208 333 c 0xf4
 208 321 181 293 165 285 c 1
 178 273 190 258 190 250 c 0xf8
439 417 m 0xf004
 439 403 403 367 389 367 c 0
 375 367 339 403 339 417 c 0
 339 431 375 467 389 467 c 0
 403 467 439 431 439 417 c 0xf004
333 417 m 0xf020
 333 403 297 367 283 367 c 0
 269 367 233 403 233 417 c 0
 233 431 269 467 283 467 c 0
 297 467 333 431 333 417 c 0xf020
581 583 m 0xf00020
 581 569 545 533 531 533 c 0
 517 533 481 569 481 583 c 0
 481 597 517 633 531 633 c 0
 545 633 581 597 581 583 c 0xf00020
474 583 m 0xf001
 474 569 438 533 424 533 c 0
 410 533 374 569 374 583 c 0xf001
 374 595 402 624 418 631 c 1
 405 643 392 659 392 667 c 0
 392 681 428 717 442 717 c 0
 456 717 492 681 492 667 c 0xf00080
 492 655 465 626 449 619 c 1
 462 607 474 591 474 583 c 0xf001
368 583 m 0xf010
 368 569 332 533 318 533 c 0
 304 533 268 569 268 583 c 0
 268 597 304 633 318 633 c 0
 332 633 368 597 368 583 c 0xf010
457 750 m 0xf002
 457 736 421 700 407 700 c 0
 393 700 357 736 357 750 c 0
 357 764 393 800 407 800 c 0
 421 800 457 764 457 750 c 0xf002
EndSplineSet
EndChar

StartChar: K
Encoding: 75 75 56
Width: 600
VWidth: 0
UnlinkRmOvrlpSave: 1
Flags: W
HStem: 200 100<427.757 492.243> 200 21G<133 147> 283 100<392.757 457.243> 367 100<356.757 421.243> 450 100<321.757 386.243> 533 100<285.757 350.243> 617 100<409.757 474.243> 700 100<534.757 599.243>
VStem: 90 100<217.757 281.554> 108 100<301.446 364.935> 126 100<385.809 448.554> 144 100<468.446 531.615> 161 100<551.385 614.191> 179 100<635.065 698.554> 197 100<718.446 782.243> 268 100<550.757 615.243> 304 100<467.757 532.243> 339 100<384.757 449.243> 375 100<300.757 365.243> 392 100<634.757 699.243> 410 100<217.757 282.243> 517 100<717.757 782.243>
LayerCount: 2
Back
Fore
SplineSet
510 250 m 0x80000c
 510 236 474 200 460 200 c 0
 446 200 410 236 410 250 c 0
 410 264 446 300 460 300 c 0
 474 300 510 264 510 250 c 0x80000c
190 250 m 0x418004
 190 236 154 200 140 200 c 0
 126 200 90 236 90 250 c 0x418004
 90 262 117 290 133 298 c 1
 120 310 108 325 108 333 c 0x414004
 108 345 135 374 151 381 c 1
 138 393 126 409 126 417 c 0x412004
 126 429 153 457 169 465 c 1
 156 477 144 492 144 500 c 0x411004
 144 512 170 540 186 548 c 1
 173 560 161 575 161 583 c 0x410804
 161 595 189 624 205 631 c 1
 192 643 179 659 179 667 c 0x410404
 179 679 206 707 222 715 c 1
 209 727 197 742 197 750 c 0
 197 764 233 800 247 800 c 0
 261 800 297 764 297 750 c 0x410204
 297 738 270 710 254 702 c 1
 267 690 279 675 279 667 c 0x410404
 279 655 252 626 236 619 c 1
 249 607 261 591 261 583 c 0x410804
 261 571 235 543 219 535 c 1
 232 523 244 508 244 500 c 0x411004
 244 488 217 460 201 452 c 1
 214 440 226 425 226 417 c 0x412004
 226 405 198 376 182 369 c 1
 195 357 208 341 208 333 c 0x414004
 208 321 181 293 165 285 c 1
 178 273 190 258 190 250 c 0x418004
475 333 m 0x200024
 475 319 439 283 425 283 c 0
 411 283 375 319 375 333 c 0
 375 347 411 383 425 383 c 0
 439 383 475 347 475 333 c 0x200024
439 417 m 0x100044
 439 403 403 367 389 367 c 0
 375 367 339 403 339 417 c 0
 339 431 375 467 389 467 c 0
 403 467 439 431 439 417 c 0x100044
404 500 m 0x080084
 404 486 368 450 354 450 c 0
 340 450 304 486 304 500 c 0
 304 514 340 550 354 550 c 0
 368 550 404 514 404 500 c 0x080084
368 583 m 0x040104
 368 569 332 533 318 533 c 0
 304 533 268 569 268 583 c 0
 268 597 304 633 318 633 c 0
 332 633 368 597 368 583 c 0x040104
492 667 m 0x020014
 492 653 456 617 442 617 c 0
 428 617 392 653 392 667 c 0
 392 681 428 717 442 717 c 0
 456 717 492 681 492 667 c 0x020014
617 750 m 0
 617 736 581 700 567 700 c 0
 553 700 517 736 517 750 c 0
 517 764 553 800 567 800 c 0x010004
 581 800 617 764 617 750 c 0
EndSplineSet
EndChar

StartChar: O
Encoding: 79 79 57
Width: 600
VWidth: 0
UnlinkRmOvrlpSave: 1
Flags: W
HStem: 200 100<142.757 207.243 249.757 314.243 356.757 421.243> 700 100<249.757 314.243 356.757 421.243 463.757 528.243>
VStem: 90 100<300.757 364.935> 108 100<385.809 448.554> 125 100<217.757 282.243 469.239 531.554> 143 100<551.385 614.191> 161 100<635.065 699.243> 232 100<217.757 282.243 717.757 782.243> 339 100<217.757 282.243 717.757 782.243> 410 100<300.757 364.935> 428 100<385.809 448.554> 446 100<468.446 531.615 717.757 782.243> 463 100<551.385 614.191> 481 100<635.065 699.243>
LayerCount: 2
Back
Fore
SplineSet
439 250 m 0xc080
 439 236 403 200 389 200 c 0
 375 200 339 236 339 250 c 0
 339 264 375 300 389 300 c 0
 403 300 439 264 439 250 c 0xc080
332 250 m 0xc1
 332 236 296 200 282 200 c 0
 268 200 232 236 232 250 c 0
 232 264 268 300 282 300 c 0
 296 300 332 264 332 250 c 0xc1
225 250 m 0xc8
 225 236 189 200 175 200 c 0
 161 200 125 236 125 250 c 0
 125 264 161 300 175 300 c 0
 189 300 225 264 225 250 c 0xc8
510 333 m 0xc040
 510 319 474 283 460 283 c 0
 446 283 410 319 410 333 c 0xc040
 410 345 437 374 453 381 c 1
 440 393 428 409 428 417 c 0xc020
 428 429 455 457 471 465 c 1
 458 477 446 492 446 500 c 1xc010
 446 512 472 540 488 548 c 1
 475 560 463 575 463 583 c 0xc008
 463 595 491 624 507 631 c 1
 494 643 481 659 481 667 c 0
 481 681 517 717 531 717 c 0
 545 717 581 681 581 667 c 0xc004
 581 655 554 626 538 619 c 1
 551 607 563 591 563 583 c 0xc008
 563 571 537 543 521 535 c 1
 534 523 546 508 546 500 c 0xc010
 546 488 519 460 503 452 c 1
 516 440 528 425 528 417 c 1xc020
 528 405 500 376 484 369 c 1
 497 357 510 341 510 333 c 0xc040
190 333 m 0xe0
 190 319 154 283 140 283 c 0
 126 283 90 319 90 333 c 0xe0
 90 345 117 374 133 381 c 1
 120 393 108 409 108 417 c 0xd0
 108 429 135 457 151 465 c 1
 138 477 126 492 126 500 c 0
 126 512 152 540 168 548 c 1
 155 560 143 575 143 583 c 0xc4
 143 595 171 624 187 631 c 1
 174 643 161 659 161 667 c 0
 161 681 197 717 211 717 c 0
 225 717 261 681 261 667 c 0xc2
 261 655 234 626 218 619 c 1
 231 607 243 591 243 583 c 0xc4
 243 571 217 543 201 535 c 1
 214 523 226 508 226 500 c 0
 226 488 199 460 183 452 c 1
 196 440 208 425 208 417 c 0xd0
 208 405 180 376 164 369 c 1
 177 357 190 341 190 333 c 0xe0
546 750 m 0xc010
 546 736 510 700 496 700 c 0
 482 700 446 736 446 750 c 0
 446 764 482 800 496 800 c 0
 510 800 546 764 546 750 c 0xc010
439 750 m 0xc080
 439 736 403 700 389 700 c 0
 375 700 339 736 339 750 c 0
 339 764 375 800 389 800 c 0
 403 800 439 764 439 750 c 0xc080
332 750 m 0xc1
 332 736 296 700 282 700 c 0
 268 700 232 736 232 750 c 0
 232 764 268 800 282 800 c 0
 296 800 332 764 332 750 c 0xc1
EndSplineSet
EndChar

StartChar: S
Encoding: 83 83 58
Width: 600
VWidth: 0
UnlinkRmOvrlpSave: 1
Flags: W
HStem: 200 100<142.757 207.243 249.757 314.243 356.757 421.243> 283 100<107.757 172.243> 450 100<196.757 261.243 303.757 368.243 410.757 475.243> 617 100<498.757 563.243> 700 100<249.757 314.243 356.757 421.243 463.757 528.243>
VStem: 90 100<300.757 365.243> 125 100<217.757 282.243> 143 100<550.757 614.191> 161 100<635.065 699.243> 179 100<467.757 532.243> 232 100<217.757 282.243 717.757 782.243> 286 100<467.757 532.243> 339 100<217.757 282.243 717.757 782.243> 393 100<467.757 532.243> 410 100<300.757 364.935> 428 100<385.809 449.243> 446 100<717.757 782.243> 481 100<634.757 699.243>
LayerCount: 2
Back
Fore
SplineSet
439 250 m 0xa008
 439 236 403 200 389 200 c 0
 375 200 339 236 339 250 c 0
 339 264 375 300 389 300 c 0
 403 300 439 264 439 250 c 0xa008
332 250 m 0xa020
 332 236 296 200 282 200 c 0
 268 200 232 236 232 250 c 0
 232 264 268 300 282 300 c 0
 296 300 332 264 332 250 c 0xa020
225 250 m 0xa2
 225 236 189 200 175 200 c 0
 161 200 125 236 125 250 c 0
 125 264 161 300 175 300 c 0
 189 300 225 264 225 250 c 0xa2
510 333 m 0x6002
 510 319 474 283 460 283 c 0
 446 283 410 319 410 333 c 0x6002
 410 345 437 374 453 381 c 1
 440 393 428 409 428 417 c 0
 428 431 464 467 478 467 c 0
 492 467 528 431 528 417 c 0x6001
 528 405 500 376 484 369 c 1
 497 357 510 341 510 333 c 0x6002
190 333 m 0x64
 190 319 154 283 140 283 c 0
 126 283 90 319 90 333 c 0
 90 347 126 383 140 383 c 0
 154 383 190 347 190 333 c 0x64
493 500 m 0x2004
 493 486 457 450 443 450 c 0
 429 450 393 486 393 500 c 0
 393 514 429 550 443 550 c 0
 457 550 493 514 493 500 c 0x2004
386 500 m 0x2010
 386 486 350 450 336 450 c 0
 322 450 286 486 286 500 c 0
 286 514 322 550 336 550 c 0
 350 550 386 514 386 500 c 0x2010
279 500 m 0x2040
 279 486 243 450 229 450 c 0
 215 450 179 486 179 500 c 0
 179 514 215 550 229 550 c 0
 243 550 279 514 279 500 c 0x2040
243 583 m 0x31
 243 569 207 533 193 533 c 0
 179 533 143 569 143 583 c 0x31
 143 595 171 624 187 631 c 1
 174 643 161 659 161 667 c 0
 161 681 197 717 211 717 c 0
 225 717 261 681 261 667 c 0x3080
 261 655 234 626 218 619 c 1
 231 607 243 591 243 583 c 0x31
581 667 m 0x300040
 581 653 545 617 531 617 c 0
 517 617 481 653 481 667 c 0
 481 681 517 717 531 717 c 0
 545 717 581 681 581 667 c 0x300040
546 750 m 0x280080
 546 736 510 700 496 700 c 0
 482 700 446 736 446 750 c 0
 446 764 482 800 496 800 c 0
 510 800 546 764 546 750 c 0x280080
439 750 m 0x2808
 439 736 403 700 389 700 c 0
 375 700 339 736 339 750 c 0
 339 764 375 800 389 800 c 0
 403 800 439 764 439 750 c 0x2808
332 750 m 0x2820
 332 736 296 700 282 700 c 0
 268 700 232 736 232 750 c 0
 232 764 268 800 282 800 c 0
 296 800 332 764 332 750 c 0x2820
EndSplineSet
EndChar

StartChar: W
Encoding: 87 87 59
Width: 600
VWidth: 0
UnlinkRmOvrlpSave: 1
Flags: W
HStem: 200 100<142.757 207.243 356.757 421.243> 283 100<214.757 279.243 320.757 385.243> 780 20G<222 236 542 556>
VStem: 90 100<300.757 364.935> 108 100<385.809 448.554> 125 100<217.757 282.243 469.239 531.554> 143 100<551.385 614.191> 161 100<635.065 698.554> 179 100<718.446 782.243> 197 100<300.757 365.243> 268 100<384.757 448.554> 286 100<468.446 532.243> 303 100<300.757 365.243> 339 100<217.757 282.243> 410 100<300.757 364.935> 428 100<385.809 448.554> 446 100<468.446 531.615> 463 100<551.385 614.191> 481 100<635.065 698.554> 499 100<718.446 782.243>
LayerCount: 2
Back
Fore
SplineSet
439 250 m 0xa004
 439 236 403 200 389 200 c 0
 375 200 339 236 339 250 c 0
 339 264 375 300 389 300 c 0
 403 300 439 264 439 250 c 0xa004
225 250 m 0xa4
 225 236 189 200 175 200 c 0
 161 200 125 236 125 250 c 0
 125 264 161 300 175 300 c 0
 189 300 225 264 225 250 c 0xa4
510 333 m 0x6002
 510 319 474 283 460 283 c 0
 446 283 410 319 410 333 c 0x6002
 410 345 437 374 453 381 c 1
 440 393 428 409 428 417 c 0x6001
 428 429 455 457 471 465 c 1
 458 477 446 492 446 500 c 1x600080
 446 512 472 540 488 548 c 1
 475 560 463 575 463 583 c 0x600040
 463 595 491 624 507 631 c 1
 494 643 481 659 481 667 c 0x600020
 481 679 508 707 524 715 c 1
 511 727 499 742 499 750 c 0
 499 764 535 800 549 800 c 0
 563 800 599 764 599 750 c 0x600010
 599 738 572 710 556 702 c 1
 569 690 581 675 581 667 c 0x600020
 581 655 554 626 538 619 c 1
 551 607 563 591 563 583 c 0x600040
 563 571 537 543 521 535 c 1
 534 523 546 508 546 500 c 0x600080
 546 488 519 460 503 452 c 1
 516 440 528 425 528 417 c 1x6001
 528 405 500 376 484 369 c 1
 497 357 510 341 510 333 c 0x6002
403 333 m 0x6008
 403 319 367 283 353 283 c 0
 339 283 303 319 303 333 c 0
 303 347 339 383 353 383 c 0
 367 383 403 347 403 333 c 0x6008
297 333 m 0x6040
 297 319 261 283 247 283 c 0
 233 283 197 319 197 333 c 0
 197 347 233 383 247 383 c 0
 261 383 297 347 297 333 c 0x6040
190 333 m 0x70
 190 319 154 283 140 283 c 0
 126 283 90 319 90 333 c 0x70
 90 345 117 374 133 381 c 1
 120 393 108 409 108 417 c 0x68
 108 429 135 457 151 465 c 1
 138 477 126 492 126 500 c 0
 126 512 152 540 168 548 c 1
 155 560 143 575 143 583 c 0x62
 143 595 171 624 187 631 c 1
 174 643 161 659 161 667 c 0x61
 161 679 188 707 204 715 c 1
 191 727 179 742 179 750 c 0
 179 764 215 800 229 800 c 0
 243 800 279 764 279 750 c 0x6080
 279 738 252 710 236 702 c 1
 249 690 261 675 261 667 c 0x61
 261 655 234 626 218 619 c 1
 231 607 243 591 243 583 c 0x62
 243 571 217 543 201 535 c 1
 214 523 226 508 226 500 c 0
 226 488 199 460 183 452 c 1
 196 440 208 425 208 417 c 0x68
 208 405 180 376 164 369 c 1
 177 357 190 341 190 333 c 0x70
368 417 m 1x2020
 368 403 332 367 318 367 c 0
 304 367 268 403 268 417 c 0x2020
 268 429 295 457 311 465 c 1
 298 477 286 492 286 500 c 1
 286 514 322 550 336 550 c 0
 350 550 386 514 386 500 c 0x2010
 386 488 359 460 343 452 c 1
 356 440 368 425 368 417 c 1x2020
EndSplineSet
EndChar

StartChar: Oslash
Encoding: 216 216 60
Width: 600
VWidth: 0
UnlinkRmOvrlpSave: 1
Flags: W
HStem: 200 100<178.757 243.243 284.757 349.243> 283 100<142.757 207.243 356.757 421.243> 367 100<214.757 279.243> 450 100<285.757 350.243> 533 100<355.757 420.243> 617 100<213.757 278.243 427.757 492.243> 700 100<285.757 350.243 391.757 456.243>
VStem: 90 100<384.757 448.554> 108 100<468.446 531.615> 125 100<300.757 365.243 551.385 615.243> 161 100<217.757 282.243> 197 100<384.757 449.243 635.748 698.252> 268 100<218.748 281.252 467.757 532.243 717.757 782.243> 339 100<300.757 365.243 551.748 614.252> 374 100<717.757 782.243> 410 100<384.757 448.554 634.757 699.243> 428 100<468.446 531.615> 445 100<551.385 615.243>
LayerCount: 2
Back
Fore
SplineSet
367 250 m 0x80
 367 236 331 200 317 200 c 0
 303 200 267 236 267 250 c 0
 267 264 303 300 317 300 c 0
 331 300 367 264 367 250 c 0x80
261 250 m 0x8020
 261 236 225 200 211 200 c 0
 197 200 161 236 161 250 c 0
 161 264 197 300 211 300 c 0
 225 300 261 264 261 250 c 0x8020
439 333 m 0x4004
 439 319 403 283 389 283 c 0
 375 283 339 319 339 333 c 0
 339 347 375 383 389 383 c 0
 403 383 439 347 439 333 c 0x4004
225 333 m 0x4040
 225 319 189 283 175 283 c 0
 161 283 125 319 125 333 c 0
 125 347 161 383 175 383 c 0
 189 383 225 347 225 333 c 0x4040
510 417 m 1x2801
 510 403 474 367 460 367 c 0
 446 367 410 403 410 417 c 0x2801
 410 429 437 457 453 465 c 1
 440 477 428 492 428 500 c 1x280080
 428 512 454 540 470 548 c 1
 457 560 445 575 445 583 c 0
 445 597 481 633 495 633 c 0
 509 633 545 597 545 583 c 0x280040
 545 571 519 543 503 535 c 1
 516 523 528 508 528 500 c 0x280080
 528 488 501 460 485 452 c 1
 498 440 510 425 510 417 c 1x2801
297 417 m 0x2010
 297 403 261 367 247 367 c 0
 233 367 197 403 197 417 c 0
 197 431 233 467 247 467 c 0
 261 467 297 431 297 417 c 0x2010
190 417 m 0x29
 190 403 154 367 140 367 c 0
 126 367 90 403 90 417 c 0x29
 90 429 117 457 133 465 c 1
 120 477 108 492 108 500 c 0x2880
 108 512 134 540 150 548 c 1
 137 560 125 575 125 583 c 0
 125 597 161 633 175 633 c 0
 189 633 225 597 225 583 c 0x2840
 225 571 199 543 183 535 c 1
 196 523 208 508 208 500 c 0x2880
 208 488 181 460 165 452 c 1
 178 440 190 425 190 417 c 0x29
368 500 m 0x1008
 368 486 332 450 318 450 c 0
 304 450 268 486 268 500 c 0
 268 514 304 550 318 550 c 0
 332 550 368 514 368 500 c 0x1008
438 583 m 0
 438 569 402 533 388 533 c 0
 374 533 338 569 338 583 c 0
 338 597 374 633 388 633 c 0x08
 402 633 438 597 438 583 c 0
510 667 m 0x0401
 510 653 474 617 460 617 c 0
 446 617 410 653 410 667 c 0
 410 681 446 717 460 717 c 0
 474 717 510 681 510 667 c 0x0401
296 667 m 0
 296 653 260 617 246 617 c 0
 232 617 196 653 196 667 c 0
 196 681 232 717 246 717 c 0
 260 717 296 681 296 667 c 0
474 750 m 0x0202
 474 736 438 700 424 700 c 0
 410 700 374 736 374 750 c 0
 374 764 410 800 424 800 c 0
 438 800 474 764 474 750 c 0x0202
368 750 m 0x0208
 368 736 332 700 318 700 c 0
 304 700 268 736 268 750 c 0
 268 764 304 800 318 800 c 0
 332 800 368 764 368 750 c 0x0208
EndSplineSet
EndChar

StartChar: bracketleft
Encoding: 91 91 61
Width: 600
VWidth: 0
UnlinkRmOvrlpSave: 1
Flags: W
HStem: 200 100<214.757 279.243 321.757 386.243> 700 100<321.757 386.243 428.757 493.243>
VStem: 90 100<217.757 281.554> 108 100<301.446 364.935> 126 100<385.809 448.554> 144 100<468.446 531.615> 161 100<551.385 614.191> 179 100<635.065 698.554> 197 100<217.757 282.243 718.446 782.243> 304 100<217.757 282.243 717.757 782.243> 411 100<717.757 782.243>
LayerCount: 2
Back
Fore
SplineSet
404 250 m 0xc060
 404 236 368 200 354 200 c 0
 340 200 304 236 304 250 c 0
 304 264 340 300 354 300 c 0
 368 300 404 264 404 250 c 0xc060
297 250 m 0xc0e0
 297 236 261 200 247 200 c 0
 233 200 197 236 197 250 c 0
 197 264 233 300 247 300 c 0
 261 300 297 264 297 250 c 0xc0e0
190 250 m 0xe060
 190 236 154 200 140 200 c 0
 126 200 90 236 90 250 c 0xe060
 90 262 117 290 133 298 c 1
 120 310 108 325 108 333 c 0xd060
 108 345 135 374 151 381 c 1
 138 393 126 409 126 417 c 0xc860
 126 429 153 457 169 465 c 1
 156 477 144 492 144 500 c 0xc460
 144 512 170 540 186 548 c 1
 173 560 161 575 161 583 c 0xc260
 161 595 189 624 205 631 c 1
 192 643 179 659 179 667 c 0xc160
 179 679 206 707 222 715 c 1
 209 727 197 742 197 750 c 0
 197 764 233 800 247 800 c 0
 261 800 297 764 297 750 c 0xc0e0
 297 738 270 710 254 702 c 1
 267 690 279 675 279 667 c 0xc160
 279 655 252 626 236 619 c 1
 249 607 261 591 261 583 c 0xc260
 261 571 235 543 219 535 c 1
 232 523 244 508 244 500 c 0xc460
 244 488 217 460 201 452 c 1
 214 440 226 425 226 417 c 0xc860
 226 405 198 376 182 369 c 1
 195 357 208 341 208 333 c 0xd060
 208 321 181 293 165 285 c 1
 178 273 190 258 190 250 c 0xe060
511 750 m 0
 511 736 475 700 461 700 c 0
 447 700 411 736 411 750 c 0
 411 764 447 800 461 800 c 0
 475 800 511 764 511 750 c 0
404 750 m 0
 404 736 368 700 354 700 c 0
 340 700 304 736 304 750 c 0
 304 764 340 800 354 800 c 0
 368 800 404 764 404 750 c 0
EndSplineSet
EndChar

StartChar: Udieresis
Encoding: 220 220 62
Width: 600
VWidth: 0
UnlinkRmOvrlpSave: 1
Flags: W
HStem: 200 100<142.757 207.243 249.757 314.243 356.757 421.243> 613 20G<186 200 506 520> 700 100<196.757 261.243 516.757 581.243>
VStem: 90 100<300.757 364.935> 108 100<385.809 448.554> 125 100<217.757 282.243 469.239 531.554> 143 100<551.385 615.243> 179 100<717.757 782.243> 232 100<217.757 282.243> 339 100<217.757 282.243> 410 100<300.757 364.935> 428 100<385.809 448.554> 446 100<468.446 531.615> 463 100<551.385 615.243> 499 100<717.757 782.243>
LayerCount: 2
Back
Fore
SplineSet
439 250 m 0xe040
 439 236 403 200 389 200 c 0
 375 200 339 236 339 250 c 0
 339 264 375 300 389 300 c 0
 403 300 439 264 439 250 c 0xe040
332 250 m 0xe080
 332 236 296 200 282 200 c 0
 268 200 232 236 232 250 c 0
 232 264 268 300 282 300 c 0
 296 300 332 264 332 250 c 0xe080
225 250 m 0xe4
 225 236 189 200 175 200 c 0
 161 200 125 236 125 250 c 0
 125 264 161 300 175 300 c 0
 189 300 225 264 225 250 c 0xe4
510 333 m 0xe020
 510 319 474 283 460 283 c 0
 446 283 410 319 410 333 c 0xe020
 410 345 437 374 453 381 c 1
 440 393 428 409 428 417 c 0xe010
 428 429 455 457 471 465 c 1
 458 477 446 492 446 500 c 1xe008
 446 512 472 540 488 548 c 1
 475 560 463 575 463 583 c 0
 463 597 499 633 513 633 c 0
 527 633 563 597 563 583 c 0xe004
 563 571 537 543 521 535 c 1
 534 523 546 508 546 500 c 0xe008
 546 488 519 460 503 452 c 1
 516 440 528 425 528 417 c 1xe010
 528 405 500 376 484 369 c 1
 497 357 510 341 510 333 c 0xe020
190 333 m 0xf0
 190 319 154 283 140 283 c 0
 126 283 90 319 90 333 c 0xf0
 90 345 117 374 133 381 c 1
 120 393 108 409 108 417 c 0xe8
 108 429 135 457 151 465 c 1
 138 477 126 492 126 500 c 0
 126 512 152 540 168 548 c 1
 155 560 143 575 143 583 c 0
 143 597 179 633 193 633 c 0
 207 633 243 597 243 583 c 0xe2
 243 571 217 543 201 535 c 1
 214 523 226 508 226 500 c 0
 226 488 199 460 183 452 c 1
 196 440 208 425 208 417 c 0xe8
 208 405 180 376 164 369 c 1
 177 357 190 341 190 333 c 0xf0
599 750 m 0xe002
 599 736 563 700 549 700 c 0
 535 700 499 736 499 750 c 0
 499 764 535 800 549 800 c 0
 563 800 599 764 599 750 c 0xe002
279 750 m 0xe1
 279 736 243 700 229 700 c 0
 215 700 179 736 179 750 c 0
 179 764 215 800 229 800 c 0
 243 800 279 764 279 750 c 0xe1
EndSplineSet
EndChar

StartChar: underscore
Encoding: 95 95 63
Width: 600
VWidth: 0
UnlinkRmOvrlpSave: 1
Flags: W
HStem: 200 100<107.757 172.243 214.757 279.243 320.757 385.243 427.757 492.243>
VStem: 90 100<217.757 282.243> 197 100<217.757 282.243> 303 100<217.757 282.243> 410 100<217.757 282.243>
LayerCount: 2
Back
Fore
SplineSet
510 250 m 0
 510 236 474 200 460 200 c 0
 446 200 410 236 410 250 c 0
 410 264 446 300 460 300 c 0
 474 300 510 264 510 250 c 0
403 250 m 0
 403 236 367 200 353 200 c 0
 339 200 303 236 303 250 c 0
 303 264 339 300 353 300 c 0
 367 300 403 264 403 250 c 0
297 250 m 0
 297 236 261 200 247 200 c 0
 233 200 197 236 197 250 c 0
 197 264 233 300 247 300 c 0
 261 300 297 264 297 250 c 0
190 250 m 0
 190 236 154 200 140 200 c 0
 126 200 90 236 90 250 c 0
 90 264 126 300 140 300 c 0
 154 300 190 264 190 250 c 0
EndSplineSet
EndChar

StartChar: glyph64
Encoding: 567 567 64
Width: 600
VWidth: 0
UnlinkRmOvrlpSave: 1
Flags: W
HStem: 200 100<142.757 207.243 249.757 314.243 356.757 421.243> 283 100<107.757 172.243> 613 20G<506 520>
VStem: 90 100<300.757 365.243> 125 100<217.757 282.243> 232 100<217.757 282.243> 339 100<217.757 282.243> 410 100<300.757 364.935> 428 100<385.809 448.554> 446 100<468.446 531.615> 463 100<551.385 615.243>
LayerCount: 2
Back
Fore
SplineSet
439 250 m 0xa6
 439 236 403 200 389 200 c 0
 375 200 339 236 339 250 c 0
 339 264 375 300 389 300 c 0
 403 300 439 264 439 250 c 0xa6
332 250 m 0
 332 236 296 200 282 200 c 0
 268 200 232 236 232 250 c 0
 232 264 268 300 282 300 c 0
 296 300 332 264 332 250 c 0
225 250 m 0xac
 225 236 189 200 175 200 c 0
 161 200 125 236 125 250 c 0
 125 264 161 300 175 300 c 0
 189 300 225 264 225 250 c 0xac
510 333 m 0x65
 510 319 474 283 460 283 c 0
 446 283 410 319 410 333 c 0x65
 410 345 437 374 453 381 c 1
 440 393 428 409 428 417 c 0x6480
 428 429 455 457 471 465 c 1
 458 477 446 492 446 500 c 1x6440
 446 512 472 540 488 548 c 1
 475 560 463 575 463 583 c 0
 463 597 499 633 513 633 c 0
 527 633 563 597 563 583 c 0x6420
 563 571 537 543 521 535 c 1
 534 523 546 508 546 500 c 0x6440
 546 488 519 460 503 452 c 1
 516 440 528 425 528 417 c 1x6480
 528 405 500 376 484 369 c 1
 497 357 510 341 510 333 c 0x65
190 333 m 0x74
 190 319 154 283 140 283 c 0
 126 283 90 319 90 333 c 0
 90 347 126 383 140 383 c 0
 154 383 190 347 190 333 c 0x74
EndSplineSet
EndChar

StartChar: agrave
Encoding: 224 224 65
Width: 600
VWidth: 0
UnlinkRmOvrlpSave: 1
Flags: W
HStem: 200 100<142.757 207.243 249.757 314.243 356.757 421.243> 283 100<107.757 172.243 427.757 492.243> 367 100<178.757 243.243 285.757 350.243 392.757 457.243> 450 100<463.757 528.243> 533 100<213.757 278.243 320.757 385.243 427.757 492.243> 617 100<391.757 456.243> 700 100<356.757 421.243>
VStem: 90 100<300.757 365.243> 125 100<217.757 282.243> 161 100<384.757 449.243> 196 100<550.757 615.243> 232 100<217.757 282.243> 268 100<384.757 449.243> 303 100<550.757 615.243> 339 100<217.757 282.243 717.757 782.243> 375 100<384.757 449.243 635.748 698.252> 410 100<300.757 365.243 550.757 615.243> 446 100<467.757 532.243>
LayerCount: 2
Back
Fore
SplineSet
439 250 m 0x8002
 439 236 403 200 389 200 c 0
 375 200 339 236 339 250 c 0
 339 264 375 300 389 300 c 0
 403 300 439 264 439 250 c 0x8002
332 250 m 0x8010
 332 236 296 200 282 200 c 0
 268 200 232 236 232 250 c 0
 232 264 268 300 282 300 c 0
 296 300 332 264 332 250 c 0x8010
225 250 m 0x8080
 225 236 189 200 175 200 c 0
 161 200 125 236 125 250 c 0
 125 264 161 300 175 300 c 0
 189 300 225 264 225 250 c 0x8080
510 333 m 0x400080
 510 319 474 283 460 283 c 0
 446 283 410 319 410 333 c 0
 410 347 446 383 460 383 c 0
 474 383 510 347 510 333 c 0x400080
190 333 m 0x41
 190 319 154 283 140 283 c 0
 126 283 90 319 90 333 c 0
 90 347 126 383 140 383 c 0
 154 383 190 347 190 333 c 0x41
475 417 m 0x2001
 475 403 439 367 425 367 c 0
 411 367 375 403 375 417 c 0
 375 431 411 467 425 467 c 0
 439 467 475 431 475 417 c 0x2001
368 417 m 0x2008
 368 403 332 367 318 367 c 0
 304 367 268 403 268 417 c 0
 268 431 304 467 318 467 c 0
 332 467 368 431 368 417 c 0x2008
261 417 m 0x2040
 261 403 225 367 211 367 c 0
 197 367 161 403 161 417 c 0
 161 431 197 467 211 467 c 0
 225 467 261 431 261 417 c 0x2040
546 500 m 0x100040
 546 486 510 450 496 450 c 0
 482 450 446 486 446 500 c 0
 446 514 482 550 496 550 c 0
 510 550 546 514 546 500 c 0x100040
510 583 m 0x080080
 510 569 474 533 460 533 c 0
 446 533 410 569 410 583 c 0
 410 597 446 633 460 633 c 0
 474 633 510 597 510 583 c 0x080080
403 583 m 0x0804
 403 569 367 533 353 533 c 0
 339 533 303 569 303 583 c 0
 303 597 339 633 353 633 c 0
 367 633 403 597 403 583 c 0x0804
296 583 m 0x0820
 296 569 260 533 246 533 c 0
 232 533 196 569 196 583 c 0
 196 597 232 633 246 633 c 0
 260 633 296 597 296 583 c 0x0820
474 667 m 0
 474 653 438 617 424 617 c 0
 410 617 374 653 374 667 c 0
 374 681 410 717 424 717 c 0x04
 438 717 474 681 474 667 c 0
439 750 m 0x0202
 439 736 403 700 389 700 c 0
 375 700 339 736 339 750 c 0
 339 764 375 800 389 800 c 0
 403 800 439 764 439 750 c 0x0202
EndSplineSet
EndChar

StartChar: c
Encoding: 99 99 66
Width: 600
VWidth: 0
UnlinkRmOvrlpSave: 1
Flags: W
HStem: 200 100<142.757 207.243 249.757 314.243 356.757 421.243> 450 100<463.757 528.243> 533 100<213.757 278.243 320.757 385.243 427.757 492.243>
VStem: 90 100<300.757 364.935> 108 100<385.809 448.554> 125 100<217.757 282.243 469.239 531.252> 196 100<550.757 615.243> 232 100<217.757 282.243> 303 100<550.757 615.243> 339 100<217.757 282.243> 410 100<550.757 615.243> 446 100<467.757 532.243>
LayerCount: 2
Back
Fore
SplineSet
439 250 m 0x8040
 439 236 403 200 389 200 c 0
 375 200 339 236 339 250 c 0
 339 264 375 300 389 300 c 0
 403 300 439 264 439 250 c 0x8040
332 250 m 0x81
 332 236 296 200 282 200 c 0
 268 200 232 236 232 250 c 0
 232 264 268 300 282 300 c 0
 296 300 332 264 332 250 c 0x81
225 250 m 0x84
 225 236 189 200 175 200 c 0
 161 200 125 236 125 250 c 0
 125 264 161 300 175 300 c 0
 189 300 225 264 225 250 c 0x84
190 333 m 0xd0
 190 319 154 283 140 283 c 0
 126 283 90 319 90 333 c 0xd0
 90 345 117 374 133 381 c 1
 120 393 108 409 108 417 c 0
 108 429 135 457 151 465 c 1
 138 477 126 492 126 500 c 0
 126 514 162 550 176 550 c 0
 190 550 226 514 226 500 c 0
 226 488 199 460 183 452 c 1
 196 440 208 425 208 417 c 0xc8
 208 405 180 376 164 369 c 1
 177 357 190 341 190 333 c 0xd0
546 500 m 0xc010
 546 486 510 450 496 450 c 0
 482 450 446 486 446 500 c 0
 446 514 482 550 496 550 c 0
 510 550 546 514 546 500 c 0xc010
510 583 m 0xa020
 510 569 474 533 460 533 c 0
 446 533 410 569 410 583 c 0
 410 597 446 633 460 633 c 0
 474 633 510 597 510 583 c 0xa020
403 583 m 0xa080
 403 569 367 533 353 533 c 0
 339 533 303 569 303 583 c 0
 303 597 339 633 353 633 c 0
 367 633 403 597 403 583 c 0xa080
296 583 m 0xa2
 296 569 260 533 246 533 c 0
 232 533 196 569 196 583 c 0
 196 597 232 633 246 633 c 0
 260 633 296 597 296 583 c 0xa2
EndSplineSet
EndChar

StartChar: adieresis
Encoding: 228 228 67
Width: 600
VWidth: 0
UnlinkRmOvrlpSave: 1
Flags: W
HStem: 200 100<142.757 207.243 249.757 314.243 356.757 421.243> 283 100<107.757 172.243 427.757 492.243> 367 100<178.757 243.243 285.757 350.243 392.757 457.243> 450 100<463.757 528.243> 533 100<213.757 278.243 320.757 385.243 427.757 492.243> 700 100<249.757 314.243 463.757 528.243>
VStem: 90 100<300.757 365.243> 125 100<217.757 282.243> 161 100<384.757 449.243> 196 100<550.757 615.243> 232 100<217.757 282.243 717.757 782.243> 268 100<384.757 449.243> 303 100<550.757 615.243> 339 100<217.757 282.243> 375 100<384.757 449.243> 410 100<300.757 365.243 550.757 615.243> 446 100<467.757 532.243 717.757 782.243>
LayerCount: 2
Back
Fore
SplineSet
439 250 m 0x8404
 439 236 403 200 389 200 c 0
 375 200 339 236 339 250 c 0
 339 264 375 300 389 300 c 0
 403 300 439 264 439 250 c 0x8404
332 250 m 0x8420
 332 236 296 200 282 200 c 0
 268 200 232 236 232 250 c 0
 232 264 268 300 282 300 c 0
 296 300 332 264 332 250 c 0x8420
225 250 m 0x85
 225 236 189 200 175 200 c 0
 161 200 125 236 125 250 c 0
 125 264 161 300 175 300 c 0
 189 300 225 264 225 250 c 0x85
510 333 m 0x4401
 510 319 474 283 460 283 c 0
 446 283 410 319 410 333 c 0
 410 347 446 383 460 383 c 0
 474 383 510 347 510 333 c 0x4401
190 333 m 0x46
 190 319 154 283 140 283 c 0
 126 283 90 319 90 333 c 0
 90 347 126 383 140 383 c 0
 154 383 190 347 190 333 c 0x46
475 417 m 0x2402
 475 403 439 367 425 367 c 0
 411 367 375 403 375 417 c 0
 375 431 411 467 425 467 c 0
 439 467 475 431 475 417 c 0x2402
368 417 m 0x2410
 368 403 332 367 318 367 c 0
 304 367 268 403 268 417 c 0
 268 431 304 467 318 467 c 0
 332 467 368 431 368 417 c 0x2410
261 417 m 0x2480
 261 403 225 367 211 367 c 0
 197 367 161 403 161 417 c 0
 161 431 197 467 211 467 c 0
 225 467 261 431 261 417 c 0x2480
546 500 m 0x140080
 546 486 510 450 496 450 c 0
 482 450 446 486 446 500 c 0
 446 514 482 550 496 550 c 0
 510 550 546 514 546 500 c 0x140080
510 583 m 0x0c01
 510 569 474 533 460 533 c 0
 446 533 410 569 410 583 c 0
 410 597 446 633 460 633 c 0
 474 633 510 597 510 583 c 0x0c01
403 583 m 0x0c08
 403 569 367 533 353 533 c 0
 339 533 303 569 303 583 c 0
 303 597 339 633 353 633 c 0
 367 633 403 597 403 583 c 0x0c08
296 583 m 0x0c40
 296 569 260 533 246 533 c 0
 232 533 196 569 196 583 c 0
 196 597 232 633 246 633 c 0
 260 633 296 597 296 583 c 0x0c40
546 750 m 0x040080
 546 736 510 700 496 700 c 0
 482 700 446 736 446 750 c 0
 446 764 482 800 496 800 c 0
 510 800 546 764 546 750 c 0x040080
332 750 m 0x0420
 332 736 296 700 282 700 c 0
 268 700 232 736 232 750 c 0
 232 764 268 800 282 800 c 0
 296 800 332 764 332 750 c 0x0420
EndSplineSet
EndChar

StartChar: g
Encoding: 103 103 68
Width: 600
VWidth: 0
UnlinkRmOvrlpSave: 1
Flags: W
HStem: 200 100<107.757 172.243 214.757 279.243 320.757 385.243> 367 100<196.757 261.243 303.757 368.243 410.757 475.243> 450 100<161.757 226.243 481.757 546.243> 533 100<231.757 296.243 338.757 403.243 445.757 510.243> 617 100<516.757 581.243>
VStem: 90 100<217.757 282.243> 144 100<467.757 532.243> 179 100<384.757 449.243> 197 100<217.757 282.243> 214 100<550.757 615.243> 286 100<384.757 449.243> 303 100<217.757 282.243> 321 100<550.757 615.243> 393 100<384.757 449.243> 410 100<217.757 281.554> 428 100<301.446 365.243 550.757 615.243> 464 100<467.757 532.243> 499 100<634.757 699.243>
LayerCount: 2
Back
Fore
SplineSet
510 250 m 0x8002
 510 236 474 200 460 200 c 0
 446 200 410 236 410 250 c 0x8002
 410 262 437 290 453 298 c 1
 440 310 428 325 428 333 c 0
 428 347 464 383 478 383 c 0
 492 383 528 347 528 333 c 0x8001
 528 321 501 293 485 285 c 1
 498 273 510 258 510 250 c 0x8002
403 250 m 0x8010
 403 236 367 200 353 200 c 0
 339 200 303 236 303 250 c 0
 303 264 339 300 353 300 c 0
 367 300 403 264 403 250 c 0x8010
297 250 m 0x8080
 297 236 261 200 247 200 c 0
 233 200 197 236 197 250 c 0
 197 264 233 300 247 300 c 0
 261 300 297 264 297 250 c 0x8080
190 250 m 0x84
 190 236 154 200 140 200 c 0
 126 200 90 236 90 250 c 0
 90 264 126 300 140 300 c 0
 154 300 190 264 190 250 c 0x84
493 417 m 0xc004
 493 403 457 367 443 367 c 0
 429 367 393 403 393 417 c 0
 393 431 429 467 443 467 c 0
 457 467 493 431 493 417 c 0xc004
386 417 m 0xc020
 386 403 350 367 336 367 c 0
 322 367 286 403 286 417 c 0
 286 431 322 467 336 467 c 0
 350 467 386 431 386 417 c 0xc020
279 417 m 0xc1
 279 403 243 367 229 367 c 0
 215 367 179 403 179 417 c 0
 179 431 215 467 229 467 c 0
 243 467 279 431 279 417 c 0xc1
564 500 m 0xa00080
 564 486 528 450 514 450 c 0
 500 450 464 486 464 500 c 0
 464 514 500 550 514 550 c 0
 528 550 564 514 564 500 c 0xa00080
244 500 m 0xa2
 244 486 208 450 194 450 c 0
 180 450 144 486 144 500 c 0
 144 514 180 550 194 550 c 0
 208 550 244 514 244 500 c 0xa2
528 583 m 0x9001
 528 569 492 533 478 533 c 0
 464 533 428 569 428 583 c 0
 428 597 464 633 478 633 c 0
 492 633 528 597 528 583 c 0x9001
421 583 m 0x9008
 421 569 385 533 371 533 c 0
 357 533 321 569 321 583 c 0
 321 597 357 633 371 633 c 0
 385 633 421 597 421 583 c 0x9008
314 583 m 0x9040
 314 569 278 533 264 533 c 0
 250 533 214 569 214 583 c 0
 214 597 250 633 264 633 c 0
 278 633 314 597 314 583 c 0x9040
599 667 m 0x880040
 599 653 563 617 549 617 c 0
 535 617 499 653 499 667 c 0
 499 681 535 717 549 717 c 0
 563 717 599 681 599 667 c 0x880040
EndSplineSet
EndChar

StartChar: egrave
Encoding: 232 232 69
Width: 600
VWidth: 0
UnlinkRmOvrlpSave: 1
Flags: W
HStem: 200 100<142.757 207.243 249.757 314.243 356.757 421.243> 367 100<232.757 297.243 338.757 403.243> 533 100<213.757 278.243 320.757 385.243 427.757 492.243> 617 100<391.757 456.243> 700 100<356.757 421.243>
VStem: 90 100<300.757 364.935> 108 100<385.809 448.554> 125 100<217.757 282.243 469.239 531.252> 196 100<550.757 615.243> 215 100<384.757 449.243> 232 100<217.757 282.243> 303 100<550.757 615.243> 321 100<384.757 449.243> 339 100<217.757 282.243 717.757 782.243> 374 100<634.757 699.243> 410 100<550.757 615.243> 428 100<384.757 448.554> 446 100<468.446 532.243>
LayerCount: 2
Back
Fore
SplineSet
439 250 m 0xc004
 439 236 403 200 389 200 c 0
 375 200 339 236 339 250 c 0
 339 264 375 300 389 300 c 0
 403 300 439 264 439 250 c 0xc004
332 250 m 0xc020
 332 236 296 200 282 200 c 0
 268 200 232 236 232 250 c 0
 232 264 268 300 282 300 c 0
 296 300 332 264 332 250 c 0xc020
225 250 m 0xc1
 225 236 189 200 175 200 c 0
 161 200 125 236 125 250 c 0
 125 264 161 300 175 300 c 0
 189 300 225 264 225 250 c 0xc1
190 333 m 0xc4
 190 319 154 283 140 283 c 0
 126 283 90 319 90 333 c 0xc4
 90 345 117 374 133 381 c 1
 120 393 108 409 108 417 c 0
 108 429 135 457 151 465 c 1
 138 477 126 492 126 500 c 0
 126 514 162 550 176 550 c 0
 190 550 226 514 226 500 c 0
 226 488 199 460 183 452 c 1
 196 440 208 425 208 417 c 0xc2
 208 405 180 376 164 369 c 1
 177 357 190 341 190 333 c 0xc4
528 417 m 1xc00080
 528 403 492 367 478 367 c 0
 464 367 428 403 428 417 c 0xc00080
 428 429 455 457 471 465 c 1
 458 477 446 492 446 500 c 1
 446 514 482 550 496 550 c 0
 510 550 546 514 546 500 c 0xc00040
 546 488 519 460 503 452 c 1
 516 440 528 425 528 417 c 1xc00080
421 417 m 0xc008
 421 403 385 367 371 367 c 0
 357 367 321 403 321 417 c 0
 321 431 357 467 371 467 c 0
 385 467 421 431 421 417 c 0xc008
315 417 m 0xc040
 315 403 279 367 265 367 c 0
 251 367 215 403 215 417 c 0
 215 431 251 467 265 467 c 0
 279 467 315 431 315 417 c 0xc040
510 583 m 0xe001
 510 569 474 533 460 533 c 0
 446 533 410 569 410 583 c 0
 410 597 446 633 460 633 c 0
 474 633 510 597 510 583 c 0xe001
403 583 m 0xe010
 403 569 367 533 353 533 c 0
 339 533 303 569 303 583 c 0
 303 597 339 633 353 633 c 0
 367 633 403 597 403 583 c 0xe010
296 583 m 0xe080
 296 569 260 533 246 533 c 0
 232 533 196 569 196 583 c 0
 196 597 232 633 246 633 c 0
 260 633 296 597 296 583 c 0xe080
474 667 m 0xd002
 474 653 438 617 424 617 c 0
 410 617 374 653 374 667 c 0
 374 681 410 717 424 717 c 0
 438 717 474 681 474 667 c 0xd002
439 750 m 0xc804
 439 736 403 700 389 700 c 0
 375 700 339 736 339 750 c 0
 339 764 375 800 389 800 c 0
 403 800 439 764 439 750 c 0xc804
EndSplineSet
EndChar

StartChar: k
Encoding: 107 107 70
Width: 600
VWidth: 0
UnlinkRmOvrlpSave: 1
Flags: W
HStem: 200 100<427.757 492.243> 200 21G<133 147> 283 100<338.757 403.243> 367 100<250.757 315.243> 450 100<321.757 386.243> 533 100<391.757 456.243> 780 20G<240 254>
VStem: 90 100<217.757 281.554> 108 100<301.446 364.935> 126 100<385.809 448.554> 144 100<468.446 531.615> 161 100<551.385 614.191> 179 100<635.065 698.554> 197 100<718.446 782.243> 233 100<384.757 449.243> 304 100<467.757 532.243> 321 100<300.757 365.243> 374 100<550.757 615.243> 410 100<217.757 282.243>
LayerCount: 2
Back
Fore
SplineSet
510 250 m 0x820020
 510 236 474 200 460 200 c 0
 446 200 410 236 410 250 c 0
 410 264 446 300 460 300 c 0
 474 300 510 264 510 250 c 0x820020
190 250 m 0x43
 190 236 154 200 140 200 c 0
 126 200 90 236 90 250 c 0x43
 90 262 117 290 133 298 c 1
 120 310 108 325 108 333 c 0x4280
 108 345 135 374 151 381 c 1
 138 393 126 409 126 417 c 0x4240
 126 429 153 457 169 465 c 1
 156 477 144 492 144 500 c 0x4220
 144 512 170 540 186 548 c 1
 173 560 161 575 161 583 c 0x4210
 161 595 189 624 205 631 c 1
 192 643 179 659 179 667 c 0x4208
 179 679 206 707 222 715 c 1
 209 727 197 742 197 750 c 0
 197 764 233 800 247 800 c 0
 261 800 297 764 297 750 c 0x4204
 297 738 270 710 254 702 c 1
 267 690 279 675 279 667 c 0x4208
 279 655 252 626 236 619 c 1
 249 607 261 591 261 583 c 0x4210
 261 571 235 543 219 535 c 1
 232 523 244 508 244 500 c 0x4220
 244 488 217 460 201 452 c 1
 214 440 226 425 226 417 c 0x4240
 226 405 198 376 182 369 c 1
 195 357 208 341 208 333 c 0x4280
 208 321 181 293 165 285 c 1
 178 273 190 258 190 250 c 0x43
421 333 m 0x220080
 421 319 385 283 371 283 c 0
 357 283 321 319 321 333 c 0
 321 347 357 383 371 383 c 0
 385 383 421 347 421 333 c 0x220080
333 417 m 0x1202
 333 403 297 367 283 367 c 0
 269 367 233 403 233 417 c 0
 233 431 269 467 283 467 c 0
 297 467 333 431 333 417 c 0x1202
404 500 m 0x0a01
 404 486 368 450 354 450 c 0
 340 450 304 486 304 500 c 0
 304 514 340 550 354 550 c 0
 368 550 404 514 404 500 c 0x0a01
474 583 m 0x060040
 474 569 438 533 424 533 c 0
 410 533 374 569 374 583 c 0
 374 597 410 633 424 633 c 0
 438 633 474 597 474 583 c 0x060040
EndSplineSet
EndChar

StartChar: o
Encoding: 111 111 71
Width: 600
VWidth: 0
UnlinkRmOvrlpSave: 1
Flags: W
HStem: 200 100<142.757 207.243 249.757 314.243 356.757 421.243> 533 100<213.757 278.243 320.757 385.243 427.757 492.243>
VStem: 90 100<300.757 364.935> 108 100<385.809 448.554> 125 100<217.757 282.243 469.239 531.252> 196 100<550.757 615.243> 232 100<217.757 282.243> 303 100<550.757 615.243> 339 100<217.757 282.243> 410 100<300.757 364.935 550.757 615.243> 428 100<385.809 448.554> 446 100<468.446 532.243>
LayerCount: 2
Back
Fore
SplineSet
439 250 m 0xc080
 439 236 403 200 389 200 c 0
 375 200 339 236 339 250 c 0
 339 264 375 300 389 300 c 0
 403 300 439 264 439 250 c 0xc080
332 250 m 0xc2
 332 236 296 200 282 200 c 0
 268 200 232 236 232 250 c 0
 232 264 268 300 282 300 c 0
 296 300 332 264 332 250 c 0xc2
225 250 m 0xc8
 225 236 189 200 175 200 c 0
 161 200 125 236 125 250 c 0
 125 264 161 300 175 300 c 0
 189 300 225 264 225 250 c 0xc8
510 333 m 0xc040
 510 319 474 283 460 283 c 0
 446 283 410 319 410 333 c 0xc040
 410 345 437 374 453 381 c 1
 440 393 428 409 428 417 c 0xc020
 428 429 455 457 471 465 c 1
 458 477 446 492 446 500 c 1
 446 514 482 550 496 550 c 0
 510 550 546 514 546 500 c 0xc010
 546 488 519 460 503 452 c 1
 516 440 528 425 528 417 c 1xc020
 528 405 500 376 484 369 c 1
 497 357 510 341 510 333 c 0xc040
190 333 m 0xe0
 190 319 154 283 140 283 c 0
 126 283 90 319 90 333 c 0xe0
 90 345 117 374 133 381 c 1
 120 393 108 409 108 417 c 0
 108 429 135 457 151 465 c 1
 138 477 126 492 126 500 c 0
 126 514 162 550 176 550 c 0
 190 550 226 514 226 500 c 0
 226 488 199 460 183 452 c 1
 196 440 208 425 208 417 c 0xd0
 208 405 180 376 164 369 c 1
 177 357 190 341 190 333 c 0xe0
510 583 m 0xc040
 510 569 474 533 460 533 c 0
 446 533 410 569 410 583 c 0
 410 597 446 633 460 633 c 0
 474 633 510 597 510 583 c 0xc040
403 583 m 0xc1
 403 569 367 533 353 533 c 0
 339 533 303 569 303 583 c 0
 303 597 339 633 353 633 c 0
 367 633 403 597 403 583 c 0xc1
296 583 m 0xc4
 296 569 260 533 246 533 c 0
 232 533 196 569 196 583 c 0
 196 597 232 633 246 633 c 0
 260 633 296 597 296 583 c 0xc4
EndSplineSet
EndChar

StartChar: s
Encoding: 115 115 72
Width: 600
VWidth: 0
UnlinkRmOvrlpSave: 1
Flags: W
HStem: 200 100<107.757 172.243 214.757 279.243 321.757 386.243> 283 100<392.757 457.243> 367 100<143.757 208.243 250.757 315.243 357.757 422.243> 450 100<108.757 173.243> 533 100<178.757 243.243 285.757 350.243 392.757 457.243>
VStem: 90 100<217.757 282.243 468.748 531.252> 126 100<384.757 449.243> 161 100<550.757 615.243> 197 100<217.757 282.243> 233 100<384.757 449.243> 268 100<550.757 615.243> 304 100<217.757 282.243> 340 100<384.757 449.243> 375 100<300.757 365.243 550.757 615.243>
LayerCount: 2
Back
Fore
SplineSet
404 250 m 0x8010
 404 236 368 200 354 200 c 0
 340 200 304 236 304 250 c 0
 304 264 340 300 354 300 c 0
 368 300 404 264 404 250 c 0x8010
297 250 m 0x8080
 297 236 261 200 247 200 c 0
 233 200 197 236 197 250 c 0
 197 264 233 300 247 300 c 0
 261 300 297 264 297 250 c 0x8080
190 250 m 0x84
 190 236 154 200 140 200 c 0
 126 200 90 236 90 250 c 0
 90 264 126 300 140 300 c 0
 154 300 190 264 190 250 c 0x84
475 333 m 0x4004
 475 319 439 283 425 283 c 0
 411 283 375 319 375 333 c 0
 375 347 411 383 425 383 c 0
 439 383 475 347 475 333 c 0x4004
440 417 m 0x2008
 440 403 404 367 390 367 c 0
 376 367 340 403 340 417 c 0
 340 431 376 467 390 467 c 0
 404 467 440 431 440 417 c 0x2008
333 417 m 0x2040
 333 403 297 367 283 367 c 0
 269 367 233 403 233 417 c 0
 233 431 269 467 283 467 c 0
 297 467 333 431 333 417 c 0x2040
226 417 m 0x22
 226 403 190 367 176 367 c 0
 162 367 126 403 126 417 c 0
 126 431 162 467 176 467 c 0
 190 467 226 431 226 417 c 0x22
191 500 m 0
 191 486 155 450 141 450 c 0
 127 450 91 486 91 500 c 0
 91 514 127 550 141 550 c 0x10
 155 550 191 514 191 500 c 0
475 583 m 0x0804
 475 569 439 533 425 533 c 0
 411 533 375 569 375 583 c 0
 375 597 411 633 425 633 c 0
 439 633 475 597 475 583 c 0x0804
368 583 m 0x0820
 368 569 332 533 318 533 c 0
 304 533 268 569 268 583 c 0
 268 597 304 633 318 633 c 0
 332 633 368 597 368 583 c 0x0820
261 583 m 0x09
 261 569 225 533 211 533 c 0
 197 533 161 569 161 583 c 0
 161 597 197 633 211 633 c 0
 225 633 261 597 261 583 c 0x09
EndSplineSet
EndChar

StartChar: glyph73
Encoding: 373 373 73
Width: 600
VWidth: 0
UnlinkRmOvrlpSave: 1
Flags: W
HStem: 200 100<142.757 207.243 356.757 421.243> 283 100<214.757 279.243 320.757 385.243> 367 100<285.757 350.243> 617 100<231.757 296.243 445.757 510.243> 700 100<303.757 368.243 409.757 474.243>
VStem: 90 100<300.757 364.935> 108 100<385.809 448.554> 125 100<217.757 282.243 469.239 531.252> 197 100<300.757 365.243> 214 100<634.757 699.243> 268 100<384.757 449.243> 286 100<717.757 782.243> 303 100<300.757 365.243> 339 100<217.757 282.243> 392 100<717.757 782.243> 410 100<300.757 364.935> 428 100<385.809 448.554 634.757 699.243> 446 100<468.446 532.243>
LayerCount: 2
Back
Fore
SplineSet
439 250 m 0x8004
 439 236 403 200 389 200 c 0
 375 200 339 236 339 250 c 0
 339 264 375 300 389 300 c 0
 403 300 439 264 439 250 c 0x8004
225 250 m 0x81
 225 236 189 200 175 200 c 0
 161 200 125 236 125 250 c 0
 125 264 161 300 175 300 c 0
 189 300 225 264 225 250 c 0x81
510 333 m 0x4001
 510 319 474 283 460 283 c 0
 446 283 410 319 410 333 c 0x4001
 410 345 437 374 453 381 c 1
 440 393 428 409 428 417 c 0x400080
 428 429 455 457 471 465 c 1
 458 477 446 492 446 500 c 1
 446 514 482 550 496 550 c 0
 510 550 546 514 546 500 c 0x400040
 546 488 519 460 503 452 c 1
 516 440 528 425 528 417 c 1x400080
 528 405 500 376 484 369 c 1
 497 357 510 341 510 333 c 0x4001
403 333 m 0x4008
 403 319 367 283 353 283 c 0
 339 283 303 319 303 333 c 0
 303 347 339 383 353 383 c 0
 367 383 403 347 403 333 c 0x4008
297 333 m 0x4080
 297 319 261 283 247 283 c 0
 233 283 197 319 197 333 c 0
 197 347 233 383 247 383 c 0
 261 383 297 347 297 333 c 0x4080
190 333 m 0x44
 190 319 154 283 140 283 c 0
 126 283 90 319 90 333 c 0x44
 90 345 117 374 133 381 c 1
 120 393 108 409 108 417 c 0
 108 429 135 457 151 465 c 1
 138 477 126 492 126 500 c 0
 126 514 162 550 176 550 c 0
 190 550 226 514 226 500 c 0
 226 488 199 460 183 452 c 1
 196 440 208 425 208 417 c 0x42
 208 405 180 376 164 369 c 1
 177 357 190 341 190 333 c 0x44
368 417 m 0x2020
 368 403 332 367 318 367 c 0
 304 367 268 403 268 417 c 0
 268 431 304 467 318 467 c 0
 332 467 368 431 368 417 c 0x2020
528 667 m 0x100080
 528 653 492 617 478 617 c 0
 464 617 428 653 428 667 c 0
 428 681 464 717 478 717 c 0
 492 717 528 681 528 667 c 0x100080
314 667 m 0x1040
 314 653 278 617 264 617 c 0
 250 617 214 653 214 667 c 0
 214 681 250 717 264 717 c 0
 278 717 314 681 314 667 c 0x1040
492 750 m 0x0802
 492 736 456 700 442 700 c 0
 428 700 392 736 392 750 c 0
 392 764 428 800 442 800 c 0
 456 800 492 764 492 750 c 0x0802
386 750 m 0x0810
 386 736 350 700 336 700 c 0
 322 700 286 736 286 750 c 0
 286 764 322 800 336 800 c 0
 350 800 386 764 386 750 c 0x0810
EndSplineSet
EndChar

StartChar: w
Encoding: 119 119 74
Width: 600
VWidth: 0
UnlinkRmOvrlpSave: 1
Flags: W
HStem: 200 100<142.757 207.243 356.757 421.243> 283 100<214.757 279.243 320.757 385.243> 367 100<285.757 350.243> 613 20G<186 200 506 520>
VStem: 90 100<300.757 364.935> 108 100<385.809 448.554> 125 100<217.757 282.243 469.239 531.554> 143 100<551.385 615.243> 197 100<300.757 365.243> 268 100<384.757 449.243> 303 100<300.757 365.243> 339 100<217.757 282.243> 410 100<300.757 364.935> 428 100<385.809 448.554> 446 100<468.446 531.615> 463 100<551.385 615.243>
LayerCount: 2
Back
Fore
SplineSet
439 250 m 0x9010
 439 236 403 200 389 200 c 0
 375 200 339 236 339 250 c 0
 339 264 375 300 389 300 c 0
 403 300 439 264 439 250 c 0x9010
225 250 m 0x92
 225 236 189 200 175 200 c 0
 161 200 125 236 125 250 c 0
 125 264 161 300 175 300 c 0
 189 300 225 264 225 250 c 0x92
510 333 m 0x5008
 510 319 474 283 460 283 c 0
 446 283 410 319 410 333 c 0x5008
 410 345 437 374 453 381 c 1
 440 393 428 409 428 417 c 0x5004
 428 429 455 457 471 465 c 1
 458 477 446 492 446 500 c 1x5002
 446 512 472 540 488 548 c 1
 475 560 463 575 463 583 c 0
 463 597 499 633 513 633 c 0
 527 633 563 597 563 583 c 0x5001
 563 571 537 543 521 535 c 1
 534 523 546 508 546 500 c 0x5002
 546 488 519 460 503 452 c 1
 516 440 528 425 528 417 c 1x5004
 528 405 500 376 484 369 c 1
 497 357 510 341 510 333 c 0x5008
403 333 m 0x5020
 403 319 367 283 353 283 c 0
 339 283 303 319 303 333 c 0
 303 347 339 383 353 383 c 0
 367 383 403 347 403 333 c 0x5020
297 333 m 0x5080
 297 319 261 283 247 283 c 0
 233 283 197 319 197 333 c 0
 197 347 233 383 247 383 c 0
 261 383 297 347 297 333 c 0x5080
190 333 m 0x58
 190 319 154 283 140 283 c 0
 126 283 90 319 90 333 c 0x58
 90 345 117 374 133 381 c 1
 120 393 108 409 108 417 c 0x54
 108 429 135 457 151 465 c 1
 138 477 126 492 126 500 c 0
 126 512 152 540 168 548 c 1
 155 560 143 575 143 583 c 0
 143 597 179 633 193 633 c 0
 207 633 243 597 243 583 c 0x51
 243 571 217 543 201 535 c 1
 214 523 226 508 226 500 c 0
 226 488 199 460 183 452 c 1
 196 440 208 425 208 417 c 0x54
 208 405 180 376 164 369 c 1
 177 357 190 341 190 333 c 0x58
368 417 m 0x3040
 368 403 332 367 318 367 c 0
 304 367 268 403 268 417 c 0
 268 431 304 467 318 467 c 0
 332 467 368 431 368 417 c 0x3040
EndSplineSet
EndChar

StartChar: oslash
Encoding: 248 248 75
Width: 600
VWidth: 0
UnlinkRmOvrlpSave: 1
Flags: W
HStem: 200 100<142.757 207.243 249.757 314.243 356.757 421.243> 283 100<214.757 279.243> 367 100<285.757 350.243> 450 100<356.757 421.243> 533 100<213.757 278.243 320.757 385.243 427.757 492.243>
VStem: 90 100<300.757 364.935> 108 100<385.809 448.554> 125 100<217.757 282.243 469.239 531.252> 197 100<300.757 365.243 551.748 614.252> 232 100<217.757 282.243> 268 100<384.757 449.243> 303 100<550.757 615.243> 339 100<217.757 282.243 467.757 532.243> 410 100<300.757 364.935 550.757 615.243> 428 100<385.809 448.554> 446 100<468.446 532.243>
LayerCount: 2
Back
Fore
SplineSet
439 250 m 0x8008
 439 236 403 200 389 200 c 0
 375 200 339 236 339 250 c 0
 339 264 375 300 389 300 c 0
 403 300 439 264 439 250 c 0x8008
332 250 m 0x8040
 332 236 296 200 282 200 c 0
 268 200 232 236 232 250 c 0
 232 264 268 300 282 300 c 0
 296 300 332 264 332 250 c 0x8040
225 250 m 0x81
 225 236 189 200 175 200 c 0
 161 200 125 236 125 250 c 0
 125 264 161 300 175 300 c 0
 189 300 225 264 225 250 c 0x81
510 333 m 0x5004
 510 319 474 283 460 283 c 0
 446 283 410 319 410 333 c 0x5004
 410 345 437 374 453 381 c 1
 440 393 428 409 428 417 c 0x5002
 428 429 455 457 471 465 c 1
 458 477 446 492 446 500 c 1
 446 514 482 550 496 550 c 0
 510 550 546 514 546 500 c 0x5001
 546 488 519 460 503 452 c 1
 516 440 528 425 528 417 c 1x5002
 528 405 500 376 484 369 c 1
 497 357 510 341 510 333 c 0x5004
297 333 m 0x4080
 297 319 261 283 247 283 c 0
 233 283 197 319 197 333 c 0
 197 347 233 383 247 383 c 0
 261 383 297 347 297 333 c 0x4080
190 333 m 0x54
 190 319 154 283 140 283 c 0
 126 283 90 319 90 333 c 0x54
 90 345 117 374 133 381 c 1
 120 393 108 409 108 417 c 0
 108 429 135 457 151 465 c 1
 138 477 126 492 126 500 c 0
 126 514 162 550 176 550 c 0
 190 550 226 514 226 500 c 0
 226 488 199 460 183 452 c 1
 196 440 208 425 208 417 c 0x52
 208 405 180 376 164 369 c 1
 177 357 190 341 190 333 c 0x54
368 417 m 0x2020
 368 403 332 367 318 367 c 0
 304 367 268 403 268 417 c 0
 268 431 304 467 318 467 c 0
 332 467 368 431 368 417 c 0x2020
439 500 m 0x1008
 439 486 403 450 389 450 c 0
 375 450 339 486 339 500 c 0
 339 514 375 550 389 550 c 0
 403 550 439 514 439 500 c 0x1008
510 583 m 0x0804
 510 569 474 533 460 533 c 0
 446 533 410 569 410 583 c 0
 410 597 446 633 460 633 c 0
 474 633 510 597 510 583 c 0x0804
403 583 m 0x0810
 403 569 367 533 353 533 c 0
 339 533 303 569 303 583 c 0
 303 597 339 633 353 633 c 0
 367 633 403 597 403 583 c 0x0810
296 583 m 0
 296 569 260 533 246 533 c 0
 232 533 196 569 196 583 c 0
 196 597 232 633 246 633 c 0
 260 633 296 597 296 583 c 0
EndSplineSet
EndChar

StartChar: braceleft
Encoding: 123 123 76
Width: 600
VWidth: 0
UnlinkRmOvrlpSave: 1
Flags: W
HStem: 200 100<266.757 331.243 373.757 438.243> 450 100<107.757 172.243 214.757 279.243> 700 100<373.757 438.243 480.757 545.243>
VStem: 90 100<467.757 532.243> 197 100<467.757 532.243> 214 100<300.757 364.935> 232 100<385.809 449.243> 249 100<217.757 282.243> 267 100<550.757 614.191> 285 100<635.065 699.243> 356 100<217.757 282.243 717.757 782.243> 463 100<717.757 782.243>
CounterMasks: 1 e0
LayerCount: 2
Back
Fore
SplineSet
456 250 m 0xf030
 456 236 420 200 406 200 c 0
 392 200 356 236 356 250 c 0
 356 264 392 300 406 300 c 0
 420 300 456 264 456 250 c 0xf030
349 250 m 0xf110
 349 236 313 200 299 200 c 0
 285 200 249 236 249 250 c 0
 249 264 285 300 299 300 c 0
 313 300 349 264 349 250 c 0xf110
314 333 m 0xf410
 314 319 278 283 264 283 c 0
 250 283 214 319 214 333 c 0xf410
 214 345 241 374 257 381 c 1
 244 393 232 409 232 417 c 0
 232 431 268 467 282 467 c 0
 296 467 332 431 332 417 c 0xf210
 332 405 304 376 288 369 c 1
 301 357 314 341 314 333 c 0xf410
297 500 m 0xf810
 297 486 261 450 247 450 c 0
 233 450 197 486 197 500 c 0
 197 514 233 550 247 550 c 0
 261 550 297 514 297 500 c 0xf810
190 500 m 0
 190 486 154 450 140 450 c 0
 126 450 90 486 90 500 c 0
 90 514 126 550 140 550 c 0
 154 550 190 514 190 500 c 0
367 583 m 0xf090
 367 569 331 533 317 533 c 0
 303 533 267 569 267 583 c 0xf090
 267 595 295 624 311 631 c 1
 298 643 285 659 285 667 c 0
 285 681 321 717 335 717 c 0
 349 717 385 681 385 667 c 0xf050
 385 655 358 626 342 619 c 1
 355 607 367 591 367 583 c 0xf090
563 750 m 0
 563 736 527 700 513 700 c 0
 499 700 463 736 463 750 c 0
 463 764 499 800 513 800 c 0
 527 800 563 764 563 750 c 0
456 750 m 0xf030
 456 736 420 700 406 700 c 0
 392 700 356 736 356 750 c 0
 356 764 392 800 406 800 c 0
 420 800 456 764 456 750 c 0xf030
EndSplineSet
EndChar

StartChar: udieresis
Encoding: 252 252 77
Width: 600
VWidth: 0
UnlinkRmOvrlpSave: 1
Flags: W
HStem: 200 100<196.757 261.243 302.757 367.243> 613 20G<186 200 506 520> 700 100<249.757 314.243 463.757 528.243>
VStem: 90 100<300.757 364.935> 108 100<385.809 448.554> 126 100<468.446 531.615> 143 100<551.385 615.243> 179 100<217.757 282.243> 232 100<717.757 782.243> 285 100<217.757 282.243> 392 100<217.757 281.554> 410 100<301.446 364.935> 428 100<385.809 448.554> 446 100<468.446 531.615 717.757 782.243> 463 100<551.385 615.243>
LayerCount: 2
Back
Fore
SplineSet
492 250 m 0xe020
 492 236 456 200 442 200 c 0
 428 200 392 236 392 250 c 0xe020
 392 262 419 290 435 298 c 1
 422 310 410 325 410 333 c 0xe010
 410 345 437 374 453 381 c 1
 440 393 428 409 428 417 c 0xe008
 428 429 455 457 471 465 c 1
 458 477 446 492 446 500 c 1xe004
 446 512 472 540 488 548 c 1
 475 560 463 575 463 583 c 0
 463 597 499 633 513 633 c 0
 527 633 563 597 563 583 c 0xe002
 563 571 537 543 521 535 c 1
 534 523 546 508 546 500 c 0xe004
 546 488 519 460 503 452 c 1
 516 440 528 425 528 417 c 1xe008
 528 405 500 376 484 369 c 1
 497 357 510 341 510 333 c 0xe010
 510 321 483 293 467 285 c 1
 480 273 492 258 492 250 c 0xe020
385 250 m 0xe040
 385 236 349 200 335 200 c 0
 321 200 285 236 285 250 c 0
 285 264 321 300 335 300 c 0
 349 300 385 264 385 250 c 0xe040
279 250 m 0xe1
 279 236 243 200 229 200 c 0
 215 200 179 236 179 250 c 0
 179 264 215 300 229 300 c 0
 243 300 279 264 279 250 c 0xe1
190 333 m 0xf0
 190 319 154 283 140 283 c 0
 126 283 90 319 90 333 c 0xf0
 90 345 117 374 133 381 c 1
 120 393 108 409 108 417 c 0xe8
 108 429 135 457 151 465 c 1
 138 477 126 492 126 500 c 0xe4
 126 512 152 540 168 548 c 1
 155 560 143 575 143 583 c 0
 143 597 179 633 193 633 c 0
 207 633 243 597 243 583 c 0xe2
 243 571 217 543 201 535 c 1
 214 523 226 508 226 500 c 0xe4
 226 488 199 460 183 452 c 1
 196 440 208 425 208 417 c 0xe8
 208 405 180 376 164 369 c 1
 177 357 190 341 190 333 c 0xf0
546 750 m 0xe004
 546 736 510 700 496 700 c 0
 482 700 446 736 446 750 c 0
 446 764 482 800 496 800 c 0
 510 800 546 764 546 750 c 0xe004
332 750 m 0xe080
 332 736 296 700 282 700 c 0
 268 700 232 736 232 750 c 0
 232 764 268 800 282 800 c 0
 296 800 332 764 332 750 c 0xe080
EndSplineSet
EndChar

StartChar: glyph78
Encoding: 776 776 78
Width: 600
VWidth: 0
UnlinkRmOvrlpSave: 1
Flags: W
HStem: 700 100<107.757 172.243 321.757 386.243>
VStem: 90 100<717.757 782.243> 304 100<717.757 782.243>
LayerCount: 2
Back
Fore
SplineSet
404 750 m 0
 404 736 368 700 354 700 c 0
 340 700 304 736 304 750 c 0
 304 764 340 800 354 800 c 0
 368 800 404 764 404 750 c 0
190 750 m 0
 190 736 154 700 140 700 c 0
 126 700 90 736 90 750 c 0
 90 764 126 800 140 800 c 0
 154 800 190 764 190 750 c 0
EndSplineSet
EndChar

StartChar: glyph79
Encoding: 9786 9786 79
Width: 600
VWidth: 0
UnlinkRmOvrlpSave: 1
Flags: W
HStem: 283 100<142.757 207.243 249.757 314.243 356.757 421.243> 367 100<107.757 172.243 427.757 492.243> 617 100<213.757 278.243 427.757 492.243>
VStem: 90 100<384.757 449.243> 125 100<300.757 365.243> 196 100<634.757 699.243> 232 100<300.757 365.243> 339 100<300.757 365.243> 410 100<384.757 449.243 634.757 699.243>
LayerCount: 2
Back
Fore
SplineSet
439 333 m 0xa1
 439 319 403 283 389 283 c 0
 375 283 339 319 339 333 c 0
 339 347 375 383 389 383 c 0
 403 383 439 347 439 333 c 0xa1
332 333 m 0xa2
 332 319 296 283 282 283 c 0
 268 283 232 319 232 333 c 0
 232 347 268 383 282 383 c 0
 296 383 332 347 332 333 c 0xa2
225 333 m 0xa8
 225 319 189 283 175 283 c 0
 161 283 125 319 125 333 c 0
 125 347 161 383 175 383 c 0
 189 383 225 347 225 333 c 0xa8
510 417 m 0x6080
 510 403 474 367 460 367 c 0
 446 367 410 403 410 417 c 0
 410 431 446 467 460 467 c 0
 474 467 510 431 510 417 c 0x6080
190 417 m 0x70
 190 403 154 367 140 367 c 0
 126 367 90 403 90 417 c 0
 90 431 126 467 140 467 c 0
 154 467 190 431 190 417 c 0x70
510 667 m 0x2080
 510 653 474 617 460 617 c 0
 446 617 410 653 410 667 c 0
 410 681 446 717 460 717 c 0
 474 717 510 681 510 667 c 0x2080
296 667 m 0x24
 296 653 260 617 246 617 c 0
 232 617 196 653 196 667 c 0
 196 681 232 717 246 717 c 0
 260 717 296 681 296 667 c 0x24
EndSplineSet
EndChar

StartChar: glyph80
Encoding: 8595 8595 80
Width: 600
VWidth: 0
UnlinkRmOvrlpSave: 1
Flags: W
HStem: 200 21G<257 271> 200 21G<257 271> 283 100<142.757 207.243 356.757 421.243> 367 100<107.757 172.243 427.757 492.243> 780 20G<364 378>
VStem: 90 100<384.757 449.243> 125 100<300.757 365.243> 214 100<217.757 281.554> 232 100<301.446 364.935> 250 100<385.809 448.554> 268 100<468.446 531.615> 285 100<551.385 614.191> 303 100<635.065 698.554> 321 100<718.446 782.243> 339 100<300.757 365.243> 410 100<384.757 449.243>
LayerCount: 2
Back
Fore
SplineSet
314 250 m 0x89
 314 236 278 200 264 200 c 0
 250 200 214 236 214 250 c 0x89
 214 262 241 290 257 298 c 1
 244 310 232 325 232 333 c 0x8880
 232 345 259 374 275 381 c 1
 262 393 250 409 250 417 c 0x8840
 250 429 277 457 293 465 c 1
 280 477 268 492 268 500 c 1x8820
 268 512 294 540 310 548 c 1
 297 560 285 575 285 583 c 0x8810
 285 595 313 624 329 631 c 1
 316 643 303 659 303 667 c 0x8808
 303 679 330 707 346 715 c 1
 333 727 321 742 321 750 c 0
 321 764 357 800 371 800 c 0
 385 800 421 764 421 750 c 0x8804
 421 738 394 710 378 702 c 1
 391 690 403 675 403 667 c 0x8808
 403 655 376 626 360 619 c 1
 373 607 385 591 385 583 c 0x8810
 385 571 359 543 343 535 c 1
 356 523 368 508 368 500 c 0x8820
 368 488 341 460 325 452 c 1
 338 440 350 425 350 417 c 1x8840
 350 405 322 376 306 369 c 1
 319 357 332 341 332 333 c 0x8880
 332 321 305 293 289 285 c 1
 302 273 314 258 314 250 c 0x89
439 333 m 0x2802
 439 319 403 283 389 283 c 0
 375 283 339 319 339 333 c 0
 339 347 375 383 389 383 c 0
 403 383 439 347 439 333 c 0x2802
225 333 m 0x2a
 225 319 189 283 175 283 c 0
 161 283 125 319 125 333 c 0
 125 347 161 383 175 383 c 0
 189 383 225 347 225 333 c 0x2a
510 417 m 0x1801
 510 403 474 367 460 367 c 0
 446 367 410 403 410 417 c 0
 410 431 446 467 460 467 c 0
 474 467 510 431 510 417 c 0x1801
190 417 m 0x1c
 190 403 154 367 140 367 c 0
 126 367 90 403 90 417 c 0
 90 431 126 467 140 467 c 0
 154 467 190 431 190 417 c 0x1c
EndSplineSet
EndChar

StartChar: quotedbl
Encoding: 34 34 81
Width: 600
VWidth: 0
UnlinkRmOvrlpSave: 1
Flags: W
HStem: 533 267<151.934 164.066 257.934 270.066>
VStem: 90 100<550.757 614.191> 108 100<635.065 698.554> 126 100<718.446 782.243> 196 100<550.757 614.191> 214 100<635.065 698.554> 232 100<718.446 782.243>
LayerCount: 2
Back
Fore
SplineSet
296 583 m 0x88
 296 569 260 533 246 533 c 0
 232 533 196 569 196 583 c 0x88
 196 595 224 624 240 631 c 1
 227 643 214 659 214 667 c 0x84
 214 679 241 707 257 715 c 1
 244 727 232 742 232 750 c 0
 232 764 268 800 282 800 c 0
 296 800 332 764 332 750 c 0x82
 332 738 305 710 289 702 c 1
 302 690 314 675 314 667 c 0x84
 314 655 287 626 271 619 c 1
 284 607 296 591 296 583 c 0x88
190 583 m 0xc0
 190 569 154 533 140 533 c 0
 126 533 90 569 90 583 c 0xc0
 90 595 118 624 134 631 c 1
 121 643 108 659 108 667 c 0xa0
 108 679 135 707 151 715 c 1
 138 727 126 742 126 750 c 0
 126 764 162 800 176 800 c 0
 190 800 226 764 226 750 c 0x90
 226 738 199 710 183 702 c 1
 196 690 208 675 208 667 c 0xa0
 208 655 181 626 165 619 c 1
 178 607 190 591 190 583 c 0xc0
EndSplineSet
EndChar

StartChar: ampersand
Encoding: 38 38 82
Width: 600
VWidth: 0
UnlinkRmOvrlpSave: 1
Flags: W
HStem: 200 100<142.757 207.243 249.757 314.243 356.757 421.243> 283 100<107.757 172.243 320.757 385.243> 367 100<178.757 243.243 285.757 350.243 392.757 457.243> 450 100<250.757 315.243> 533 100<213.757 278.243 320.757 385.243> 617 100<178.757 243.243 391.757 456.243> 700 100<249.757 314.243 356.757 421.243>
VStem: 90 100<300.757 365.243> 125 100<217.757 282.243> 161 100<384.757 449.243 634.757 699.243> 196 100<550.757 615.243> 232 100<217.757 282.243 468.748 531.252 717.757 782.243> 268 100<384.757 449.243> 303 100<300.757 365.243 550.757 615.243> 339 100<217.757 282.243 717.757 782.243> 375 100<384.757 449.243 635.748 698.252>
LayerCount: 2
Back
Fore
SplineSet
439 250 m 0x8002
 439 236 403 200 389 200 c 0
 375 200 339 236 339 250 c 0
 339 264 375 300 389 300 c 0
 403 300 439 264 439 250 c 0x8002
332 250 m 0x8010
 332 236 296 200 282 200 c 0
 268 200 232 236 232 250 c 0
 232 264 268 300 282 300 c 0
 296 300 332 264 332 250 c 0x8010
225 250 m 0x8080
 225 236 189 200 175 200 c 0
 161 200 125 236 125 250 c 0
 125 264 161 300 175 300 c 0
 189 300 225 264 225 250 c 0x8080
403 333 m 0x4004
 403 319 367 283 353 283 c 0
 339 283 303 319 303 333 c 0
 303 347 339 383 353 383 c 0
 367 383 403 347 403 333 c 0x4004
190 333 m 0x41
 190 319 154 283 140 283 c 0
 126 283 90 319 90 333 c 0
 90 347 126 383 140 383 c 0
 154 383 190 347 190 333 c 0x41
475 417 m 0x2001
 475 403 439 367 425 367 c 0
 411 367 375 403 375 417 c 0
 375 431 411 467 425 467 c 0
 439 467 475 431 475 417 c 0x2001
368 417 m 0x2008
 368 403 332 367 318 367 c 0
 304 367 268 403 268 417 c 0
 268 431 304 467 318 467 c 0
 332 467 368 431 368 417 c 0x2008
261 417 m 0x2040
 261 403 225 367 211 367 c 0
 197 367 161 403 161 417 c 0
 161 431 197 467 211 467 c 0
 225 467 261 431 261 417 c 0x2040
333 500 m 0
 333 486 297 450 283 450 c 0
 269 450 233 486 233 500 c 0
 233 514 269 550 283 550 c 0x10
 297 550 333 514 333 500 c 0
403 583 m 0x0804
 403 569 367 533 353 533 c 0
 339 533 303 569 303 583 c 0
 303 597 339 633 353 633 c 0
 367 633 403 597 403 583 c 0x0804
296 583 m 0x0820
 296 569 260 533 246 533 c 0
 232 533 196 569 196 583 c 0
 196 597 232 633 246 633 c 0
 260 633 296 597 296 583 c 0x0820
474 667 m 0
 474 653 438 617 424 617 c 0
 410 617 374 653 374 667 c 0
 374 681 410 717 424 717 c 0x04
 438 717 474 681 474 667 c 0
261 667 m 0x0440
 261 653 225 617 211 617 c 0
 197 617 161 653 161 667 c 0
 161 681 197 717 211 717 c 0
 225 717 261 681 261 667 c 0x0440
439 750 m 0x0202
 439 736 403 700 389 700 c 0
 375 700 339 736 339 750 c 0
 339 764 375 800 389 800 c 0
 403 800 439 764 439 750 c 0x0202
332 750 m 0x0210
 332 736 296 700 282 700 c 0
 268 700 232 736 232 750 c 0
 232 764 268 800 282 800 c 0
 296 800 332 764 332 750 c 0x0210
EndSplineSet
EndChar

StartChar: asterisk
Encoding: 42 42 83
Width: 600
VWidth: 0
UnlinkRmOvrlpSave: 1
Flags: W
HStem: 200 21G<275 289> 200 21G<275 289> 283 100<107.757 172.243 427.757 492.243> 367 100<178.757 243.243 392.757 457.243> 450 100<250.757 315.243 356.757 421.243> 533 100<213.757 278.243 427.757 492.243> 617 100<178.757 243.243 498.757 563.243> 780 20G<382 396>
VStem: 90 100<300.757 365.243> 161 100<384.757 449.243 634.757 699.243> 196 100<550.757 615.243> 232 100<217.757 281.554 468.748 531.252> 250 100<301.446 364.935> 268 100<385.809 449.243> 303 100<550.757 614.191> 321 100<635.065 698.554> 339 100<467.757 532.243 718.446 782.243> 375 100<384.757 449.243> 410 100<300.757 365.243 550.757 615.243> 481 100<634.757 699.243>
LayerCount: 2
Back
Fore
SplineSet
332 250 m 0x9110
 332 236 296 200 282 200 c 0
 268 200 232 236 232 250 c 0x9110
 232 262 259 290 275 298 c 1
 262 310 250 325 250 333 c 0x9108
 250 345 277 374 293 381 c 1
 280 393 268 409 268 417 c 0
 268 431 304 467 318 467 c 0
 332 467 368 431 368 417 c 0x9104
 368 405 340 376 324 369 c 1
 337 357 350 341 350 333 c 0x9108
 350 321 323 293 307 285 c 1
 320 273 332 258 332 250 c 0x9110
510 333 m 0x210020
 510 319 474 283 460 283 c 0
 446 283 410 319 410 333 c 0
 410 347 446 383 460 383 c 0
 474 383 510 347 510 333 c 0x210020
190 333 m 0x2180
 190 319 154 283 140 283 c 0
 126 283 90 319 90 333 c 0
 90 347 126 383 140 383 c 0
 154 383 190 347 190 333 c 0x2180
475 417 m 0x110040
 475 403 439 367 425 367 c 0
 411 367 375 403 375 417 c 0
 375 431 411 467 425 467 c 0
 439 467 475 431 475 417 c 0x110040
261 417 m 0x1140
 261 403 225 367 211 367 c 0
 197 367 161 403 161 417 c 0
 161 431 197 467 211 467 c 0
 225 467 261 431 261 417 c 0x1140
439 500 m 0x090080
 439 486 403 450 389 450 c 0
 375 450 339 486 339 500 c 0
 339 514 375 550 389 550 c 0
 403 550 439 514 439 500 c 0x090080
333 500 m 0
 333 486 297 450 283 450 c 0
 269 450 233 486 233 500 c 0
 233 514 269 550 283 550 c 0
 297 550 333 514 333 500 c 0
510 583 m 0x050020
 510 569 474 533 460 533 c 0
 446 533 410 569 410 583 c 0
 410 597 446 633 460 633 c 0
 474 633 510 597 510 583 c 0x050020
403 583 m 0x0502
 403 569 367 533 353 533 c 0
 339 533 303 569 303 583 c 0x0502
 303 595 331 624 347 631 c 1
 334 643 321 659 321 667 c 0x0501
 321 679 348 707 364 715 c 1
 351 727 339 742 339 750 c 0
 339 764 375 800 389 800 c 0
 403 800 439 764 439 750 c 0x050080
 439 738 412 710 396 702 c 1
 409 690 421 675 421 667 c 0x0501
 421 655 394 626 378 619 c 1
 391 607 403 591 403 583 c 0x0502
296 583 m 0x0520
 296 569 260 533 246 533 c 0
 232 533 196 569 196 583 c 0
 196 597 232 633 246 633 c 0
 260 633 296 597 296 583 c 0x0520
581 667 m 0x030010
 581 653 545 617 531 617 c 0
 517 617 481 653 481 667 c 0
 481 681 517 717 531 717 c 0
 545 717 581 681 581 667 c 0x030010
261 667 m 0x0340
 261 653 225 617 211 617 c 0
 197 617 161 653 161 667 c 0
 161 681 197 717 211 717 c 0
 225 717 261 681 261 667 c 0x0340
EndSplineSet
EndChar

StartChar: period
Encoding: 46 46 84
Width: 600
VWidth: 0
UnlinkRmOvrlpSave: 1
Flags: W
HStem: 200 100<142.757 207.243> 283 100<107.757 172.243 213.757 278.243> 367 100<178.757 243.243>
VStem: 90 100<300.757 365.243> 125 100<217.757 282.243> 161 100<384.757 449.243> 196 100<300.757 365.243>
LayerCount: 2
Back
Fore
SplineSet
225 250 m 0x88
 225 236 189 200 175 200 c 0
 161 200 125 236 125 250 c 0
 125 264 161 300 175 300 c 0
 189 300 225 264 225 250 c 0x88
296 333 m 0x42
 296 319 260 283 246 283 c 0
 232 283 196 319 196 333 c 0
 196 347 232 383 246 383 c 0
 260 383 296 347 296 333 c 0x42
190 333 m 0x50
 190 319 154 283 140 283 c 0
 126 283 90 319 90 333 c 0
 90 347 126 383 140 383 c 0
 154 383 190 347 190 333 c 0x50
261 417 m 0x24
 261 403 225 367 211 367 c 0
 197 367 161 403 161 417 c 0
 161 431 197 467 211 467 c 0
 225 467 261 431 261 417 c 0x24
EndSplineSet
EndChar

StartChar: plusminus
Encoding: 177 177 85
Width: 600
VWidth: 0
UnlinkRmOvrlpSave: 1
Flags: W
HStem: 283 100<107.757 172.243 214.757 279.243 320.757 385.243 427.757 492.243> 450 100<303.757 368.243> 533 100<160.757 225.243 267.757 332.243 373.757 438.243 480.757 545.243> 780 20G<382 396>
VStem: 90 100<300.757 365.243> 143 100<550.757 615.243> 197 100<300.757 365.243> 250 100<550.757 615.243> 286 100<467.757 532.243> 303 100<300.757 365.243> 321 100<634.757 698.554> 339 100<718.446 782.243> 356 100<550.757 615.243> 410 100<300.757 365.243> 463 100<550.757 615.243>
LayerCount: 2
Back
Fore
SplineSet
510 333 m 0x9004
 510 319 474 283 460 283 c 0
 446 283 410 319 410 333 c 0
 410 347 446 383 460 383 c 0
 474 383 510 347 510 333 c 0x9004
403 333 m 0x9040
 403 319 367 283 353 283 c 0
 339 283 303 319 303 333 c 0
 303 347 339 383 353 383 c 0
 367 383 403 347 403 333 c 0x9040
297 333 m 0x92
 297 319 261 283 247 283 c 0
 233 283 197 319 197 333 c 0
 197 347 233 383 247 383 c 0
 261 383 297 347 297 333 c 0x92
190 333 m 0x98
 190 319 154 283 140 283 c 0
 126 283 90 319 90 333 c 0
 90 347 126 383 140 383 c 0
 154 383 190 347 190 333 c 0x98
386 500 m 0xd080
 386 486 350 450 336 450 c 0
 322 450 286 486 286 500 c 0
 286 514 322 550 336 550 c 0
 350 550 386 514 386 500 c 0xd080
563 583 m 0xb002
 563 569 527 533 513 533 c 0
 499 533 463 569 463 583 c 0
 463 597 499 633 513 633 c 0
 527 633 563 597 563 583 c 0xb002
456 583 m 0xb008
 456 569 420 533 406 533 c 0
 392 533 356 569 356 583 c 0
 356 597 392 633 406 633 c 0
 420 633 456 597 456 583 c 0xb008
350 583 m 0xb1
 350 569 314 533 300 533 c 0
 286 533 250 569 250 583 c 0
 250 597 286 633 300 633 c 0
 314 633 350 597 350 583 c 0xb1
243 583 m 0xb4
 243 569 207 533 193 533 c 0
 179 533 143 569 143 583 c 0
 143 597 179 633 193 633 c 0
 207 633 243 597 243 583 c 0xb4
421 667 m 0x9020
 421 653 385 617 371 617 c 0
 357 617 321 653 321 667 c 0x9020
 321 679 348 707 364 715 c 1
 351 727 339 742 339 750 c 0
 339 764 375 800 389 800 c 0
 403 800 439 764 439 750 c 0x9010
 439 738 412 710 396 702 c 1
 409 690 421 675 421 667 c 0x9020
EndSplineSet
EndChar

StartChar: two
Encoding: 50 50 86
Width: 600
VWidth: 0
UnlinkRmOvrlpSave: 1
Flags: W
HStem: 200 100<107.757 172.243 214.757 279.243 320.757 385.243 427.757 492.243> 283 100<178.757 243.243> 367 100<303.757 368.243> 450 100<428.757 493.243> 617 100<196.757 261.243> 700 100<267.757 332.243 374.757 439.243 481.757 546.243>
VStem: 90 100<217.757 282.243> 161 100<300.757 365.243> 179 100<634.757 699.243> 197 100<217.757 282.243> 250 100<717.757 782.243> 286 100<384.757 449.243> 303 100<217.757 282.243> 357 100<717.757 782.243> 410 100<217.757 282.243 468.748 531.252> 464 100<717.757 782.243> 481 100<550.757 614.191> 499 100<635.065 699.243>
LayerCount: 2
Back
Fore
SplineSet
510 250 m 0x8002
 510 236 474 200 460 200 c 0
 446 200 410 236 410 250 c 0
 410 264 446 300 460 300 c 0
 474 300 510 264 510 250 c 0x8002
403 250 m 0x8008
 403 236 367 200 353 200 c 0
 339 200 303 236 303 250 c 0
 303 264 339 300 353 300 c 0
 367 300 403 264 403 250 c 0x8008
297 250 m 0x8040
 297 236 261 200 247 200 c 0
 233 200 197 236 197 250 c 0
 197 264 233 300 247 300 c 0
 261 300 297 264 297 250 c 0x8040
190 250 m 0x82
 190 236 154 200 140 200 c 0
 126 200 90 236 90 250 c 0
 90 264 126 300 140 300 c 0
 154 300 190 264 190 250 c 0x82
261 333 m 0x41
 261 319 225 283 211 283 c 0
 197 283 161 319 161 333 c 0
 161 347 197 383 211 383 c 0
 225 383 261 347 261 333 c 0x41
386 417 m 0x2010
 386 403 350 367 336 367 c 0
 322 367 286 403 286 417 c 0
 286 431 322 467 336 467 c 0
 350 467 386 431 386 417 c 0x2010
511 500 m 0
 511 486 475 450 461 450 c 0
 447 450 411 486 411 500 c 0
 411 514 447 550 461 550 c 0x10
 475 550 511 514 511 500 c 0
581 583 m 0x080080
 581 569 545 533 531 533 c 0
 517 533 481 569 481 583 c 0x080080
 481 595 509 624 525 631 c 1
 512 643 499 659 499 667 c 0
 499 681 535 717 549 717 c 0
 563 717 599 681 599 667 c 0x080040
 599 655 572 626 556 619 c 1
 569 607 581 591 581 583 c 0x080080
279 667 m 0x0880
 279 653 243 617 229 617 c 0
 215 617 179 653 179 667 c 0
 179 681 215 717 229 717 c 0
 243 717 279 681 279 667 c 0x0880
564 750 m 0x0401
 564 736 528 700 514 700 c 0
 500 700 464 736 464 750 c 0
 464 764 500 800 514 800 c 0
 528 800 564 764 564 750 c 0x0401
457 750 m 0x0404
 457 736 421 700 407 700 c 0
 393 700 357 736 357 750 c 0
 357 764 393 800 407 800 c 0
 421 800 457 764 457 750 c 0x0404
350 750 m 0x0420
 350 736 314 700 300 700 c 0
 286 700 250 736 250 750 c 0
 250 764 286 800 300 800 c 0
 314 800 350 764 350 750 c 0x0420
EndSplineSet
EndChar

StartChar: mu
Encoding: 181 181 87
Width: 600
VWidth: 0
UnlinkRmOvrlpSave: 1
Flags: W
HStem: 200 21G<133 147> 200 21G<133 147> 367 100<250.757 315.243 356.757 421.243 463.757 528.243> 613 20G<204 218 471 485>
VStem: 90 100<217.757 281.554> 108 100<301.446 364.935> 126 100<385.809 448.554> 144 100<468.446 531.615> 161 100<551.385 615.243> 233 100<384.757 449.243> 339 100<384.757 449.243> 411 100<467.757 531.615> 428 100<551.385 615.243> 446 100<384.757 449.243>
LayerCount: 2
Back
Fore
SplineSet
190 250 m 0xb8
 190 236 154 200 140 200 c 0
 126 200 90 236 90 250 c 0xb8
 90 262 117 290 133 298 c 1
 120 310 108 325 108 333 c 0xb4
 108 345 135 374 151 381 c 1
 138 393 126 409 126 417 c 0xb2
 126 429 153 457 169 465 c 1
 156 477 144 492 144 500 c 0xb1
 144 512 170 540 186 548 c 1
 173 560 161 575 161 583 c 0
 161 597 197 633 211 633 c 0
 225 633 261 597 261 583 c 0xb080
 261 571 235 543 219 535 c 1
 232 523 244 508 244 500 c 0xb1
 244 488 217 460 201 452 c 1
 214 440 226 425 226 417 c 0xb2
 226 405 198 376 182 369 c 1
 195 357 208 341 208 333 c 0xb4
 208 321 181 293 165 285 c 1
 178 273 190 258 190 250 c 0xb8
546 417 m 0x3004
 546 403 510 367 496 367 c 0
 482 367 446 403 446 417 c 0
 446 431 482 467 496 467 c 0
 510 467 546 431 546 417 c 0x3004
439 417 m 0x3020
 439 403 403 367 389 367 c 0
 375 367 339 403 339 417 c 0
 339 431 375 467 389 467 c 0
 403 467 439 431 439 417 c 0x3020
333 417 m 0x3040
 333 403 297 367 283 367 c 0
 269 367 233 403 233 417 c 0
 233 431 269 467 283 467 c 0
 297 467 333 431 333 417 c 0x3040
511 500 m 0x3010
 511 486 475 450 461 450 c 0
 447 450 411 486 411 500 c 0x3010
 411 512 437 540 453 548 c 1
 440 560 428 575 428 583 c 0
 428 597 464 633 478 633 c 0
 492 633 528 597 528 583 c 0x3008
 528 571 502 543 486 535 c 1
 499 523 511 508 511 500 c 0x3010
EndSplineSet
EndChar

StartChar: six
Encoding: 54 54 88
Width: 600
VWidth: 0
UnlinkRmOvrlpSave: 1
Flags: W
HStem: 200 100<142.757 207.243 249.757 314.243 356.757 421.243> 450 100<196.757 261.243 303.757 368.243 410.757 475.243> 533 100<267.757 332.243> 617 100<338.757 403.243> 700 100<409.757 474.243>
VStem: 90 100<300.757 364.935> 108 100<385.809 449.243> 125 100<217.757 282.243> 179 100<467.757 532.243> 232 100<217.757 282.243> 250 100<550.757 615.243> 286 100<467.757 532.243> 321 100<634.757 699.243> 339 100<217.757 282.243> 393 100<467.757 532.243 718.748 781.252> 410 100<300.757 364.935> 428 100<385.809 449.243>
LayerCount: 2
Back
Fore
SplineSet
439 250 m 0x8004
 439 236 403 200 389 200 c 0
 375 200 339 236 339 250 c 0
 339 264 375 300 389 300 c 0
 403 300 439 264 439 250 c 0x8004
332 250 m 0x8040
 332 236 296 200 282 200 c 0
 268 200 232 236 232 250 c 0
 232 264 268 300 282 300 c 0
 296 300 332 264 332 250 c 0x8040
225 250 m 0x81
 225 236 189 200 175 200 c 0
 161 200 125 236 125 250 c 0
 125 264 161 300 175 300 c 0
 189 300 225 264 225 250 c 0x81
510 333 m 0x8001
 510 319 474 283 460 283 c 0
 446 283 410 319 410 333 c 0x8001
 410 345 437 374 453 381 c 1
 440 393 428 409 428 417 c 0
 428 431 464 467 478 467 c 0
 492 467 528 431 528 417 c 0x800080
 528 405 500 376 484 369 c 1
 497 357 510 341 510 333 c 0x8001
190 333 m 0x84
 190 319 154 283 140 283 c 0
 126 283 90 319 90 333 c 0x84
 90 345 117 374 133 381 c 1
 120 393 108 409 108 417 c 0
 108 431 144 467 158 467 c 0
 172 467 208 431 208 417 c 0x82
 208 405 180 376 164 369 c 1
 177 357 190 341 190 333 c 0x84
493 500 m 0xc002
 493 486 457 450 443 450 c 0
 429 450 393 486 393 500 c 0
 393 514 429 550 443 550 c 0
 457 550 493 514 493 500 c 0xc002
386 500 m 0xc010
 386 486 350 450 336 450 c 0
 322 450 286 486 286 500 c 0
 286 514 322 550 336 550 c 0
 350 550 386 514 386 500 c 0xc010
279 500 m 0xc080
 279 486 243 450 229 450 c 0
 215 450 179 486 179 500 c 0
 179 514 215 550 229 550 c 0
 243 550 279 514 279 500 c 0xc080
350 583 m 0xa020
 350 569 314 533 300 533 c 0
 286 533 250 569 250 583 c 0
 250 597 286 633 300 633 c 0
 314 633 350 597 350 583 c 0xa020
421 667 m 0x9008
 421 653 385 617 371 617 c 0
 357 617 321 653 321 667 c 0
 321 681 357 717 371 717 c 0
 385 717 421 681 421 667 c 0x9008
492 750 m 0
 492 736 456 700 442 700 c 0
 428 700 392 736 392 750 c 0
 392 764 428 800 442 800 c 0x88
 456 800 492 764 492 750 c 0
EndSplineSet
EndChar

StartChar: colon
Encoding: 58 58 89
Width: 600
VWidth: 0
UnlinkRmOvrlpSave: 1
Flags: W
HStem: 200 100<142.757 207.243> 283 100<107.757 172.243 213.757 278.243> 367 100<178.757 243.243> 533 100<213.757 278.243> 617 100<178.757 243.243 284.757 349.243> 700 100<249.757 314.243>
VStem: 90 100<300.757 365.243> 125 100<217.757 282.243> 161 100<384.757 449.243 634.757 699.243> 196 100<300.757 365.243 550.757 615.243> 232 100<717.757 782.243> 267 100<634.757 699.243>
LayerCount: 2
Back
Fore
SplineSet
225 250 m 0x81
 225 236 189 200 175 200 c 0
 161 200 125 236 125 250 c 0
 125 264 161 300 175 300 c 0
 189 300 225 264 225 250 c 0x81
296 333 m 0x4040
 296 319 260 283 246 283 c 0
 232 283 196 319 196 333 c 0
 196 347 232 383 246 383 c 0
 260 383 296 347 296 333 c 0x4040
190 333 m 0x42
 190 319 154 283 140 283 c 0
 126 283 90 319 90 333 c 0
 90 347 126 383 140 383 c 0
 154 383 190 347 190 333 c 0x42
261 417 m 0x2080
 261 403 225 367 211 367 c 0
 197 367 161 403 161 417 c 0
 161 431 197 467 211 467 c 0
 225 467 261 431 261 417 c 0x2080
296 583 m 0x1040
 296 569 260 533 246 533 c 0
 232 533 196 569 196 583 c 0
 196 597 232 633 246 633 c 0
 260 633 296 597 296 583 c 0x1040
367 667 m 0x0810
 367 653 331 617 317 617 c 0
 303 617 267 653 267 667 c 0
 267 681 303 717 317 717 c 0
 331 717 367 681 367 667 c 0x0810
261 667 m 0x0880
 261 653 225 617 211 617 c 0
 197 617 161 653 161 667 c 0
 161 681 197 717 211 717 c 0
 225 717 261 681 261 667 c 0x0880
332 750 m 0x0420
 332 736 296 700 282 700 c 0
 268 700 232 736 232 750 c 0
 232 764 268 800 282 800 c 0
 296 800 332 764 332 750 c 0x0420
EndSplineSet
EndChar

StartChar: greater
Encoding: 62 62 90
Width: 600
VWidth: 0
UnlinkRmOvrlpSave: 1
Flags: W
HStem: 200 100<107.757 172.243> 283 100<232.757 297.243> 367 100<356.757 421.243> 450 100<481.757 546.243> 533 100<391.757 456.243> 617 100<303.757 368.243> 700 100<214.757 279.243>
VStem: 90 100<217.757 282.243> 197 100<717.757 782.243> 215 100<300.757 365.243> 286 100<634.757 699.243> 339 100<384.757 449.243> 374 100<550.757 615.243> 464 100<467.757 532.243>
LayerCount: 2
Back
Fore
SplineSet
190 250 m 0x81
 190 236 154 200 140 200 c 0
 126 200 90 236 90 250 c 0
 90 264 126 300 140 300 c 0
 154 300 190 264 190 250 c 0x81
315 333 m 0x4140
 315 319 279 283 265 283 c 0
 251 283 215 319 215 333 c 0
 215 347 251 383 265 383 c 0
 279 383 315 347 315 333 c 0x4140
439 417 m 0x2110
 439 403 403 367 389 367 c 0
 375 367 339 403 339 417 c 0
 339 431 375 467 389 467 c 0
 403 467 439 431 439 417 c 0x2110
564 500 m 0x1104
 564 486 528 450 514 450 c 0
 500 450 464 486 464 500 c 0
 464 514 500 550 514 550 c 0
 528 550 564 514 564 500 c 0x1104
474 583 m 0x0908
 474 569 438 533 424 533 c 0
 410 533 374 569 374 583 c 0
 374 597 410 633 424 633 c 0
 438 633 474 597 474 583 c 0x0908
386 667 m 0x0520
 386 653 350 617 336 617 c 0
 322 617 286 653 286 667 c 0
 286 681 322 717 336 717 c 0
 350 717 386 681 386 667 c 0x0520
297 750 m 0x0380
 297 736 261 700 247 700 c 0
 233 700 197 736 197 750 c 0
 197 764 233 800 247 800 c 0
 261 800 297 764 297 750 c 0x0380
EndSplineSet
EndChar

StartChar: Aacute
Encoding: 193 193 91
Width: 600
VWidth: 0
UnlinkRmOvrlpSave: 1
Flags: W
HStem: 200 21G<133 147 453 467> 200 21G<133 147 453 467> 283 100<232.757 297.243 338.757 403.243> 367 100<196.757 261.243 410.757 475.243> 450 100<268.757 333.243 374.757 439.243> 700 100<427.757 492.243>
VStem: 90 100<217.757 281.554> 108 100<301.446 365.243> 179 100<384.757 449.243> 215 100<300.757 365.243> 251 100<467.757 532.243> 321 100<300.757 365.243 550.757 614.191> 339 100<635.065 699.243> 357 100<467.757 532.243> 393 100<384.757 449.243> 410 100<217.757 281.554 717.757 782.243> 428 100<301.446 365.243>
LayerCount: 2
Back
Fore
SplineSet
510 250 m 0xa401
 510 236 474 200 460 200 c 0
 446 200 410 236 410 250 c 0xa401
 410 262 437 290 453 298 c 1
 440 310 428 325 428 333 c 0
 428 347 464 383 478 383 c 0
 492 383 528 347 528 333 c 0xa40080
 528 321 501 293 485 285 c 1
 498 273 510 258 510 250 c 0xa401
190 250 m 0xa6
 190 236 154 200 140 200 c 0
 126 200 90 236 90 250 c 0xa6
 90 262 117 290 133 298 c 1
 120 310 108 325 108 333 c 0
 108 347 144 383 158 383 c 0
 172 383 208 347 208 333 c 0xa5
 208 321 181 293 165 285 c 1
 178 273 190 258 190 250 c 0xa6
421 333 m 0x2410
 421 319 385 283 371 283 c 0
 357 283 321 319 321 333 c 0
 321 347 357 383 371 383 c 0
 385 383 421 347 421 333 c 0x2410
315 333 m 0x2440
 315 319 279 283 265 283 c 0
 251 283 215 319 215 333 c 0
 215 347 251 383 265 383 c 0
 279 383 315 347 315 333 c 0x2440
493 417 m 0x1402
 493 403 457 367 443 367 c 0
 429 367 393 403 393 417 c 0
 393 431 429 467 443 467 c 0
 457 467 493 431 493 417 c 0x1402
279 417 m 0x1480
 279 403 243 367 229 367 c 0
 215 367 179 403 179 417 c 0
 179 431 215 467 229 467 c 0
 243 467 279 431 279 417 c 0x1480
457 500 m 0x0c04
 457 486 421 450 407 450 c 0
 393 450 357 486 357 500 c 0
 357 514 393 550 407 550 c 0
 421 550 457 514 457 500 c 0x0c04
351 500 m 0x0c20
 351 486 315 450 301 450 c 0
 287 450 251 486 251 500 c 0
 251 514 287 550 301 550 c 0
 315 550 351 514 351 500 c 0x0c20
421 583 m 0x0410
 421 569 385 533 371 533 c 0
 357 533 321 569 321 583 c 0x0410
 321 595 349 624 365 631 c 1
 352 643 339 659 339 667 c 0
 339 681 375 717 389 717 c 0
 403 717 439 681 439 667 c 0x0408
 439 655 412 626 396 619 c 1
 409 607 421 591 421 583 c 0x0410
510 750 m 0x0401
 510 736 474 700 460 700 c 0
 446 700 410 736 410 750 c 0
 410 764 446 800 460 800 c 0
 474 800 510 764 510 750 c 0x0401
EndSplineSet
EndChar

StartChar: B
Encoding: 66 66 92
Width: 600
VWidth: 0
UnlinkRmOvrlpSave: 1
Flags: W
HStem: 200 100<107.757 172.243 214.757 279.243 320.757 385.243> 450 100<321.757 386.243 428.757 493.243> 700 100<214.757 279.243 321.757 386.243 427.757 492.243>
VStem: 90 100<217.757 282.243> 161 100<300.757 364.935> 179 100<385.809 448.554> 197 100<217.757 282.243 468.446 531.615 717.757 782.243> 214 100<551.385 614.191> 232 100<635.065 699.243> 304 100<218.748 281.252 467.757 532.243 717.757 782.243> 411 100<467.757 532.243 718.748 781.252> 428 100<300.757 364.935> 446 100<385.809 449.243> 481 100<550.757 614.191> 499 100<635.065 699.243>
CounterMasks: 1 e0
LayerCount: 2
Back
Fore
SplineSet
403 250 m 0xe0
 403 236 367 200 353 200 c 0
 339 200 303 236 303 250 c 0
 303 264 339 300 353 300 c 0
 367 300 403 264 403 250 c 0xe0
297 250 m 0xe2
 297 236 261 200 247 200 c 0
 233 200 197 236 197 250 c 0
 197 264 233 300 247 300 c 0
 261 300 297 264 297 250 c 0xe2
190 250 m 0xf0
 190 236 154 200 140 200 c 0
 126 200 90 236 90 250 c 0
 90 264 126 300 140 300 c 0
 154 300 190 264 190 250 c 0xf0
528 333 m 0xe010
 528 319 492 283 478 283 c 0
 464 283 428 319 428 333 c 0xe010
 428 345 455 374 471 381 c 1
 458 393 446 409 446 417 c 0
 446 431 482 467 496 467 c 0
 510 467 546 431 546 417 c 0xe008
 546 405 518 376 502 369 c 1
 515 357 528 341 528 333 c 0xe010
261 333 m 0xe8
 261 319 225 283 211 283 c 0
 197 283 161 319 161 333 c 0xe8
 161 345 188 374 204 381 c 1
 191 393 179 409 179 417 c 0xe4
 179 429 206 457 222 465 c 1
 209 477 197 492 197 500 c 0xe2
 197 512 223 540 239 548 c 1
 226 560 214 575 214 583 c 0xe1
 214 595 242 624 258 631 c 1
 245 643 232 659 232 667 c 0
 232 681 268 717 282 717 c 0
 296 717 332 681 332 667 c 0xe080
 332 655 305 626 289 619 c 1
 302 607 314 591 314 583 c 0xe1
 314 571 288 543 272 535 c 1
 285 523 297 508 297 500 c 0xe2
 297 488 270 460 254 452 c 1
 267 440 279 425 279 417 c 0xe4
 279 405 251 376 235 369 c 1
 248 357 261 341 261 333 c 0xe8
511 500 m 0xe020
 511 486 475 450 461 450 c 0
 447 450 411 486 411 500 c 0
 411 514 447 550 461 550 c 0
 475 550 511 514 511 500 c 0xe020
404 500 m 0xe040
 404 486 368 450 354 450 c 0
 340 450 304 486 304 500 c 0
 304 514 340 550 354 550 c 0
 368 550 404 514 404 500 c 0xe040
581 583 m 0xe004
 581 569 545 533 531 533 c 0
 517 533 481 569 481 583 c 0xe004
 481 595 509 624 525 631 c 1
 512 643 499 659 499 667 c 0
 499 681 535 717 549 717 c 0
 563 717 599 681 599 667 c 0xe002
 599 655 572 626 556 619 c 1
 569 607 581 591 581 583 c 0xe004
510 750 m 0
 510 736 474 700 460 700 c 0
 446 700 410 736 410 750 c 0
 410 764 446 800 460 800 c 0
 474 800 510 764 510 750 c 0
404 750 m 0xe040
 404 736 368 700 354 700 c 0
 340 700 304 736 304 750 c 0
 304 764 340 800 354 800 c 0
 368 800 404 764 404 750 c 0xe040
297 750 m 0xe2
 297 736 261 700 247 700 c 0
 233 700 197 736 197 750 c 0
 197 764 233 800 247 800 c 0
 261 800 297 764 297 750 c 0xe2
EndSplineSet
EndChar

StartChar: Aring
Encoding: 197 197 93
Width: 600
VWidth: 0
UnlinkRmOvrlpSave: 1
Flags: W
HStem: 200 21G<133 147 453 467> 200 21G<133 147 453 467> 283 100<232.757 297.243 338.757 403.243> 367 100<196.757 261.243 410.757 475.243> 450 100<268.757 333.243 374.757 439.243> 533 100<338.757 403.243> 617 100<303.757 368.243 409.757 474.243> 700 100<374.757 439.243>
VStem: 90 100<217.757 281.554> 108 100<301.446 365.243> 179 100<384.757 449.243> 215 100<300.757 365.243> 251 100<467.757 532.243> 286 100<634.757 699.243> 321 100<300.757 365.243 550.757 615.243> 357 100<467.757 532.243 717.757 782.243> 393 100<384.757 449.243 635.748 698.252> 410 100<217.757 281.554> 428 100<301.446 365.243>
LayerCount: 2
Back
Fore
SplineSet
510 250 m 0xa00040
 510 236 474 200 460 200 c 0
 446 200 410 236 410 250 c 0xa00040
 410 262 437 290 453 298 c 1
 440 310 428 325 428 333 c 0
 428 347 464 383 478 383 c 0
 492 383 528 347 528 333 c 0xa00020
 528 321 501 293 485 285 c 1
 498 273 510 258 510 250 c 0xa00040
190 250 m 0xa080
 190 236 154 200 140 200 c 0
 126 200 90 236 90 250 c 0xa080
 90 262 117 290 133 298 c 1
 120 310 108 325 108 333 c 0
 108 347 144 383 158 383 c 0
 172 383 208 347 208 333 c 0xa040
 208 321 181 293 165 285 c 1
 178 273 190 258 190 250 c 0xa080
421 333 m 0x2002
 421 319 385 283 371 283 c 0
 357 283 321 319 321 333 c 0
 321 347 357 383 371 383 c 0
 385 383 421 347 421 333 c 0x2002
315 333 m 0x2010
 315 319 279 283 265 283 c 0
 251 283 215 319 215 333 c 0
 215 347 251 383 265 383 c 0
 279 383 315 347 315 333 c 0x2010
493 417 m 0x100080
 493 403 457 367 443 367 c 0
 429 367 393 403 393 417 c 0
 393 431 429 467 443 467 c 0
 457 467 493 431 493 417 c 0x100080
279 417 m 0x1020
 279 403 243 367 229 367 c 0
 215 367 179 403 179 417 c 0
 179 431 215 467 229 467 c 0
 243 467 279 431 279 417 c 0x1020
457 500 m 0x0801
 457 486 421 450 407 450 c 0
 393 450 357 486 357 500 c 0
 357 514 393 550 407 550 c 0
 421 550 457 514 457 500 c 0x0801
351 500 m 0x0808
 351 486 315 450 301 450 c 0
 287 450 251 486 251 500 c 0
 251 514 287 550 301 550 c 0
 315 550 351 514 351 500 c 0x0808
421 583 m 0x0402
 421 569 385 533 371 533 c 0
 357 533 321 569 321 583 c 0
 321 597 357 633 371 633 c 0
 385 633 421 597 421 583 c 0x0402
492 667 m 0
 492 653 456 617 442 617 c 0
 428 617 392 653 392 667 c 0
 392 681 428 717 442 717 c 0x02
 456 717 492 681 492 667 c 0
386 667 m 0x0204
 386 653 350 617 336 617 c 0
 322 617 286 653 286 667 c 0
 286 681 322 717 336 717 c 0
 350 717 386 681 386 667 c 0x0204
457 750 m 0x0101
 457 736 421 700 407 700 c 0
 393 700 357 736 357 750 c 0
 357 764 393 800 407 800 c 0
 421 800 457 764 457 750 c 0x0101
EndSplineSet
EndChar

StartChar: F
Encoding: 70 70 94
Width: 600
VWidth: 0
UnlinkRmOvrlpSave: 1
Flags: W
HStem: 200 21G<133 147> 200 21G<133 147> 450 100<268.757 333.243 374.757 439.243> 700 100<321.757 386.243 427.757 492.243 534.757 599.243>
VStem: 90 100<217.757 281.554> 108 100<301.446 364.935> 126 100<385.809 448.554> 144 100<468.446 531.615> 161 100<551.385 614.191> 179 100<635.065 698.554> 197 100<718.446 782.243> 251 100<467.757 532.243> 304 100<717.757 782.243> 357 100<467.757 532.243> 410 100<717.757 782.243> 517 100<717.757 782.243>
LayerCount: 2
Back
Fore
SplineSet
190 250 m 0xb801
 190 236 154 200 140 200 c 0
 126 200 90 236 90 250 c 0xb801
 90 262 117 290 133 298 c 1
 120 310 108 325 108 333 c 0xb401
 108 345 135 374 151 381 c 1
 138 393 126 409 126 417 c 0xb201
 126 429 153 457 169 465 c 1
 156 477 144 492 144 500 c 0xb101
 144 512 170 540 186 548 c 1
 173 560 161 575 161 583 c 0xb081
 161 595 189 624 205 631 c 1
 192 643 179 659 179 667 c 0xb041
 179 679 206 707 222 715 c 1
 209 727 197 742 197 750 c 0
 197 764 233 800 247 800 c 0
 261 800 297 764 297 750 c 0xb021
 297 738 270 710 254 702 c 1
 267 690 279 675 279 667 c 0xb041
 279 655 252 626 236 619 c 1
 249 607 261 591 261 583 c 0xb081
 261 571 235 543 219 535 c 1
 232 523 244 508 244 500 c 0xb101
 244 488 217 460 201 452 c 1
 214 440 226 425 226 417 c 0xb201
 226 405 198 376 182 369 c 1
 195 357 208 341 208 333 c 0xb401
 208 321 181 293 165 285 c 1
 178 273 190 258 190 250 c 0xb801
457 500 m 0x3005
 457 486 421 450 407 450 c 0
 393 450 357 486 357 500 c 0
 357 514 393 550 407 550 c 0
 421 550 457 514 457 500 c 0x3005
351 500 m 0x3011
 351 486 315 450 301 450 c 0
 287 450 251 486 251 500 c 0
 251 514 287 550 301 550 c 0
 315 550 351 514 351 500 c 0x3011
617 750 m 0
 617 736 581 700 567 700 c 0
 553 700 517 736 517 750 c 0
 517 764 553 800 567 800 c 0
 581 800 617 764 617 750 c 0
510 750 m 0x3003
 510 736 474 700 460 700 c 0
 446 700 410 736 410 750 c 0
 410 764 446 800 460 800 c 0
 474 800 510 764 510 750 c 0x3003
404 750 m 0x3009
 404 736 368 700 354 700 c 0
 340 700 304 736 304 750 c 0
 304 764 340 800 354 800 c 0
 368 800 404 764 404 750 c 0x3009
EndSplineSet
EndChar

StartChar: Eacute
Encoding: 201 201 95
Width: 600
VWidth: 0
UnlinkRmOvrlpSave: 1
Flags: W
HStem: 200 100<214.757 279.243 320.757 385.243 427.757 492.243> 367 100<250.757 315.243 356.757 421.243> 533 100<285.757 350.243 391.757 456.243 498.757 563.243> 617 100<356.757 421.243> 700 100<427.757 492.243>
VStem: 90 100<217.757 281.554> 108 100<301.446 364.935> 126 100<385.809 448.554> 144 100<468.446 531.615> 161 100<551.385 615.243> 197 100<217.757 282.243> 233 100<384.757 449.243> 268 100<550.757 615.243> 303 100<217.757 282.243> 339 100<384.757 449.243 634.757 699.243> 374 100<550.757 615.243> 410 100<217.757 282.243 717.757 782.243> 481 100<550.757 615.243>
LayerCount: 2
Back
Fore
SplineSet
510 250 m 0xc00080
 510 236 474 200 460 200 c 0
 446 200 410 236 410 250 c 0
 410 264 446 300 460 300 c 0
 474 300 510 264 510 250 c 0xc00080
403 250 m 0xc004
 403 236 367 200 353 200 c 0
 339 200 303 236 303 250 c 0
 303 264 339 300 353 300 c 0
 367 300 403 264 403 250 c 0xc004
297 250 m 0xc020
 297 236 261 200 247 200 c 0
 233 200 197 236 197 250 c 0
 197 264 233 300 247 300 c 0
 261 300 297 264 297 250 c 0xc020
190 250 m 0xe4
 190 236 154 200 140 200 c 0
 126 200 90 236 90 250 c 0xe4
 90 262 117 290 133 298 c 1
 120 310 108 325 108 333 c 0xe2
 108 345 135 374 151 381 c 1
 138 393 126 409 126 417 c 0xe1
 126 429 153 457 169 465 c 1
 156 477 144 492 144 500 c 0xe080
 144 512 170 540 186 548 c 1
 173 560 161 575 161 583 c 0
 161 597 197 633 211 633 c 0
 225 633 261 597 261 583 c 0xe040
 261 571 235 543 219 535 c 1
 232 523 244 508 244 500 c 0xe080
 244 488 217 460 201 452 c 1
 214 440 226 425 226 417 c 0xe1
 226 405 198 376 182 369 c 1
 195 357 208 341 208 333 c 0xe2
 208 321 181 293 165 285 c 1
 178 273 190 258 190 250 c 0xe4
439 417 m 0xc002
 439 403 403 367 389 367 c 0
 375 367 339 403 339 417 c 0
 339 431 375 467 389 467 c 0
 403 467 439 431 439 417 c 0xc002
333 417 m 0xc010
 333 403 297 367 283 367 c 0
 269 367 233 403 233 417 c 0
 233 431 269 467 283 467 c 0
 297 467 333 431 333 417 c 0xc010
581 583 m 0xe00040
 581 569 545 533 531 533 c 0
 517 533 481 569 481 583 c 0
 481 597 517 633 531 633 c 0
 545 633 581 597 581 583 c 0xe00040
474 583 m 0xe001
 474 569 438 533 424 533 c 0
 410 533 374 569 374 583 c 0
 374 597 410 633 424 633 c 0
 438 633 474 597 474 583 c 0xe001
368 583 m 0xe008
 368 569 332 533 318 533 c 0
 304 533 268 569 268 583 c 0
 268 597 304 633 318 633 c 0
 332 633 368 597 368 583 c 0xe008
439 667 m 0xd002
 439 653 403 617 389 617 c 0
 375 617 339 653 339 667 c 0
 339 681 375 717 389 717 c 0
 403 717 439 681 439 667 c 0xd002
510 750 m 0xc80080
 510 736 474 700 460 700 c 0
 446 700 410 736 410 750 c 0
 410 764 446 800 460 800 c 0
 474 800 510 764 510 750 c 0xc80080
EndSplineSet
EndChar

